<svg version="1.1" xmlns="http://www.w3.org/2000/svg" xmlns:xlink="http://www.w3.org/1999/xlink" width="531.16127" height="399.15683" viewBox="0,0,531.16127,399.15683"><g transform="translate(15.45975,14.35845)"><g data-paper-data="{&quot;isPaintingLayer&quot;:true}" fill-rule="nonzero" stroke-width="0" stroke-linecap="butt" stroke-linejoin="miter" stroke-miterlimit="10" stroke-dasharray="" stroke-dashoffset="0" style="mix-blend-mode: normal"><path d="M-13.29848,374.64155v-389h529v389z" fill="#9c9c9c" stroke="#000000"/><g fill="#414141" stroke="none"><path d="M-15.18213,205.4713v-90.5028h331.51397v90.5028z"/><path d="M465.24771,384.79838h-90.5028v-142.17471h90.5028z"/><path d="M463.42711,257.3232h-62.51923c-0.48993,-4.11789 -21.17422,-2.69854 -22.10088,-6.86849c-0.95583,-4.30127 -1.64883,-7.28542 -2.4332,-9.81177c-1.43021,-4.60655 -3.16423,-7.691 -7.34948,-14.46286c-4.51685,-7.30843 -33.59934,-16.97109 -33.87962,-17.25553c-11.84374,-12.02054 -27.41831,-8.35168 -42.77172,-7.86988l16.54496,-85.24544c0,0 87.03115,-11.4858 129.94122,37.43815c37.86158,58.53731 24.56794,104.07582 24.56794,104.07582z"/><path d="M290.93181,198.52799h90.5028v90.5028c0,0 -2.51775,-21.39012 -25.97514,-51.63786c-34.79383,-37.61779 -64.52766,-38.86494 -64.52766,-38.86494z"/></g><path d="" fill="#414141" stroke="none"/><path d="M251.95301,199.5604v-6.96445h46.80144v6.96445z" fill="#f3f3f3" stroke="none"/><path d="M251.95301,183.68629v-6.96445h46.80144v6.96445z" fill="#f3f3f3" stroke="none"/><path d="M251.95301,167.81219v-6.96445h46.80144v6.96445z" fill="#f3f3f3" stroke="none"/><path d="M251.95301,152.91654v-6.96445h46.80144v6.96445z" fill="#f3f3f3" stroke="none"/><path d="M251.95301,138.67323v-6.96445h46.80144v6.96445z" fill="#f3f3f3" stroke="none"/><path d="M251.95301,125.08224v-6.96445h46.80144v6.96445z" fill="#f3f3f3" stroke="none"/><path d="M-15.45975,219.10922v-13.93355h328.55725v13.93355z" fill="#898989" stroke="none"/><path d="M375.73949,384.79838h-13.93355v-117.54572h13.93355z" fill="#898989" stroke="none"/><path d="M375.93515,267.5947l-7.87553,15.24649c0,0 -12.17478,-29.3658 -25.88637,-43.35179c-13.44539,-13.71447 -42.5539,-28.02389 -42.5539,-28.02389l12.78793,-5.93861c0,0 27.64297,11.66124 41.48327,25.50154c13.86544,13.86544 22.0446,36.56626 22.0446,36.56626z" fill="#898989" stroke="none"/><path d="M-15.45975,114.90354v-13.93355h353.237v13.93355z" fill="#898989" stroke="none"/><path d="M478.71471,384.79838h-13.93355v-165.68914h13.93355z" fill="#898989" stroke="none"/><path d="M478.77217,221.63997l-14.01859,0.40091c0,0 -2.92871,-22.12855 -12.97973,-43.01449c-7.03419,-14.617 -18.06603,-28.24553 -27.95808,-35.9866c-9.67551,-7.57162 -24.4425,-15.40911 -41.44197,-20.18746c-26.43113,-7.42947 -46.697,-8.7196 -46.697,-8.7196l1.1342,-13.21367c0,0 30.57313,1.57063 61.4054,11.49435c14.71124,4.73498 29.45546,15.25198 37.74852,21.74176c10.4615,8.1867 24.23519,24.58184 32.00708,41.63245c9.11645,20.00043 10.80018,45.85237 10.80018,45.85237z" fill="#898989" stroke="none"/></g></g></svg>