<svg version="1.1" xmlns="http://www.w3.org/2000/svg" xmlns:xlink="http://www.w3.org/1999/xlink" width="500" height="377" viewBox="0,0,500,377"><g transform="translate(10,8.5)"><g data-paper-data="{&quot;isPaintingLayer&quot;:true}" fill-rule="nonzero" stroke-linejoin="miter" stroke-miterlimit="10" stroke-dasharray="" stroke-dashoffset="0" style="mix-blend-mode: normal"><path d="M-10,368.5v-377h500v377z" fill="#50569a" stroke="none" stroke-width="0" stroke-linecap="butt"/><g><g stroke="#ffffff" stroke-width="0.5" stroke-linecap="butt"><g fill="#ffffff"><path d="M146.29676,230.55542v-15.87378h27.49365v15.87379z"/><g><path d="M158.95068,215.42168v-12.43069c0,0 7.16089,-0.38925 11.13161,2.74051c3.60086,2.83822 3.70813,9.69019 3.70813,9.69019z"/><path d="M146.31713,215.42168c0,0 0.10727,-6.85197 3.70813,-9.69019c3.97073,-3.12976 11.13161,-2.74051 11.13161,-2.74051v12.4307z" data-paper-data="{&quot;index&quot;:null}"/></g><g data-paper-data="{&quot;index&quot;:null}"><path d="M173.79042,230.17929c0,0 -0.10736,6.85196 -3.71087,9.69018c-3.97366,3.12976 -11.13987,2.74051 -11.13987,2.74051v-12.43069z"/><path d="M161.1475,230.17929v12.43069c0,0 -7.16619,0.38925 -11.13987,-2.74051c-3.60353,-2.83822 -3.71088,-9.69018 -3.71088,-9.69018z" data-paper-data="{&quot;index&quot;:null}"/></g></g><path d="M146.29676,220.69729v-1.92765h27.49365v1.92765z" fill="#50569a"/><path d="M162.05432,210.34756c0,1.12309 -0.10697,2.38991 -0.55022,3.05618c-0.34848,0.52383 -0.97172,0.57611 -1.46051,0.57611c-0.44849,0 -0.95029,-0.09007 -1.28474,-0.53846c-0.49367,-0.66186 -0.72599,-1.89794 -0.72599,-3.09381c0,-1.21335 0.06655,-2.41915 0.57256,-3.07879c0.33059,-0.43096 0.99935,-0.5535 1.43817,-0.5535c0.47996,0 1.00825,0.0848 1.35396,0.59175c0.45414,0.66596 0.65677,1.90152 0.65677,3.04054z" fill="#50569a"/><path d="M159.11599,218.76963v-3.83878h1.85517v3.83878z" fill="#50569a"/><path d="M159.11599,205.50574v-2.67425h1.85517v2.67425z" fill="#50569a"/></g><path d="M196.78783,222.49298l-15.28236,11.22433v-21.97773z" fill="#ffffff" stroke="#ffffff" stroke-width="0" stroke-linecap="round"/><path d="M138.2904,211.7396v21.97773l-15.28237,-11.22434z" data-paper-data="{&quot;index&quot;:null}" fill="#ffffff" stroke="#ffffff" stroke-width="0" stroke-linecap="round"/><path d="M159.80811,181.4592l11.22433,15.28237h-21.97773z" fill="#ffffff" stroke="#ffffff" stroke-width="0" stroke-linecap="round"/><path d="M149.05471,248.56365h21.97773l-11.22434,15.28236z" data-paper-data="{&quot;index&quot;:null}" fill="#ffffff" stroke="#ffffff" stroke-width="0" stroke-linecap="round"/><path d="M155.89921,199.36001v-2.84925h8.28874v2.84925z" fill="#ffffff" stroke="none" stroke-width="0" stroke-linecap="butt"/><path d="M155.89921,248.94695v-2.84926h8.28874v2.84926z" fill="#ffffff" stroke="none" stroke-width="0" stroke-linecap="butt"/><path d="M181.81326,226.87283h-2.84926v-8.28874h2.84925z" fill="#ffffff" stroke="none" stroke-width="0" stroke-linecap="butt"/><path d="M140.67046,226.87283h-2.84926v-8.28874h2.84926z" fill="#ffffff" stroke="none" stroke-width="0" stroke-linecap="butt"/></g><text transform="translate(126.57951,167.48397) scale(0.46469,0.46469)" font-size="40" xml:space="preserve" fill="#ffffff" fill-rule="nonzero" stroke="none" stroke-width="1" stroke-linecap="butt" stroke-linejoin="miter" stroke-miterlimit="10" stroke-dasharray="" stroke-dashoffset="0" font-family="Sans Serif" font-weight="normal" text-anchor="start" style="mix-blend-mode: normal"><tspan x="0" dy="0">ROTATE</tspan></text><g><path d="M312.69559,104.81886v-15.49946h27.49365v15.49946z" fill="#ffffff" stroke="#ffffff" stroke-width="0.5" stroke-linecap="butt"/><g fill="#ffffff" stroke="#ffffff" stroke-width="0.5" stroke-linecap="butt"><path d="M325.3495,89.68511v-12.43069c0,0 7.16089,-0.38925 11.13161,2.74051c3.60086,2.83822 3.70813,9.69019 3.70813,9.69019z"/><path d="M312.71595,89.68511c0,0 0.10727,-6.85197 3.70813,-9.69019c3.97073,-3.12976 11.13161,-2.74051 11.13161,-2.74051v12.4307z" data-paper-data="{&quot;index&quot;:null}"/></g><path d="M313.47528,89.3679c0,0 0.10883,-6.04157 3.48816,-8.70519c3.72644,-2.93722 10.44679,-2.57192 10.44679,-2.57192v11.66596l0.07537,4.23085l-13.96922,0.0947z" data-paper-data="{&quot;index&quot;:null}" fill="#50569a" stroke="#50569a" stroke-width="0" stroke-linecap="butt"/><g data-paper-data="{&quot;index&quot;:null}" fill="#ffffff" stroke="#ffffff" stroke-width="0.5" stroke-linecap="butt"><path d="M340.18924,104.44272c0,0 -0.10736,6.85196 -3.71087,9.69018c-3.97366,3.12976 -11.13987,2.74051 -11.13987,2.74051v-12.43069z"/><path d="M327.54635,104.44272v12.43069c0,0 -7.16619,0.38925 -11.13987,-2.74051c-3.60353,-2.83822 -3.71088,-9.69018 -3.71088,-9.69018z" data-paper-data="{&quot;index&quot;:null}"/></g><path d="M313.48157,94.96072v-1.92765h26.11196v1.92765z" fill="#50569a" stroke="#ffffff" stroke-width="0" stroke-linecap="butt"/><path d="M310.52689,85.12809c0,0 -0.00296,-1.20993 0.2771,-2.40522c0.2514,-1.07296 0.76252,-2.10249 1.17845,-2.76458c0.39928,-0.63558 1.02062,-1.60812 1.80189,-2.20873c0.93744,-0.72067 2.52943,-1.52906 2.52943,-1.52906" fill="none" stroke="#ffffff" stroke-width="1.5" stroke-linecap="round"/><path d="M306.99978,85.67259c0,0 -0.25901,-1.16965 0.19522,-3.29004c0.3931,-1.83504 1.06253,-3.55928 1.78737,-4.56519c0.74022,-1.02725 2.084,-2.86099 3.55401,-3.69736c1.88925,-1.0749 3.27585,-1.3444 3.27585,-1.3444" fill="none" stroke="#ffffff" stroke-width="1.5" stroke-linecap="round"/></g><text transform="translate(294.68838,60.8839) scale(0.46469,0.46469)" font-size="40" xml:space="preserve" fill="#ffffff" fill-rule="nonzero" stroke="none" stroke-width="1" stroke-linecap="butt" stroke-linejoin="miter" stroke-miterlimit="10" stroke-dasharray="" stroke-dashoffset="0" font-family="Sans Serif" font-weight="normal" text-anchor="start" style="mix-blend-mode: normal"><tspan x="0" dy="0">SHOOT</tspan></text><g stroke-linecap="butt"><g><path d="M279.71167,219.68221v-24.03652h93.17014v24.03653z" fill="none" stroke="#ffffff" stroke-width="2.5"/><text transform="translate(301.65283,212.70019) scale(0.41969,0.41969)" font-size="40" xml:space="preserve" fill-opacity="0.99216" fill="#ffffff" fill-rule="nonzero" stroke="none" stroke-width="1" stroke-linecap="butt" stroke-linejoin="miter" stroke-miterlimit="10" stroke-dasharray="" stroke-dashoffset="0" font-family="Sans Serif" font-weight="normal" text-anchor="start" style="mix-blend-mode: normal"><tspan x="0" dy="0">SPACE</tspan></text></g><g fill="#ffffff" stroke="none" stroke-width="1" font-family="Sans Serif" font-weight="normal" font-size="40" text-anchor="start"><text transform="translate(290.95226,164.00885) scale(0.46469,0.46469)" font-size="40" xml:space="preserve" fill="#ffffff" fill-rule="nonzero" stroke="none" stroke-width="1" stroke-linecap="butt" stroke-linejoin="miter" stroke-miterlimit="10" stroke-dasharray="" stroke-dashoffset="0" font-family="Sans Serif" font-weight="normal" text-anchor="start" style="mix-blend-mode: normal"><tspan x="0" dy="0">ROCKET</tspan></text><text transform="translate(288.33139,183.94952) scale(0.46469,0.46469)" font-size="40" xml:space="preserve" fill="#ffffff" fill-rule="nonzero" stroke="none" stroke-width="1" stroke-linecap="butt" stroke-linejoin="miter" stroke-miterlimit="10" stroke-dasharray="" stroke-dashoffset="0" font-family="Sans Serif" font-weight="normal" text-anchor="start" style="mix-blend-mode: normal"><tspan x="0" dy="0">LAUNCH</tspan></text></g></g><text transform="translate(107.11819,60.8839) scale(0.46469,0.46469)" font-size="40" xml:space="preserve" fill="#ffffff" fill-rule="nonzero" stroke="none" stroke-width="1" stroke-linecap="butt" stroke-linejoin="miter" stroke-miterlimit="10" stroke-dasharray="" stroke-dashoffset="0" font-family="Sans Serif" font-weight="normal" text-anchor="start" style="mix-blend-mode: normal"><tspan x="0" dy="0">MOVEMENT</tspan></text><g stroke-linecap="butt"><path d="M146.50616,130.47393v-24.03652h27.16509v24.03653z" fill="none" stroke="#ffffff" stroke-width="2.5"/><text transform="translate(155.47214,123.29779) scale(0.41969,0.41969)" font-size="40" xml:space="preserve" fill-opacity="0.99216" fill="#ffffff" fill-rule="nonzero" stroke="none" stroke-width="1" stroke-linecap="butt" stroke-linejoin="miter" stroke-miterlimit="10" stroke-dasharray="" stroke-dashoffset="0" font-family="Sans Serif" font-weight="normal" text-anchor="start" style="mix-blend-mode: normal"><tspan x="0" dy="0">S</tspan></text><path d="M113.31287,130.47393v-24.03652h27.16509v24.03653z" fill="none" stroke="#ffffff" stroke-width="2.5"/><text transform="translate(121.40592,123.29779) scale(0.41969,0.41969)" font-size="40" xml:space="preserve" fill-opacity="0.99216" fill="#ffffff" fill-rule="nonzero" stroke="none" stroke-width="1" stroke-linecap="butt" stroke-linejoin="miter" stroke-miterlimit="10" stroke-dasharray="" stroke-dashoffset="0" font-family="Sans Serif" font-weight="normal" text-anchor="start" style="mix-blend-mode: normal"><tspan x="0" dy="0">A</tspan></text><path d="M179.31792,130.47393v-24.03652h27.16509v24.03653z" fill="none" stroke="#ffffff" stroke-width="2.5"/><text transform="translate(186.74788,123.29779) scale(0.41969,0.41969)" font-size="40" xml:space="preserve" fill-opacity="0.99216" fill="#ffffff" fill-rule="nonzero" stroke="none" stroke-width="1" stroke-linecap="butt" stroke-linejoin="miter" stroke-miterlimit="10" stroke-dasharray="" stroke-dashoffset="0" font-family="Sans Serif" font-weight="normal" text-anchor="start" style="mix-blend-mode: normal"><tspan x="0" dy="0">D</tspan></text><g><path d="M146.50616,101.09595v-24.03653h27.16509v24.03653z" fill="none" stroke="#ffffff" stroke-width="2.5"/><text transform="translate(152.19019,93.91977) scale(0.41969,0.41969)" font-size="40" xml:space="preserve" fill-opacity="0.99216" fill="#ffffff" fill-rule="nonzero" stroke="none" stroke-width="1" stroke-linecap="butt" stroke-linejoin="miter" stroke-miterlimit="10" stroke-dasharray="" stroke-dashoffset="0" font-family="Sans Serif" font-weight="normal" text-anchor="start" style="mix-blend-mode: normal"><tspan x="0" dy="0">W</tspan></text></g></g><text transform="translate(106.08425,334.40332) scale(0.58947,0.94589)" font-size="40" xml:space="preserve" fill="#ffffff" fill-rule="nonzero" stroke="none" stroke-width="1" stroke-linecap="butt" stroke-linejoin="miter" stroke-miterlimit="10" stroke-dasharray="" stroke-dashoffset="0" font-family="Sans Serif" font-weight="normal" text-anchor="start" style="mix-blend-mode: normal"><tspan x="0" dy="0">PRESS  SPACE  TO START</tspan></text></g></g></svg>