<svg version="1.1" xmlns="http://www.w3.org/2000/svg" xmlns:xlink="http://www.w3.org/1999/xlink" width="36.37499" height="30.75" viewBox="0,0,36.37499,30.75"><g transform="translate(-221.81251,-162.25)"><g data-paper-data="{&quot;isPaintingLayer&quot;:true}" fill-rule="nonzero" stroke="#000000" stroke-width="0" stroke-linecap="round" stroke-linejoin="miter" stroke-miterlimit="10" stroke-dasharray="" stroke-dashoffset="0" style="mix-blend-mode: normal"><path d="M235.81688,177.70226v-15.45226l3.6375,12.9799l4.54687,-6.48995l-1.09125,5.56281l15.2775,-4.94472l-11.09437,8.03518l6.5475,-0.15452l-4.54688,2.31784l5.27438,3.3995l-7.45687,-0.30905l3.81938,9.73492l-7.63875,-8.49874l0.36375,6.02638l-3.27375,-4.01759l-6.36563,7.10804l1.09125,-7.57161l-2.54625,1.08166l1.63687,-2.78141l-12.18562,-1.54523l10.73063,-2.16332l-4.00125,-2.78141l5.82,1.69975l-1.63687,-2.78141z" fill="#ff0000"/><path d="M238.18025,179.46568l1.14075,-3.36361l0.8935,2.07367l6.10276,-3.78923l-2.61546,4.99857l4.13936,1.87867l-3.655,0.45936l2.71234,4.19235l-6.68398,-2.983l-1.64678,4.27297l-1.2593,-3.78923l-4.66128,0.63374l2.62703,-2.24617l-2.90609,-3.78923l4.35912,1.7737l-3.09059,-5.07703z" fill="#ffb900"/></g></g></svg>