<svg version="1.1" xmlns="http://www.w3.org/2000/svg" xmlns:xlink="http://www.w3.org/1999/xlink" width="21.61484" height="10.78575" viewBox="0,0,21.61484,10.78575"><g transform="translate(-243.1323,-178.35713)"><g data-paper-data="{&quot;isPaintingLayer&quot;:true}" fill="#ff6666" fill-rule="nonzero" stroke="#000000" stroke-width="0.5" stroke-linecap="butt" stroke-linejoin="miter" stroke-miterlimit="10" stroke-dasharray="" stroke-dashoffset="0" style="mix-blend-mode: normal"><g><path d="M264.38135,183.79238c0,0 -3.58552,3.13559 -8.00847,3.13559c-2.46034,0 -7.91027,-1.11799 -7.91027,-1.11799c0,0 -0.0982,-1.24917 -0.0982,-2.01761c0,-0.65007 0.01446,-2.17841 0.01446,-2.17841c0,0 5.23138,-0.95718 7.99402,-0.95718c4.42296,0 8.00847,3.13559 8.00847,3.13559z"/><path d="M245.65254,181.58898l-2.0339,-2.45763l4.40678,-0.50847l2.11864,3.13559z"/><path d="M250.22881,185.74153l-2.11864,3.13559l-4.40678,-0.50847l2.0339,-2.45763z" data-paper-data="{&quot;index&quot;:null}"/><path d="M243.61864,183.96187v-0.76271h6.27119v0.76271z"/></g></g></g></svg>