<svg version="1.1" xmlns="http://www.w3.org/2000/svg" xmlns:xlink="http://www.w3.org/1999/xlink" width="64.27448" height="63.6976" viewBox="0,0,64.27448,63.6976"><g transform="translate(-207.59394,-149.33418)"><g data-paper-data="{&quot;isPaintingLayer&quot;:true}" fill-rule="nonzero" stroke="#50569a" stroke-linejoin="miter" stroke-miterlimit="10" stroke-dasharray="" stroke-dashoffset="0" style="mix-blend-mode: normal"><path d="M259.94872,180c0,11.38462 -8.93135,20.61368 -19.94872,20.61368c-11.01737,0 -19.94872,-9.22906 -19.94872,-20.61368c0,-11.38462 8.93135,-20.61368 19.94872,-20.61368c11.01737,0 19.94872,9.22906 19.94872,20.61368z" fill="none" stroke-width="5.5" stroke-linecap="butt"/><path d="M245.53359,154.43097c-1.10537,3.73433 2.62314,6.19706 2.62314,6.19706l-12.86698,-1.02102c0,0 3.84065,-5.387 8.50115,-8.61489c4.6605,-3.2279 8.29005,0.20129 8.97182,0.79921c0.30908,0.27106 -6.4811,0.11255 -7.22913,2.63966z" fill="#50569a" stroke-width="0.5" stroke-linecap="round"/><path d="M260.8592,163.16034c-3.03798,2.43675 -1.38025,6.5863 -1.38025,6.5863l-9.98611,-8.17798c0,0 6.22733,-2.23398 11.8965,-2.22691c5.66917,0.00707 6.69434,4.89398 6.91327,5.77398c0.09926,0.39894 -5.38755,-3.60438 -7.44342,-1.95538z" fill="#50569a" stroke-width="0.5" stroke-linecap="round"/><path d="M266.01221,179.87498c-3.89095,0.16607 -5.01069,4.49193 -5.01069,4.49193l-3.20904,-12.50214c0,0 6.3417,1.885 10.90711,5.24604c4.56542,3.36104 2.49939,7.90686 2.15503,8.74575c-0.15611,0.38031 -2.20932,-6.09394 -4.84242,-5.98156z" fill="#50569a" stroke-width="0.5" stroke-linecap="round"/><path d="M259.89663,197.19813c-3.05743,-2.41229 -6.728,0.136 -6.728,0.136l5.72322,-11.5692c0,0 3.57698,5.56556 4.84479,11.09116c1.26781,5.5256 -3.26346,7.62333 -4.0717,8.03452c-0.36641,0.18642 2.30071,-6.06003 0.23167,-7.69249z" fill="#50569a" stroke-width="0.5" stroke-linecap="round"/><path d="M243.90256,206.62304c-0.94086,-3.77913 -5.40327,-4.01113 -5.40327,-4.01113l11.60781,-5.6445c0,0 -0.57865,6.59056 -2.95876,11.73591c-2.3801,5.14535 -7.24727,4.03018 -8.13808,3.86054c-0.40385,-0.0769 5.52899,-3.3834 4.89229,-5.94084z" fill="#50569a" stroke-width="0.5" stroke-linecap="round"/><path d="M224.30392,201.73535c2.15686,-3.24268 -0.68023,-6.6949 -0.68023,-6.6949l11.99455,4.76784c0,0 -5.25772,4.01581 -10.66254,5.72678c-5.40482,1.71098 -7.8625,-2.6356 -8.33777,-3.4079c-0.21547,-0.35012 6.22639,1.80257 7.68599,-0.39184z" fill="#50569a" stroke-width="0.5" stroke-linecap="round"/><path d="M213.81618,185.75986c3.8325,-0.69207 4.35541,-5.1298 4.35541,-5.1298l4.87446,11.95162c0,0 -6.53871,-1.00778 -11.51765,-3.71881c-4.97895,-2.71102 -3.54832,-7.49498 -3.32088,-8.37281c0.10311,-0.39797 3.01513,5.73813 5.60869,5.26979z" fill="#50569a" stroke-width="0.5" stroke-linecap="round"/><path d="M216.88867,167.64969c3.48016,1.74798 6.56313,-1.48655 6.56313,-1.48655l-3.27911,12.48395c0,0 -4.62339,-4.73231 -6.97674,-9.88994c-2.35337,-5.15764 1.66335,-8.12396 2.37235,-8.68931c0.32142,-0.25631 -1.03472,6.39895 1.3204,7.58186z" fill="#50569a" stroke-width="0.5" stroke-linecap="round"/><path d="M227.82389,156.22067c1.5097,3.58996 5.95484,3.13437 5.95484,3.13437l-10.60404,7.35908c0,0 -0.43965,-6.6013 1.12261,-12.05096c1.56226,-5.44967 6.54292,-5.09467 7.44921,-5.06375c0.41086,0.01401 -4.94425,4.19186 -3.9226,6.62128z" fill="#50569a" stroke-width="0.5" stroke-linecap="round"/></g></g></svg>