<svg version="1.1" xmlns="http://www.w3.org/2000/svg" xmlns:xlink="http://www.w3.org/1999/xlink" width="15.62222" height="12.40389" viewBox="0,0,15.62222,12.40389"><g transform="translate(-233.0559,-172.31791)"><g data-paper-data="{&quot;isPaintingLayer&quot;:true}" fill-rule="nonzero" stroke-width="0.5" stroke-linejoin="miter" stroke-miterlimit="10" stroke-dasharray="" stroke-dashoffset="0" style="mix-blend-mode: normal"><g><path d="M235.1954,183.45211c0,0 -0.56781,-0.3338 -0.9149,-0.84898c-0.3633,-0.53923 -0.50662,-1.27022 -0.50662,-1.70524c0,-0.37402 0.07276,-1.10671 0.38141,-1.59201c0.39204,-0.61642 1.04011,-0.95294 1.04011,-0.95294h11.57421l0,5.09917z" fill="#ff6363" stroke="#000000" stroke-linecap="butt"/><path d="M239.52133,179.76287l2.89336,2.81308l-6.62023,-3.09025l4.27383,1.5415l-2.2443,-2.05768l7.13983,2.25467z" fill="#fff700" stroke="#fff700" stroke-linecap="round"/><path d="M248.42812,180.88195c0,1.44199 -0.64627,2.61094 -1.44348,2.61094c-0.79721,0 -1.44348,-1.16896 -1.44348,-2.61094c0,-1.44199 0.64627,-2.61094 1.44348,-2.61094c0.79721,0 1.44348,1.16896 1.44348,2.61094z" fill="#ff6363" stroke="#000000" stroke-linecap="butt"/></g><g><path d="M237.10466,184.45294c0,0 -0.64812,0.14824 -1.27417,0.01885c-0.65528,-0.13543 -1.29669,-0.55532 -1.61808,-0.86292c-0.27633,-0.26447 -0.7662,-0.8318 -0.9065,-1.38385c-0.1782,-0.70119 0.03143,-1.37773 0.03143,-1.37773l8.1842,-7.83298l3.76733,3.60566z" fill="#ff6363" stroke="#000000" stroke-linecap="butt"/><path d="M237.4379,178.91664l4.12426,0.03103l-6.96433,2.29518l4.16094,-1.80236l-3.1072,0.06385l6.7144,-3.23767z" fill="#fff700" stroke="#fff700" stroke-linecap="round"/><path d="M244.56273,173.68017c1.06536,1.01964 1.47202,2.28358 0.9083,2.82311c-0.56372,0.53952 -1.88433,0.15031 -2.94969,-0.86932c-1.06536,-1.01964 -1.47202,-2.28358 -0.9083,-2.82311c0.56372,-0.53952 1.88433,-0.15031 2.94969,0.86932z" fill="#ff6363" stroke="#000000" stroke-linecap="butt"/></g></g></g></svg>