<svg version="1.1" xmlns="http://www.w3.org/2000/svg" xmlns:xlink="http://www.w3.org/1999/xlink" width="41" height="40.375" viewBox="0,0,41,40.375"><g transform="translate(-219.5,-158.25)"><g data-paper-data="{&quot;isPaintingLayer&quot;:true}" fill-rule="nonzero" stroke="#000000" stroke-width="0" stroke-linecap="round" stroke-linejoin="miter" stroke-miterlimit="10" stroke-dasharray="" stroke-dashoffset="0" style="mix-blend-mode: normal"><path d="M234.375,171.125l-3.375,-12.875l9.125,13.875l0.75,-4.25l1.625,4.25l6.625,-10.875l-3.25,12.75l3.125,-1.5l-1.375,2.375l2,0.375l-1.75,1.75l12.625,-1.75l-8.75,4.625l3.375,3.625l-3,-0.875l5.625,10.625l-7.75,-6.5l1.125,3.75l-2.5,-2.25l0.25,2.5l-1.875,-2l3.875,9.875l-9.875,-8.875l-2.5,3.5l0.5,-3.75l-9.375,7.875l4.625,-10.25l-3.625,0.875l3.25,-3l-14.375,-2.125l10.5,-3.25l-3.5,-2.25l3.625,0.125l-3.625,-6.625l5.875,4l-1,-2.5l1.875,1l-1.25,-3.375z" fill="#ff0000"/><path d="M235.51956,177.88136l-2.92174,-9.00424l3.89565,5.03178l3.06087,-9.5339l0.97391,9.26907l4.86957,-5.29661l-2.64348,7.8125l3.06087,-1.19174l-1.11304,2.64831l11.54783,-0.13242l-11.26957,3.84004l2.64348,1.32415l-2.50435,0.13242l3.33913,10.59322l-6.53913,-8.73941l0.13913,4.10487l-2.08696,-2.78072l-2.78261,9.66631l-0.13913,-10.72564l-3.06087,2.64831l0.97391,-2.91314l-10.71304,0.79449l8.90435,-4.3697l-3.2,-0.79449l3.89565,-0.92691l-5.84348,-3.57521z" fill="#ff7b00"/><path d="M238.26411,177.25l0.25,-3.125l1.25,3.5l2.625,-2.75l-0.875,3.875h1.5l-0.75,1.375h7.5l-7,2.25l1.75,2.375l-4.125,-1.5l0.375,4.875l-2.5,-5.75l-5,4.625l3.625,-6.25l-3.625,-1.5l4,0.125l-2.875,-3.375z" fill="#ffc500"/></g></g></svg>