<svg version="1.1" xmlns="http://www.w3.org/2000/svg" xmlns:xlink="http://www.w3.org/1999/xlink" width="72.17957" height="19.46014" viewBox="0,0,72.17957,19.46014"><g transform="translate(-193.47824,-170.18292)"><g data-paper-data="{&quot;isPaintingLayer&quot;:true}" fill="#ff6666" fill-rule="nonzero" stroke="#000000" stroke-width="0.5" stroke-linecap="butt" stroke-linejoin="miter" stroke-miterlimit="10" stroke-dasharray="" stroke-dashoffset="0" style="mix-blend-mode: normal"><g><path d="M219.0452,170.83487c0,0 2.84633,3.16546 2.84633,7.07025c0,2.1721 -1.01486,6.98355 -1.01486,6.98355c0,0 -1.13394,0.0867 -1.83149,0.0867c-0.5901,0 -1.97745,-0.01277 -1.97745,-0.01277c0,0 -0.86888,-4.6185 -0.86888,-7.05749c0,-3.90479 2.84633,-7.07025 2.84633,-7.07025z"/><path d="M217.04506,187.36952l-2.23092,1.79562l-0.46156,-3.89051l2.84633,-1.87043z"/><path d="M220.81454,183.32938l2.84633,1.87043l-0.46156,3.89051l-2.23092,-1.79562z" data-paper-data="{&quot;index&quot;:null}"/><path d="M219.19905,189.16514h-0.69235v-5.5365h0.69235z"/></g><g><path d="M229.47717,170.83487c0,0 2.84634,3.16546 2.84634,7.07025c0,2.1721 -1.01486,6.98355 -1.01486,6.98355c0,0 -1.13394,0.08669 -1.83149,0.08669c-0.5901,0 -1.97745,-0.01277 -1.97745,-0.01277c0,0 -0.86889,-4.6185 -0.86889,-7.05749c0,-3.9048 2.84633,-7.07025 2.84633,-7.07025z"/><path d="M227.47703,187.36953l-2.23092,1.79562l-0.46156,-3.89051l2.84633,-1.87043z"/><path d="M231.24651,183.32938l2.84633,1.87044l-0.46156,3.89051l-2.23092,-1.79563z" data-paper-data="{&quot;index&quot;:null}"/><path d="M229.63102,189.16515h-0.69235v-5.5365h0.69235z"/></g><g><path d="M198.43733,170.83487c0,0 2.84634,3.16546 2.84634,7.07025c0,2.1721 -1.01486,6.98355 -1.01486,6.98355c0,0 -1.13394,0.08669 -1.83149,0.08669c-0.5901,0 -1.97745,-0.01277 -1.97745,-0.01277c0,0 -0.86889,-4.6185 -0.86889,-7.05749c0,-3.9048 2.84633,-7.07025 2.84633,-7.07025z"/><path d="M196.43719,187.36953l-2.23092,1.79562l-0.46156,-3.89051l2.84633,-1.87043z"/><path d="M200.20668,183.32938l2.84633,1.87044l-0.46156,3.89051l-2.23092,-1.79563z" data-paper-data="{&quot;index&quot;:null}"/><path d="M198.59119,189.16515h-0.69235v-5.5365h0.69235z"/></g><g><path d="M208.8693,170.83487c0,0 2.84633,3.16546 2.84633,7.07025c0,2.1721 -1.01486,6.98355 -1.01486,6.98355c0,0 -1.13394,0.08669 -1.83149,0.08669c-0.5901,0 -1.97745,-0.01277 -1.97745,-0.01277c0,0 -0.86888,-4.6185 -0.86888,-7.05749c0,-3.9048 2.84633,-7.07025 2.84633,-7.07025z"/><path d="M206.86916,187.36953l-2.23092,1.79562l-0.46156,-3.89051l2.84633,-1.87043z"/><path d="M210.63865,183.32938l2.84633,1.87044l-0.46156,3.89051l-2.23091,-1.79563z" data-paper-data="{&quot;index&quot;:null}"/><path d="M209.02316,189.16515h-0.69235v-5.5365h0.69235z"/></g><g><path d="M260.77567,170.83487c0,0 2.84633,3.16546 2.84633,7.07025c0,2.1721 -1.01486,6.98355 -1.01486,6.98355c0,0 -1.13394,0.08669 -1.83149,0.08669c-0.5901,0 -1.97745,-0.01277 -1.97745,-0.01277c0,0 -0.86889,-4.6185 -0.86889,-7.05749c0,-3.9048 2.84634,-7.07025 2.84634,-7.07025z"/><path d="M258.77553,187.36953l-2.23092,1.79562l-0.46156,-3.89051l2.84633,-1.87043z"/><path d="M262.54501,183.32938l2.84633,1.87044l-0.46156,3.89051l-2.23091,-1.79563z" data-paper-data="{&quot;index&quot;:null}"/><path d="M260.92952,189.16515h-0.69235v-5.5365h0.69235z"/></g><g><path d="M240.1678,170.83487c0,0 2.84634,3.16546 2.84634,7.07025c0,2.1721 -1.01486,6.98355 -1.01486,6.98355c0,0 -1.13394,0.08669 -1.83149,0.08669c-0.5901,0 -1.97745,-0.01277 -1.97745,-0.01277c0,0 -0.86888,-4.6185 -0.86888,-7.05749c0,-3.9048 2.84633,-7.07025 2.84633,-7.07025z"/><path d="M238.16766,187.36953l-2.23091,1.79562l-0.46156,-3.89051l2.84633,-1.87043z"/><path d="M241.93715,183.32938l2.84633,1.87044l-0.46156,3.89051l-2.23091,-1.79563z" data-paper-data="{&quot;index&quot;:null}"/><path d="M240.32166,189.16515h-0.69235v-5.5365h0.69235z"/></g><g><path d="M250.59977,170.83487c0,0 2.84634,3.16546 2.84634,7.07025c0,2.1721 -1.01485,6.98355 -1.01485,6.98355c0,0 -1.13394,0.08669 -1.83149,0.08669c-0.5901,0 -1.97745,-0.01277 -1.97745,-0.01277c0,0 -0.86888,-4.6185 -0.86888,-7.05749c0,-3.9048 2.84633,-7.07025 2.84633,-7.07025z"/><path d="M248.59963,187.36953l-2.23091,1.79562l-0.46156,-3.89051l2.84633,-1.87043z"/><path d="M252.36912,183.32938l2.84633,1.87044l-0.46156,3.89051l-2.23091,-1.79563z" data-paper-data="{&quot;index&quot;:null}"/><path d="M250.75363,189.16515h-0.69235v-5.5365h0.69235z"/></g></g></g></svg>