<svg version="1.1" xmlns="http://www.w3.org/2000/svg" xmlns:xlink="http://www.w3.org/1999/xlink" width="318.70296" height="265.88523" viewBox="0,0,318.70296,265.88523"><g transform="translate(-74.38038,-17.48031)"><g data-paper-data="{&quot;isPaintingLayer&quot;:true}" fill-rule="nonzero" stroke-linejoin="miter" stroke-miterlimit="10" stroke-dasharray="" stroke-dashoffset="0" style="mix-blend-mode: normal"><g><g stroke="#ffffff" stroke-width="0.5" stroke-linecap="butt"><g fill="#ffffff"><path d="M121.88694,243.70415v-18.91153h32.75508v18.91154z"/><g><path d="M136.96243,225.67428v-14.80954c0,0 8.53126,-0.46374 13.26186,3.26496c4.28995,3.38137 4.41775,11.54459 4.41775,11.54459z"/><path d="M121.91121,225.67428c0,0 0.1278,-8.16322 4.41775,-11.54459c4.7306,-3.7287 13.26186,-3.26496 13.26186,-3.26496v14.80955z" data-paper-data="{&quot;index&quot;:null}"/></g><g data-paper-data="{&quot;index&quot;:null}"><path d="M154.64204,243.25604c0,0 -0.1279,8.16321 -4.42102,11.54458c-4.7341,3.7287 -13.27169,3.26496 -13.27169,3.26496v-14.80954z"/><path d="M139.57966,243.25604v14.80954c0,0 -8.53758,0.46374 -13.27169,-3.26496c-4.29313,-3.38137 -4.42103,-11.54458 -4.42103,-11.54458z" data-paper-data="{&quot;index&quot;:null}"/></g></g><path d="M121.88694,231.95948v-2.29654h32.75508v2.29654z" fill="#50569a"/><path d="M140.66001,219.62913c0,1.33801 -0.12744,2.84726 -0.65551,3.64104c-0.41517,0.62408 -1.15768,0.68636 -1.74001,0.68636c-0.53432,0 -1.13215,-0.10731 -1.5306,-0.64151c-0.58814,-0.78852 -0.86492,-2.26115 -0.86492,-3.68587c0,-1.44555 0.07928,-2.8821 0.68213,-3.66798c0.39385,-0.51343 1.1906,-0.65942 1.71339,-0.65942c0.57181,0 1.2012,0.10103 1.61306,0.70499c0.54105,0.79341 0.78246,2.26541 0.78246,3.6224z" fill="#50569a"/><path d="M137.15938,229.66293v-4.5734h2.21019v4.5734z" fill="#50569a"/><path d="M137.15938,213.86075v-3.18602h2.21019v3.18602z" fill="#50569a"/></g><path d="M182.04044,234.09882l-18.20693,13.37232v-26.18358z" fill="#ffffff" stroke="#ffffff" stroke-width="0" stroke-linecap="round"/><path d="M112.34842,221.28756v26.18358l-18.20694,-13.37233z" data-paper-data="{&quot;index&quot;:null}" fill="#ffffff" stroke="#ffffff" stroke-width="0" stroke-linecap="round"/><path d="M137.98395,185.21245l13.37232,18.20694h-26.18358z" fill="#ffffff" stroke="#ffffff" stroke-width="0" stroke-linecap="round"/><path d="M125.17268,265.15861h26.18358l-13.37233,18.20693z" data-paper-data="{&quot;index&quot;:null}" fill="#ffffff" stroke="#ffffff" stroke-width="0" stroke-linecap="round"/><path d="M133.327,206.5389v-3.39451h9.87495v3.39451z" fill="#ffffff" stroke="none" stroke-width="0" stroke-linecap="butt"/><path d="M133.327,265.61526v-3.39452h9.87495v3.39452z" fill="#ffffff" stroke="none" stroke-width="0" stroke-linecap="butt"/><path d="M164.2002,239.31683h-3.39452v-9.87495h3.39451z" fill="#ffffff" stroke="none" stroke-width="0" stroke-linecap="butt"/><path d="M115.18395,239.31682h-3.39452v-9.87495h3.39452z" fill="#ffffff" stroke="none" stroke-width="0" stroke-linecap="butt"/></g><text transform="translate(83.93587,168.56278) scale(0.55362,0.55362)" font-size="40" xml:space="preserve" fill="#ffffff" fill-rule="nonzero" stroke="none" stroke-width="1" stroke-linecap="butt" stroke-linejoin="miter" stroke-miterlimit="10" stroke-dasharray="" stroke-dashoffset="0" font-family="Sans Serif" font-weight="normal" text-anchor="start" style="mix-blend-mode: normal"><tspan x="0" dy="0">ПОВОРОТ</tspan></text><g><path d="M320.12934,93.90552v-18.46557h32.75508v18.46558z" fill="#ffffff" stroke="#ffffff" stroke-width="0.5" stroke-linecap="butt"/><g fill="#ffffff" stroke="#ffffff" stroke-width="0.5" stroke-linecap="butt"><path d="M335.20482,75.87564v-14.80954c0,0 8.53126,-0.46374 13.26186,3.26496c4.28995,3.38137 4.41775,11.54459 4.41775,11.54459z"/><path d="M320.1536,75.87564c0,0 0.1278,-8.16322 4.41775,-11.54459c4.7306,-3.7287 13.26186,-3.26496 13.26186,-3.26496v14.80955z" data-paper-data="{&quot;index&quot;:null}"/></g><path d="M321.05824,75.49773c0,0 0.12966,-7.19774 4.15569,-10.37109c4.43957,-3.49931 12.44598,-3.0641 12.44598,-3.0641v13.89846l0.08979,5.0405l-16.64249,0.11282z" data-paper-data="{&quot;index&quot;:null}" fill="#50569a" stroke="#50569a" stroke-width="0" stroke-linecap="butt"/><g data-paper-data="{&quot;index&quot;:null}" fill="#ffffff" stroke="#ffffff" stroke-width="0.5" stroke-linecap="butt"><path d="M352.88442,93.45741c0,0 -0.1279,8.16321 -4.42102,11.54458c-4.7341,3.7287 -13.27169,3.26496 -13.27169,3.26496v-14.80954z"/><path d="M337.82208,93.45741v14.80954c0,0 -8.53758,0.46374 -13.27169,-3.26496c-4.29313,-3.38137 -4.42103,-11.54458 -4.42103,-11.54458z" data-paper-data="{&quot;index&quot;:null}"/></g><path d="M321.06573,82.16084v-2.29654h31.10898v2.29654z" fill="#50569a" stroke="#ffffff" stroke-width="0" stroke-linecap="butt"/><path d="M317.54562,70.44655c0,0 -0.00353,-1.44147 0.33013,-2.86551c0.29951,-1.27829 0.90844,-2.50484 1.40397,-3.29364c0.47569,-0.75721 1.21593,-1.91586 2.14671,-2.63141c1.11684,-0.85858 3.01349,-1.82168 3.01349,-1.82168" fill="none" stroke="#ffffff" stroke-width="1.5" stroke-linecap="round"/><path d="M313.34353,71.09525c0,0 -0.30858,-1.39348 0.23258,-3.91965c0.46833,-2.18621 1.26586,-4.24042 2.12942,-5.43883c0.88188,-1.22383 2.48281,-3.40849 4.23414,-4.40492c2.25079,-1.2806 3.90274,-1.60168 3.90274,-1.60168" fill="none" stroke="#ffffff" stroke-width="1.5" stroke-linecap="round"/></g><text transform="translate(281.67611,41.56278) scale(0.55362,0.55362)" font-size="40" xml:space="preserve" fill="#ffffff" fill-rule="nonzero" stroke="none" stroke-width="1" stroke-linecap="butt" stroke-linejoin="miter" stroke-miterlimit="10" stroke-dasharray="" stroke-dashoffset="0" font-family="Sans Serif" font-weight="normal" text-anchor="start" style="mix-blend-mode: normal"><tspan x="0" dy="0">ВЫСТРЕЛ</tspan></text><path d="M280.83333,230.75015v-28.63636h111.00001v28.63637z" fill="none" stroke="#ffffff" stroke-width="2.5" stroke-linecap="butt"/><text transform="translate(296.03334,222.43197) scale(0.5,0.5)" font-size="40" xml:space="preserve" fill-opacity="0.99216" fill="#ffffff" fill-rule="nonzero" stroke="none" stroke-width="1" stroke-linecap="butt" stroke-linejoin="miter" stroke-miterlimit="10" stroke-dasharray="" stroke-dashoffset="0" font-family="Sans Serif" font-weight="normal" text-anchor="start" style="mix-blend-mode: normal"><tspan x="0" dy="0">ПРОБЕЛ</tspan></text><text transform="translate(75.21081,41.56278) scale(0.55362,0.55362)" font-size="40" xml:space="preserve" fill="#ffffff" fill-rule="nonzero" stroke="none" stroke-width="1" stroke-linecap="butt" stroke-linejoin="miter" stroke-miterlimit="10" stroke-dasharray="" stroke-dashoffset="0" font-family="Sans Serif" font-weight="normal" text-anchor="start" style="mix-blend-mode: normal"><tspan x="0" dy="0">ДВИЖЕНИЕ</tspan></text><g stroke-linecap="butt"><path d="M122.13642,124.47018v-28.63636h32.36364v28.63637z" fill="none" stroke="#ffffff" stroke-width="2.5"/><text transform="translate(132.81821,115.92075) scale(0.5,0.5)" font-size="40" xml:space="preserve" fill-opacity="0.99216" fill="#ffffff" fill-rule="nonzero" stroke="none" stroke-width="1" stroke-linecap="butt" stroke-linejoin="miter" stroke-miterlimit="10" stroke-dasharray="" stroke-dashoffset="0" font-family="Sans Serif" font-weight="normal" text-anchor="start" style="mix-blend-mode: normal"><tspan x="0" dy="0">S</tspan></text><path d="M82.59096,124.47018v-28.63636h32.36364v28.63637z" fill="none" stroke="#ffffff" stroke-width="2.5"/><text transform="translate(92.23277,115.92075) scale(0.5,0.5)" font-size="40" xml:space="preserve" fill-opacity="0.99216" fill="#ffffff" fill-rule="nonzero" stroke="none" stroke-width="1" stroke-linecap="butt" stroke-linejoin="miter" stroke-miterlimit="10" stroke-dasharray="" stroke-dashoffset="0" font-family="Sans Serif" font-weight="normal" text-anchor="start" style="mix-blend-mode: normal"><tspan x="0" dy="0">A</tspan></text><path d="M161.22733,124.47018v-28.63636h32.36364v28.63637z" fill="none" stroke="#ffffff" stroke-width="2.5"/><text transform="translate(170.07915,115.92075) scale(0.5,0.5)" font-size="40" xml:space="preserve" fill-opacity="0.99216" fill="#ffffff" fill-rule="nonzero" stroke="none" stroke-width="1" stroke-linecap="butt" stroke-linejoin="miter" stroke-miterlimit="10" stroke-dasharray="" stroke-dashoffset="0" font-family="Sans Serif" font-weight="normal" text-anchor="start" style="mix-blend-mode: normal"><tspan x="0" dy="0">D</tspan></text><g><path d="M122.13642,89.47017v-28.63637h32.36364v28.63637z" fill="none" stroke="#ffffff" stroke-width="2.5"/><text transform="translate(128.9082,80.92069) scale(0.5,0.5)" font-size="40" xml:space="preserve" fill-opacity="0.99216" fill="#ffffff" fill-rule="nonzero" stroke="none" stroke-width="1" stroke-linecap="butt" stroke-linejoin="miter" stroke-miterlimit="10" stroke-dasharray="" stroke-dashoffset="0" font-family="Sans Serif" font-weight="normal" text-anchor="start" style="mix-blend-mode: normal"><tspan x="0" dy="0">W</tspan></text></g></g><g fill="#ffffff" stroke="none" stroke-width="1" stroke-linecap="butt" font-family="Sans Serif" font-weight="normal" font-size="40" text-anchor="start"><text transform="translate(293.28385,164.42264) scale(0.55362,0.55362)" font-size="40" xml:space="preserve" fill="#ffffff" fill-rule="nonzero" stroke="none" stroke-width="1" stroke-linecap="butt" stroke-linejoin="miter" stroke-miterlimit="10" stroke-dasharray="" stroke-dashoffset="0" font-family="Sans Serif" font-weight="normal" text-anchor="start" style="mix-blend-mode: normal"><tspan x="0" dy="0">ЗАПУСК</tspan></text><text transform="translate(293.79318,188.17934) scale(0.55362,0.55362)" font-size="40" xml:space="preserve" fill="#ffffff" fill-rule="nonzero" stroke="none" stroke-width="1" stroke-linecap="butt" stroke-linejoin="miter" stroke-miterlimit="10" stroke-dasharray="" stroke-dashoffset="0" font-family="Sans Serif" font-weight="normal" text-anchor="start" style="mix-blend-mode: normal"><tspan x="0" dy="0">РАКЕТЫ</tspan></text></g></g></g></svg>