<svg version="1.1" xmlns="http://www.w3.org/2000/svg" xmlns:xlink="http://www.w3.org/1999/xlink" width="500" height="377" viewBox="0,0,500,377"><g transform="translate(10,8.5)"><g data-paper-data="{&quot;isPaintingLayer&quot;:true}" fill-rule="nonzero" stroke-linejoin="miter" stroke-miterlimit="10" stroke-dasharray="" stroke-dashoffset="0" style="mix-blend-mode: normal"><path d="M-10,368.5v-377h500v377z" fill="#50569a" stroke="none" stroke-width="0" stroke-linecap="butt"/><text transform="translate(30.03083,335.90483) scale(0.58947,0.94589)" font-size="40" xml:space="preserve" fill="#ffffff" fill-rule="nonzero" stroke="none" stroke-width="1" stroke-linecap="butt" stroke-linejoin="miter" stroke-miterlimit="10" stroke-dasharray="" stroke-dashoffset="0" font-family="Sans Serif" font-weight="normal" text-anchor="start" style="mix-blend-mode: normal"><tspan x="0" dy="0">НАЖМИТЕ  ПРОБЕЛ  ЧТОБЫ НАЧАТЬ</tspan></text><g><g stroke="#ffffff" stroke-width="0.5" stroke-linecap="butt"><g fill="#ffffff"><path d="M143.1881,230.73335v-16.4004h28.40577v16.40041z"/><g><path d="M156.26182,215.09754v-12.84309c0,0 7.39845,-0.40216 11.50091,2.83143c3.72032,2.93238 3.83115,10.01167 3.83115,10.01167z"/><path d="M143.20914,215.09754c0,0 0.11083,-7.07928 3.83115,-10.01167c4.10246,-3.23359 11.50091,-2.83143 11.50091,-2.83143v12.8431z" data-paper-data="{&quot;index&quot;:null}"/></g><g data-paper-data="{&quot;index&quot;:null}"><path d="M171.59388,230.34474c0,0 -0.11092,7.07928 -3.83398,10.01166c-4.10549,3.23359 -11.50944,2.83143 -11.50944,2.83143v-12.84309z"/><path d="M158.53153,230.34474v12.84309c0,0 -7.40394,0.40216 -11.50944,-2.83143c-3.72308,-2.93238 -3.83399,-10.01166 -3.83399,-10.01166z" data-paper-data="{&quot;index&quot;:null}"/></g></g><path d="M143.1881,220.54817v-1.9916h28.40577v1.9916z" fill="#50569a"/><path d="M159.46842,209.85508c0,1.16035 -0.11052,2.46919 -0.56847,3.15757c-0.36004,0.54121 -1.00396,0.59522 -1.50897,0.59522c-0.46337,0 -0.98182,-0.09306 -1.32736,-0.55633c-0.51005,-0.68382 -0.75007,-1.96091 -0.75007,-3.19645c0,-1.25361 0.06875,-2.49941 0.59155,-3.18094c0.34155,-0.44526 1.03251,-0.57186 1.48588,-0.57186c0.49588,0 1.0417,0.08761 1.39887,0.61138c0.46921,0.68806 0.67856,1.9646 0.67856,3.14141z" fill="#50569a"/><path d="M156.43262,218.55656v-3.96613h1.91671v3.96613z" fill="#50569a"/><path d="M156.43262,204.85264v-2.76297h1.91671v2.76297z" fill="#50569a"/></g><path d="M195.35424,222.40344l-15.78936,11.59671v-22.70685z" fill="#ffffff" stroke="#ffffff" stroke-width="0" stroke-linecap="round"/><path d="M134.91613,211.2933v22.70685l-15.78937,-11.59671z" data-paper-data="{&quot;index&quot;:null}" fill="#ffffff" stroke="#ffffff" stroke-width="0" stroke-linecap="round"/><path d="M157.1477,180.00834l11.59671,15.78937h-22.70685z" fill="#ffffff" stroke="#ffffff" stroke-width="0" stroke-linecap="round"/><path d="M146.03755,249.33903h22.70685l-11.59671,15.78936z" data-paper-data="{&quot;index&quot;:null}" fill="#ffffff" stroke="#ffffff" stroke-width="0" stroke-linecap="round"/><path d="M153.10911,198.50301v-2.94378h8.56373v2.94378z" fill="#ffffff" stroke="none" stroke-width="0" stroke-linecap="butt"/><path d="M153.10911,249.73504v-2.94379h8.56373v2.94379z" fill="#ffffff" stroke="none" stroke-width="0" stroke-linecap="butt"/><path d="M179.88288,226.92859h-2.94379v-8.56373h2.94378z" fill="#ffffff" stroke="none" stroke-width="0" stroke-linecap="butt"/><path d="M137.37515,226.92858h-2.94379v-8.56373h2.94379z" fill="#ffffff" stroke="none" stroke-width="0" stroke-linecap="butt"/></g><text transform="translate(110.27628,165.56946) scale(0.48011,0.48011)" font-size="40" xml:space="preserve" fill="#ffffff" fill-rule="nonzero" stroke="none" stroke-width="1" stroke-linecap="butt" stroke-linejoin="miter" stroke-miterlimit="10" stroke-dasharray="" stroke-dashoffset="0" font-family="Sans Serif" font-weight="normal" text-anchor="start" style="mix-blend-mode: normal"><tspan x="0" dy="0">ПОВОРОТ</tspan></text><g><path d="M315.10731,100.82541v-16.01366h28.40577v16.01367z" fill="#ffffff" stroke="#ffffff" stroke-width="0.5" stroke-linecap="butt"/><g fill="#ffffff" stroke="#ffffff" stroke-width="0.5" stroke-linecap="butt"><path d="M328.18102,85.18959v-12.84309c0,0 7.39845,-0.40216 11.50091,2.83143c3.72032,2.93238 3.83115,10.01167 3.83115,10.01167z"/><path d="M315.12834,85.18959c0,0 0.11083,-7.07928 3.83115,-10.01167c4.10246,-3.23359 11.50091,-2.83143 11.50091,-2.83143v12.8431z" data-paper-data="{&quot;index&quot;:null}"/></g><path d="M315.91286,84.86186c0,0 0.11244,-6.242 3.60389,-8.99399c3.85007,-3.03466 10.79337,-2.65724 10.79337,-2.65724v12.05298l0.07787,4.37121l-14.43265,0.09784z" data-paper-data="{&quot;index&quot;:null}" fill="#50569a" stroke="#50569a" stroke-width="0" stroke-linecap="butt"/><g data-paper-data="{&quot;index&quot;:null}" fill="#ffffff" stroke="#ffffff" stroke-width="0.5" stroke-linecap="butt"><path d="M343.51307,100.4368c0,0 -0.11092,7.07928 -3.83398,10.01166c-4.10549,3.23359 -11.50944,2.83143 -11.50944,2.83143v-12.84309z"/><path d="M330.45075,100.4368v12.84309c0,0 -7.40394,0.40216 -11.50944,-2.83143c-3.72308,-2.93238 -3.83399,-10.01166 -3.83399,-10.01166z" data-paper-data="{&quot;index&quot;:null}"/></g><path d="M315.91936,90.64022v-1.9916h26.97824v1.9916z" fill="#50569a" stroke="#ffffff" stroke-width="0" stroke-linecap="butt"/><path d="M312.86666,80.48139c0,0 -0.00306,-1.25007 0.28629,-2.48502c0.25974,-1.10856 0.78781,-2.17224 1.21755,-2.8563c0.41253,-0.65667 1.05448,-1.66147 1.86166,-2.282c0.96854,-0.74458 2.61335,-1.57979 2.61335,-1.57979" fill="none" stroke="#ffffff" stroke-width="1.5" stroke-linecap="round"/><path d="M309.22253,81.04395c0,0 -0.26761,-1.20845 0.2017,-3.39919c0.40614,-1.89592 1.09778,-3.67736 1.84667,-4.71665c0.76478,-1.06133 2.15314,-2.9559 3.67192,-3.82002c1.95192,-1.11056 3.38452,-1.389 3.38452,-1.389" fill="none" stroke="#ffffff" stroke-width="1.5" stroke-linecap="round"/></g><text transform="translate(281.76,55.43289) scale(0.48011,0.48011)" font-size="40" xml:space="preserve" fill="#ffffff" fill-rule="nonzero" stroke="none" stroke-width="1" stroke-linecap="butt" stroke-linejoin="miter" stroke-miterlimit="10" stroke-dasharray="" stroke-dashoffset="0" font-family="Sans Serif" font-weight="normal" text-anchor="start" style="mix-blend-mode: normal"><tspan x="0" dy="0">ВЫСТРЕЛ</tspan></text><path d="M281.02913,219.49942v-24.83394h96.26111v24.83395z" fill="none" stroke="#ffffff" stroke-width="2.5" stroke-linecap="butt"/><text transform="translate(294.21084,212.28575) scale(0.43361,0.43361)" font-size="40" xml:space="preserve" fill-opacity="0.99216" fill="#ffffff" fill-rule="nonzero" stroke="none" stroke-width="1" stroke-linecap="butt" stroke-linejoin="miter" stroke-miterlimit="10" stroke-dasharray="" stroke-dashoffset="0" font-family="Sans Serif" font-weight="normal" text-anchor="start" style="mix-blend-mode: normal"><tspan x="0" dy="0">ПРОБЕЛ</tspan></text><text transform="translate(102.70976,55.43289) scale(0.48011,0.48011)" font-size="40" xml:space="preserve" fill="#ffffff" fill-rule="nonzero" stroke="none" stroke-width="1" stroke-linecap="butt" stroke-linejoin="miter" stroke-miterlimit="10" stroke-dasharray="" stroke-dashoffset="0" font-family="Sans Serif" font-weight="normal" text-anchor="start" style="mix-blend-mode: normal"><tspan x="0" dy="0">ДВИЖЕНИЕ</tspan></text><g stroke-linecap="butt"><path d="M143.40445,127.33161v-24.83394h28.0663v24.83395z" fill="none" stroke="#ffffff" stroke-width="2.5"/><text transform="translate(152.66788,119.91739) scale(0.43361,0.43361)" font-size="40" xml:space="preserve" fill-opacity="0.99216" fill="#ffffff" fill-rule="nonzero" stroke="none" stroke-width="1" stroke-linecap="butt" stroke-linejoin="miter" stroke-miterlimit="10" stroke-dasharray="" stroke-dashoffset="0" font-family="Sans Serif" font-weight="normal" text-anchor="start" style="mix-blend-mode: normal"><tspan x="0" dy="0">S</tspan></text><path d="M109.10995,127.33161v-24.83394h28.0663v24.83395z" fill="none" stroke="#ffffff" stroke-width="2.5"/><text transform="translate(117.47149,119.91739) scale(0.43361,0.43361)" font-size="40" xml:space="preserve" fill-opacity="0.99216" fill="#ffffff" fill-rule="nonzero" stroke="none" stroke-width="1" stroke-linecap="butt" stroke-linejoin="miter" stroke-miterlimit="10" stroke-dasharray="" stroke-dashoffset="0" font-family="Sans Serif" font-weight="normal" text-anchor="start" style="mix-blend-mode: normal"><tspan x="0" dy="0">A</tspan></text><path d="M177.30476,127.33161v-24.83394h28.0663v24.83395z" fill="none" stroke="#ffffff" stroke-width="2.5"/><text transform="translate(184.98121,119.91739) scale(0.43361,0.43361)" font-size="40" xml:space="preserve" fill-opacity="0.99216" fill="#ffffff" fill-rule="nonzero" stroke="none" stroke-width="1" stroke-linecap="butt" stroke-linejoin="miter" stroke-miterlimit="10" stroke-dasharray="" stroke-dashoffset="0" font-family="Sans Serif" font-weight="normal" text-anchor="start" style="mix-blend-mode: normal"><tspan x="0" dy="0">D</tspan></text><g><path d="M143.40445,96.979v-24.83395h28.0663v24.83395z" fill="none" stroke="#ffffff" stroke-width="2.5"/><text transform="translate(149.27705,89.56474) scale(0.43361,0.43361)" font-size="40" xml:space="preserve" fill-opacity="0.99216" fill="#ffffff" fill-rule="nonzero" stroke="none" stroke-width="1" stroke-linecap="butt" stroke-linejoin="miter" stroke-miterlimit="10" stroke-dasharray="" stroke-dashoffset="0" font-family="Sans Serif" font-weight="normal" text-anchor="start" style="mix-blend-mode: normal"><tspan x="0" dy="0">W</tspan></text></g></g><g fill="#ffffff" stroke="none" stroke-width="1" stroke-linecap="butt" font-family="Sans Serif" font-weight="normal" font-size="40" text-anchor="start"><text transform="translate(291.82644,161.97906) scale(0.48011,0.48011)" font-size="40" xml:space="preserve" fill="#ffffff" fill-rule="nonzero" stroke="none" stroke-width="1" stroke-linecap="butt" stroke-linejoin="miter" stroke-miterlimit="10" stroke-dasharray="" stroke-dashoffset="0" font-family="Sans Serif" font-weight="normal" text-anchor="start" style="mix-blend-mode: normal"><tspan x="0" dy="0">ЗАПУСК</tspan></text><text transform="translate(292.26814,182.58128) scale(0.48011,0.48011)" font-size="40" xml:space="preserve" fill="#ffffff" fill-rule="nonzero" stroke="none" stroke-width="1" stroke-linecap="butt" stroke-linejoin="miter" stroke-miterlimit="10" stroke-dasharray="" stroke-dashoffset="0" font-family="Sans Serif" font-weight="normal" text-anchor="start" style="mix-blend-mode: normal"><tspan x="0" dy="0">РАКЕТЫ</tspan></text></g></g></g></svg>