<svg version="1.1" xmlns="http://www.w3.org/2000/svg" xmlns:xlink="http://www.w3.org/1999/xlink" width="47.75" height="67.11044" viewBox="0,0,47.75,67.11044"><g transform="translate(-216.125,-136.78082)"><g data-paper-data="{&quot;isPaintingLayer&quot;:true}" fill-rule="nonzero" stroke-linecap="butt" stroke-linejoin="miter" stroke-miterlimit="10" stroke-dasharray="" stroke-dashoffset="0" style="mix-blend-mode: normal"><text transform="translate(229.24824,154.906) scale(0.46992,0.41667)" font-size="40" xml:space="preserve" fill="#000000" fill-rule="nonzero" stroke="none" stroke-width="1" stroke-linecap="butt" stroke-linejoin="miter" stroke-miterlimit="10" stroke-dasharray="" stroke-dashoffset="0" font-family="Sans Serif" font-weight="normal" text-anchor="start" style="mix-blend-mode: normal"><tspan x="0" dy="0">+1</tspan></text><path d="M217.625,180c0,-12.36635 10.01763,-22.39126 22.375,-22.39126c12.35737,0 22.375,10.02491 22.375,22.39126c0,12.36635 -10.01763,22.39126 -22.375,22.39126c-12.35737,0 -22.375,-10.02491 -22.375,-22.39126z" fill="#ff0000" stroke="#000000" stroke-width="3"/><path d="M224.37264,180c0,-8.63702 6.99661,-15.63872 15.62736,-15.63872c8.63075,0 15.62736,7.00169 15.62736,15.63872c0,8.63702 -6.99661,15.63872 -15.62736,15.63872c-8.63075,0 -15.62736,-7.00169 -15.62736,-15.63872z" fill="#ff0000" stroke="#000000" stroke-width="3"/><path d="M232.18632,180c0,-4.31851 3.49831,-7.81936 7.81368,-7.81936c4.31538,0 7.81368,3.50084 7.81368,7.81936c0,4.31851 -3.4983,7.81936 -7.81368,7.81936c-4.31537,0 -7.81368,-3.50084 -7.81368,-7.81936z" fill="#ff0000" stroke="#000000" stroke-width="3"/><path d="M238.30687,180c0,-0.93577 0.75804,-1.69436 1.69313,-1.69436c0.93509,0 1.69313,0.75859 1.69313,1.69436c0,0.93577 -0.75804,1.69436 -1.69313,1.69436c-0.93509,0 -1.69313,-0.75859 -1.69313,-1.69436z" fill="#000000" stroke="#000000" stroke-width="0"/></g></g></svg>