<svg version="1.1" xmlns="http://www.w3.org/2000/svg" xmlns:xlink="http://www.w3.org/1999/xlink" width="120" height="52.287" viewBox="0,0,120,52.287"><defs><linearGradient x1="181.0181" y1="176.9307" x2="301.0176" y2="176.9307" gradientUnits="userSpaceOnUse" id="color-1"><stop offset="0" stop-color="#27aae1"/><stop offset="1" stop-color="#115489"/></linearGradient><linearGradient x1="202.92801" y1="176.9307" x2="279.10812" y2="176.9307" gradientUnits="userSpaceOnUse" id="color-2"><stop offset="0" stop-color="#ffffff"/><stop offset="1" stop-color="#899898"/></linearGradient></defs><g transform="translate(-181.018,-150.787)"><g data-paper-data="{&quot;isPaintingLayer&quot;:true}" fill-rule="nonzero" stroke="none" stroke-width="1" stroke-linecap="butt" stroke-linejoin="miter" stroke-miterlimit="10" stroke-dasharray="" stroke-dashoffset="0" style="mix-blend-mode: normal"><path d="M301.018,176.93c0,14.416 -11.729,26.144 -26.144,26.144h-67.713c-14.415,0 -26.143,-11.727 -26.143,-26.144c0,-14.415 11.727,-26.143 26.143,-26.143h67.713c14.415,0 26.144,11.728 26.144,26.143z" fill="url(#color-1)"/><path d="M279.10833,176.93c0,11.952 -6.64935,21.641 -14.8526,21.641h-46.47478c-8.20325,0 -14.85329,-9.689 -14.85329,-21.641v0c0,-11.951 6.65004,-21.64 14.85329,-21.64h46.47478c8.20325,0 14.8526,9.689 14.8526,21.64z" fill="url(#color-2)"/><text transform="translate(211.4237,182.9305) scale(0.38736,0.5)" font-size="40" xml:space="preserve" fill="#000000" fill-rule="nonzero" stroke="none" stroke-width="1" stroke-linecap="butt" stroke-linejoin="miter" stroke-miterlimit="10" stroke-dasharray="" stroke-dashoffset="0" font-family="Sans Serif" font-weight="normal" text-anchor="start" style="mix-blend-mode: normal"><tspan x="0" dy="0">СРЕДНЕ</tspan></text></g></g></svg>