<svg version="1.1" xmlns="http://www.w3.org/2000/svg" xmlns:xlink="http://www.w3.org/1999/xlink" width="58.80593" height="66.00161" viewBox="0,0,58.80593,66.00161"><g transform="translate(-211.04751,-148.92892)"><g data-paper-data="{&quot;isPaintingLayer&quot;:true}" fill-rule="nonzero" stroke-linejoin="miter" stroke-miterlimit="10" stroke-dasharray="" stroke-dashoffset="0" style="mix-blend-mode: normal"><path d="M223.40045,180.67372l-5,5.29412h-7.35294l3.47826,-5.07672z" data-paper-data="{&quot;index&quot;:null}" fill="#ff0000" stroke="#000000" stroke-width="0" stroke-linecap="butt"/><path d="M256.39862,183.31959c-0.76622,18.14994 -15.12093,31.95601 -29.65894,31.34227c-3.16288,-0.13352 -3.17029,-1.99117 -3.17029,-1.99117c0,0 9.08762,-1.87083 16.46911,-9.34861c4.7625,-4.82461 8.90341,-14.08291 9.13853,-19.6522c0.25204,-5.97023 -0.50646,-14.60047 -4.83456,-20.24965c-6.7678,-8.83355 -18.34361,-13.52633 -18.34361,-13.52633c0,0 1.2374,-1.05495 3.51554,-0.95878c14.53801,0.61374 27.65044,16.23453 26.88422,34.38447z" fill="#9966ff" stroke="none" stroke-width="0" stroke-linecap="butt"/><path d="M227.46083,214.68053c0,0 -12.70223,-22.48483 -12.34502,-34.83419c0.35573,-12.29813 13.502,-30.2721 13.502,-30.2721" fill="none" stroke="#000000" stroke-width="0.5" stroke-linecap="round"/><path d="M215.12597,180h49.74807" fill="none" stroke="#000000" stroke-width="0.5" stroke-linecap="round"/><path d="M260.5926,185.6549l-0.23143,-11.3098l9.02573,5.72834z" fill="#000000" stroke="#000000" stroke-width="0.5" stroke-linecap="butt"/><path d="M214.52577,178.79392l-3.47826,-5.07673h7.35294l5,5.29412z" fill="#ff0000" stroke="#000000" stroke-width="0" stroke-linecap="butt"/></g></g></svg>