<svg version="1.1" xmlns="http://www.w3.org/2000/svg" xmlns:xlink="http://www.w3.org/1999/xlink" width="28.78321" height="84.47062" viewBox="0,0,28.78321,84.47062"><g transform="translate(-282.57441,-123.2549)"><g data-paper-data="{&quot;isPaintingLayer&quot;:true}" fill-rule="nonzero" stroke-linejoin="miter" stroke-miterlimit="10" stroke-dasharray="" stroke-dashoffset="0" style="mix-blend-mode: normal"><g stroke="#000000"><path d="M299.38068,177.75731l0.99078,-50.22423" fill="none" stroke-width="0.5" stroke-linecap="round"/><path d="M302.05364,126.99296l5.19461,-3.41045l-0.14644,7.42332l-5.44437,4.94242z" fill="#ff0000" stroke-width="0" stroke-linecap="butt"/><path d="M299.07387,135.83152l-5.24522,-5.1533l0.14644,-7.42332l5.05606,3.61267z" data-paper-data="{&quot;index&quot;:null}" fill="#ff0000" stroke-width="0" stroke-linecap="butt"/><path d="M299.38068,177.75731l0.99078,-50.22423" fill="none" stroke-width="1.5" stroke-linecap="round"/></g><g stroke="#000000"><path d="M292.9705,184.8236l-3.6333,-50.10244" fill="none" stroke-width="0.5" stroke-linecap="round"/><path d="M290.96256,134.0286l4.85888,-3.87382l0.53702,7.40532l-4.96666,5.42227z" fill="#ff0000" stroke-width="0" stroke-linecap="butt"/><path d="M288.80844,143.10378l-5.69701,-4.64897l-0.53702,-7.40532l5.36694,3.13227z" data-paper-data="{&quot;index&quot;:null}" fill="#ff0000" stroke-width="0" stroke-linecap="butt"/><path d="M292.9705,184.8236l-3.6333,-50.10244" fill="none" stroke-width="1.5" stroke-linecap="round"/></g><g stroke="#000000"><path d="M292.75855,129.42903l1.7702,50.20281" fill="none" stroke-width="0.5" stroke-linecap="round"/><path d="M294.40852,128.79731l4.99939,-3.69071l0.26165,7.42015l-5.16459,5.23409z" fill="#d80000" stroke-width="0" stroke-linecap="butt"/><path d="M291.91887,137.78623l-5.52044,-4.85733l-0.26165,-7.42015l5.24692,3.32942z" data-paper-data="{&quot;index&quot;:null}" fill="#d80000" stroke-width="0" stroke-linecap="butt"/><path d="M292.75855,129.42903l1.7702,50.20281" fill="none" stroke-width="1.5" stroke-linecap="round"/></g><g stroke="#000000"><path d="M298.21623,185.09818l5.9104,-49.88509" fill="none" stroke-width="0.5" stroke-linecap="round"/><path d="M305.85365,134.84051l5.50397,-2.8847l-0.87357,7.3732l-5.90273,4.3848z" fill="#ff0e0e" stroke-width="0" stroke-linecap="butt"/><path d="M302.02163,143.34432l-4.71468,-5.64275l0.87357,-7.3732l4.67749,4.091z" data-paper-data="{&quot;index&quot;:null}" fill="#ff0e0e" stroke-width="0" stroke-linecap="butt"/><path d="M298.21623,185.09818l5.9104,-49.88509" fill="none" stroke-width="1.5" stroke-linecap="round"/></g><g stroke="#000000"><path d="M296.94791,134.47566l-1.76463,50.20301" fill="none" stroke-width="0.5" stroke-linecap="round"/><path d="M298.63822,133.96154l5.24656,-3.33l-0.26081,7.42018l-5.51988,4.85794z" fill="#e73f3f" stroke-width="0" stroke-linecap="butt"/><path d="M295.5226,142.75312l-5.16519,-5.23352l0.26081,-7.42018l4.99979,3.69016z" data-paper-data="{&quot;index&quot;:null}" fill="#e73f3f" stroke-width="0" stroke-linecap="butt"/><path d="M296.94791,134.47566l-1.76463,50.20301" fill="none" stroke-width="1.5" stroke-linecap="round"/></g><g stroke="#ffffff" stroke-width="0" stroke-linecap="butt"><path d="M287.29021,203.20514v-56.53846c0,0 5.83781,0.86207 8.70027,0.86207c3.0259,0 8.99205,-0.86207 8.99205,-0.86207v56.53847c0,0 -6.73801,1.55172 -9.74802,1.55172c-2.88185,0 -7.9443,-1.55172 -7.9443,-1.55172z" fill="#957239"/><path d="M286.83628,147.95977v-2.58621h18.44703v2.58621z" fill="#6c3f1a"/><path d="M286.83628,205.769v-6.46552h18.44703v6.46552c0,0 -6.67076,1.95652 -9.87625,1.95652c-2.9161,0 -8.57078,-1.95652 -8.57078,-1.95652z" fill="#6c3f1a"/></g></g></g></svg>