<svg version="1.1" xmlns="http://www.w3.org/2000/svg" xmlns:xlink="http://www.w3.org/1999/xlink" width="52.15093" height="72.53194" viewBox="0,0,52.15093,72.53194"><g transform="translate(-216.6752,-143.03706)"><g data-paper-data="{&quot;isPaintingLayer&quot;:true}" fill="#f5ffa1" fill-rule="nonzero" stroke-linecap="butt" stroke-linejoin="miter" stroke-miterlimit="10" stroke-dasharray="" stroke-dashoffset="0" style="mix-blend-mode: normal"><path d="M246.50175,177.62811c0.05951,0.02274 0.12359,0.04293 0.19257,0.06018c0.0689,0.01723 0.13487,0.02956 0.19802,0.0375c-0.04454,0.1866 -0.04366,0.40914 0.03176,0.67309c0.3434,1.2019 1.54531,0.8585 1.54531,0.8585c0.8383,-0.24699 1.71669,-0.41223 2.59057,-0.40329h0.30427c0.03139,0.17275 0.05912,0.34686 0.08308,0.52224c-0.61025,0.30011 -1.06591,0.64467 -1.21525,1.08418c-0.87348,0.22169 -0.87348,1.20602 -0.87348,1.20602c0.00021,0.02005 0.00047,0.04008 0.00077,0.06009c-0.61081,-0.36033 -1.17419,-0.77794 -1.62404,-1.3078c-0.70221,-0.8271 -1.10757,-1.73961 -1.2973,-2.69923c0.02138,-0.03038 0.04262,-0.06087 0.06372,-0.09147z" stroke="#ff7373" stroke-width="1.5"/><path d="M244.95592,182.46165l-0.10629,-0.06914c-0.07465,-0.46722 -0.15304,-0.88528 -0.24719,-1.26007c0.15358,0.01655 0.32425,-0.00019 0.51061,-0.06852c0.1647,0.26112 0.34769,0.51832 0.55019,0.77114c-0.26496,0.07991 -0.54316,0.25783 -0.70264,0.63638c-0.00299,-0.00644 -0.00467,-0.00979 -0.00467,-0.00979z" stroke="#ff7373" stroke-width="1.5"/><path d="M248.68352,188.5565l-0.35205,-0.22383c-0.05461,-0.00858 -0.10932,-0.01667 -0.1641,-0.0243c-0.00557,-1.09901 -0.89755,-1.98837 -1.99757,-1.98966c-0.09201,-0.16106 -0.18588,-0.31882 -0.2816,-0.47243c0.11338,-0.00066 0.18633,-0.01282 0.18633,-0.01282c1.34611,-0.229 2.6699,-0.21987 4.02035,-0.21164c0.02793,0.07476 0.05659,0.14921 0.08596,0.22336c-0.43062,0.89245 -0.9404,1.80439 -1.49727,2.71133z" stroke="#ff7373" stroke-width="1.5"/><path d="M244.47704,184.09611c0.24212,-0.13686 0.39571,-0.30196 0.4893,-0.47393c0.01095,0.02013 0.02245,0.03965 0.03442,0.05857c-0.15605,0.13173 -0.29468,0.31566 -0.35534,0.57043c-0.05567,-0.05365 -0.11179,-0.10538 -0.16838,-0.15507z" stroke="#ff7373" stroke-width="1.5"/><path d="M242.25808,176.1284c0,0 -0.5068,0 -0.875,0.3227c-0.04215,-0.1023 -0.09749,-0.19778 -0.16389,-0.28432c0.07653,-0.09919 0.14265,-0.20681 0.19673,-0.32124c0.89505,-0.42022 1.77562,-0.91491 2.6119,-1.46248c-0.09661,0.59571 -0.15772,1.19073 -0.17305,1.78108c-0.49952,-0.09768 -1.08212,0.02249 -1.59669,-0.03574z" stroke="#ff7373" stroke-width="1.5"/><path d="M242.20909,172.43809h-0.14905c0.09428,-0.69345 0.13227,-1.37882 0.14561,-2.07739l0.00117,-0.00097c0,0 0.33046,-0.33046 0.2088,-0.73053c0.44126,0.08072 0.87354,0.1888 1.29516,0.3225c-0.05279,0.45363 0.18366,0.8477 0.18366,0.8477c0.08187,0.13039 0.15937,0.26366 0.23313,0.39943c-0.60071,0.4778 -1.24898,0.93618 -1.91848,1.36403z" stroke="#ff7373" stroke-width="1.5"/><path d="M229.43479,181.02853c0,-0.59754 0.04329,-1.1845 0.12676,-1.75763c0.63883,-0.19093 0.81916,-0.91226 0.81916,-0.91226l0.22569,-0.90276c0.08153,-0.3291 0.15321,-0.64696 0.2153,-0.95657c0.47762,-0.3387 0.95205,-0.72727 1.41197,-1.1464c0.02035,0.06504 0.04061,0.13012 0.06078,0.19525c-0.03182,0.46512 0.18378,0.94709 0.42482,1.4308c0.09084,0.32114 0.17861,0.64314 0.26274,0.9659c-0.7061,0.43992 -1.38519,0.96861 -1.86502,1.57704c-0.04709,-0.00538 -0.09498,-0.00815 -0.14351,-0.00815c-0.62742,0 -1.14687,0.46225 -1.23637,1.06477l-0.23103,1.38616c-0.04676,-0.32251 -0.07129,-0.63515 -0.07129,-0.93614z" stroke="#ff7373" stroke-width="1.5"/><path d="M236.58503,170.20018c0.2414,0.08966 0.49747,0.14914 0.76363,0.17385c-0.05998,0.41457 -0.10601,0.81965 -0.13406,1.21741c-0.30131,0.35013 -0.48344,0.80575 -0.48344,1.30392c0,0.53581 0.2107,1.02241 0.55377,1.38146c-0.10013,0.07116 -0.18322,0.15469 -0.25103,0.23828c-0.18555,-0.0236 -0.37438,-0.03928 -0.56258,-0.04824l-0.06079,-0.28916c0,0 -0.4924,-1.14893 -1.64133,-0.65653c-0.1818,0.07792 -0.32251,0.17227 -0.43057,0.27591c-0.05236,-0.16275 -0.10507,-0.32521 -0.15804,-0.48737c0.87605,-1.04925 1.59285,-2.10537 2.02245,-2.9498c0.12615,-0.05564 0.2535,-0.1089 0.38199,-0.15973z" stroke="#ff7373" stroke-width="1.5"/><path d="M233.74243,181.60362c-0.6335,-0.29326 -0.89038,-0.64509 -0.20082,-1.19013c0.07495,0.39601 0.14225,0.79278 0.20082,1.19013z" stroke="#ff7373" stroke-width="1.5"/><path d="M238.90485,178.97109c0.12705,-0.31763 0.1324,-0.5831 0.07315,-0.80117c0.07364,-0.008 0.17971,-0.025 0.29795,-0.06114c0.0858,0.45442 -0.02924,1.01077 -0.14441,1.60695c-0.12476,-0.17441 -0.24017,-0.34736 -0.33718,-0.51832c0.03998,-0.06753 0.07704,-0.14271 0.11049,-0.22633z" stroke="#ff7373" stroke-width="1.5"/><path d="M236.54607,181.50626c0.31614,-0.05341 0.60347,-0.1916 0.83779,-0.39037c0.1425,0.18505 0.26228,0.34461 0.33603,0.46381c-0.06926,0.04002 -0.13911,0.07979 -0.20941,0.11944z" stroke="#ff7373" stroke-width="1.5"/><path d="M240.50865,185.33494c0,0 0.05643,0.01881 0.14877,0.03591c-0.15179,0.1096 -0.29343,0.22041 -0.42597,0.3325c-0.13687,-0.24591 -0.26779,-0.50039 -0.39849,-0.75198z" stroke="#ff7373" stroke-width="1.5"/><path d="M238.51659,188.06671c-0.07853,-0.24904 -0.24122,-0.43438 -0.39325,-0.5616c0.01742,-0.12303 0.03246,-0.24626 0.04467,-0.36949c0.02808,0.04607 0.05613,0.09246 0.08417,0.13918l0.37111,0.55862c-0.03655,0.07717 -0.07204,0.15493 -0.10669,0.23329z" stroke="#ff7373" stroke-width="1.5"/><path d="M242.37478,182.74607l0.26593,0.64241c-0.1898,0.066 -0.35974,0.1982 -0.52041,0.36561c-0.18537,-0.57895 -0.82108,-0.79086 -0.82108,-0.79086l0.00001,0.00001l-0.00049,0.31704c-0.13823,-0.23039 -0.27646,-0.46077 -0.4147,-0.69116c0.46672,-0.29279 0.92676,-0.59405 1.37546,-0.90689c0.04597,0.29163 0.06551,0.64566 0.11526,1.06384z" stroke="#ff7373" stroke-width="1.5"/><path d="M233.1662,189.33609c0.39522,-0.74819 0.56836,-1.60751 0.60354,-2.49914c0.02551,0.17894 0.05628,0.35847 0.09023,0.536c-0.01651,0.12998 -0.0345,0.25993 -0.05401,0.38984c-0.08966,0.59717 -0.28733,1.19522 -0.55391,1.78779c-0.02895,-0.07143 -0.05757,-0.14293 -0.08585,-0.21449z" stroke="#ff7373" stroke-width="1.5"/><path d="M244.17971,188.09587c-0.00428,0.03861 -0.00746,0.07755 -0.00951,0.11679c-0.11168,0.00975 -0.22994,0.02951 -0.35513,0.06081c-0.04413,0.01103 -0.08683,0.02293 -0.12814,0.03563c-0.1727,-0.05702 -0.35729,-0.08788 -0.5491,-0.08788c-0.78796,0 -1.45429,0.52077 -1.67358,1.23691c-0.26216,-0.00821 -0.52432,-0.01276 -0.78608,-0.01401c0,0 -0.00052,0 -0.00155,0.00001c0.31655,-0.85189 0.69893,-1.6007 1.34708,-1.98186c0.44797,-0.28315 1.02097,-0.42925 1.3439,-0.84945c0.09073,-0.11807 0.01232,-0.43598 -0.05258,-0.63704c0.27283,0.7153 0.56387,1.42006 0.86468,2.1201z" stroke="#ff7373" stroke-width="1.5"/><path d="M237.69192,190.17112c-0.05084,-0.01391 -0.10472,-0.02519 -0.16182,-0.03349c0.04162,-0.16042 0.08322,-0.32085 0.12446,-0.48136c0.09426,-0.02322 0.18956,-0.05967 0.28202,-0.11396c-0.07778,0.20565 -0.15833,0.41519 -0.24466,0.62882z" stroke="#ff7373" stroke-width="1.5"/><path d="" stroke="#ff7373" stroke-width="1.5"/><path d="M243.04034,193.82707c0,0 0,0.13413 0.03713,0.32812c-0.01662,0.04281 -0.03259,0.08539 -0.04792,0.12775c-0.12284,-0.13139 -0.21881,-0.20337 -0.21881,-0.20337l-0.67842,-0.37087l0.71936,-0.23979c0.07218,-0.0222 0.14157,-0.05075 0.20752,-0.08502z" stroke="#ff7373" stroke-width="1.5"/><path d="" stroke="#ff7373" stroke-width="1.5"/><path d="M238.83575,177.78094l0.00852,0.09137c-0.02697,-0.04178 -0.05606,-0.08087 -0.08643,-0.11734z" stroke="#ff7373" stroke-width="1.5"/><path d="" stroke="#ff7373" stroke-width="1.5"/><path d="" stroke="#ff7373" stroke-width="1.5"/><path d="M241.4483,198.02144c-0.02123,-0.30366 -0.08765,-0.59486 -0.19258,-0.86693c0.25018,0.08546 0.56466,0.14113 0.8958,0.07171c-0.25912,0.29682 -0.49541,0.56334 -0.70321,0.79522z" stroke="#ff7373" stroke-width="1.5"/><path d="M248.8177,171.62384c0.01046,0.81672 0.51237,1.23272 0.93445,1.43842c0.25516,0.36103 0.52296,0.71527 0.8054,1.06167c0.11816,0.14492 0.23444,0.29243 0.35064,0.44042l-0.09714,0.05074l-1.08601,-0.543c-0.78304,-0.80533 -1.39976,-1.80459 -1.98362,-2.81061c0.1828,-0.20186 0.35686,-0.40522 0.52135,-0.6095c0.17853,0.3274 0.3631,0.65158 0.55493,0.97186z" stroke="none" stroke-width="0"/><path d="M250.09074,168.41963c0.29476,0.39079 0.5485,0.84552 0.77374,1.37236c-0.01428,-0.00206 -0.02856,-0.00412 -0.04285,-0.00617c0,0 -0.08906,-0.01272 -0.22969,-0.01221c-0.23728,-0.41046 -0.4631,-0.82756 -0.68012,-1.24976c0.06007,-0.0304 0.12008,-0.06495 0.17892,-0.10422z" stroke="none" stroke-width="0"/><path d="M248.62075,155.91626c-0.78633,-0.3064 -1.8466,-0.2132 -2.37802,-0.86878c-0.38457,-0.47441 0.50318,-0.82704 1.26911,-1.15601c-0.07584,0.13011 -0.13471,0.29012 -0.16748,0.4867c-0.2055,1.23299 1.02749,1.43849 1.02749,1.43849c0.63445,0.06691 1.15418,0.36039 1.59759,0.78926c-0.17455,-0.08062 -0.35033,-0.15804 -0.52727,-0.23241c-0.2518,-0.26383 -0.53796,-0.34436 -0.79283,-0.34477z" stroke="none" stroke-width="0"/><path d="M249.71996,159.73154l-0.06979,0.00618c0.03591,-0.10738 0.13727,-0.21098 0.282,-0.30591c0.62284,0.34562 1.17253,0.72151 1.65988,1.12423c-0.36781,-0.03351 -0.75641,-0.12273 -1.12549,-0.15964c-0.05449,-0.66486 -0.7466,-0.66486 -0.7466,-0.66486z" stroke="none" stroke-width="0"/><path d="M252.69749,155.78593l0.25214,0.44124c0.10005,0.18288 0.22785,0.34841 0.37772,0.49094c-0.1443,-0.06075 -0.29326,-0.11059 -0.44584,-0.15028c-0.11454,-0.19636 -0.232,-0.3883 -0.35429,-0.57462c0.05678,-0.06897 0.1134,-0.13874 0.17026,-0.20727z" stroke="none" stroke-width="0"/><path d="M254.70537,157.2686c0.03724,0 0.07424,-0.00102 0.11098,-0.00303c-0.05829,0.17857 -0.12024,0.35702 -0.1858,0.5353c-0.03827,-0.05982 -0.07869,-0.11752 -0.12136,-0.17295c-0.13598,-0.17666 -0.28546,-0.33101 -0.44611,-0.46468c0.20159,0.06832 0.41761,0.10536 0.64229,0.10536z" stroke="none" stroke-width="0"/><path d="M248.98847,161.17798c-0.05137,0.16394 -0.07748,0.3431 -0.08927,0.52936c-0.66203,-0.51539 -1.52772,-0.91842 -2.60502,-1.18164c-0.10333,-0.21079 -0.2085,-0.42048 -0.31582,-0.6289c0.01406,-0.00518 0.02812,-0.01037 0.04218,-0.01558c0.97773,0.45784 1.92713,1.00385 2.96792,1.29675z" stroke="none" stroke-width="0"/><path d="M251.24235,162.78785c-0.04679,0.14028 -0.09015,0.27889 -0.13033,0.41449c-0.18906,-0.3984 -0.23214,-0.6607 0.13033,-0.41449z" stroke="none" stroke-width="0"/><path d="M251.7959,147.68692c0,0.00757 -0.00001,0.01513 -0.00001,0.0227c-0.00881,-0.00065 -0.01765,-0.00122 -0.0265,-0.00171c0.00883,-0.007 0.01767,-0.014 0.02651,-0.02099z" stroke="none" stroke-width="0"/><path d="" stroke="none" stroke-width="0"/><path d="M249.48896,146.26413c0.05341,-0.01162 0.10692,-0.02357 0.16052,-0.03586c-0.25516,0.21484 -0.50501,0.43481 -0.74858,0.66035c-0.00715,-0.0067 -0.0143,-0.01331 -0.02145,-0.01982z" stroke="none" stroke-width="0"/><path d="" stroke="none" stroke-width="0"/><path d="" stroke="none" stroke-width="0"/><path d="M253.67672,168.52888c0.04878,0.06754 0.10852,0.12663 0.17662,0.17466c-0.17806,0.18779 -0.35069,0.37902 -0.51493,0.57613c-0.00591,-0.01482 -0.01183,-0.02961 -0.01776,-0.04436c0.04693,-0.04982 0.08407,-0.09828 0.10653,-0.14373c0.07303,-0.14779 0.16062,-0.34265 0.24955,-0.56269z" stroke="none" stroke-width="0"/><path d="" stroke="none" stroke-width="0"/><path d="" stroke="none" stroke-width="0"/><path d="" stroke="none" stroke-width="0"/><path d="M255.74906,158.94174c0.03064,0.16204 0.06116,0.32348 0.09155,0.48421c-0.15177,-0.14792 -0.20475,-0.30757 -0.09155,-0.48421z" stroke="none" stroke-width="0"/><path d="M252.7419,143.03706c0,0 0.00155,0.00819 0.00459,0.02428c-0.00522,-0.00446 -0.01045,-0.00887 -0.0157,-0.01326z" stroke="none" stroke-width="0"/><path d="" stroke="none" stroke-width="0"/><path d="" stroke="none" stroke-width="0"/><path d="M223.74092,161.8115l0.42177,-0.03862c-0.35973,1.01765 -0.69778,2.04516 -1.02313,3.06777c-0.00177,0.00292 -0.00354,0.00583 -0.00531,0.00874c0.17407,-0.92064 0.36813,-1.94704 0.57459,-3.03895c0.02067,0.00109 0.0321,0.00109 0.0321,0.00109z" data-paper-data="{&quot;index&quot;:null}" stroke="none" stroke-width="0"/><path d="" data-paper-data="{&quot;index&quot;:null}" stroke="none" stroke-width="0"/><path d="M224.72319,156.44561c0.02647,-0.14002 0.05296,-0.28009 0.07944,-0.42015c0.09151,-0.0244 0.18302,-0.05116 0.27463,-0.08043c0.2583,0.22795 0.5182,0.4546 0.78716,0.6613c-0.05684,0.21531 -0.11328,0.43402 -0.16967,0.65628c-0.3089,-0.29914 -0.64282,-0.57428 -0.97155,-0.81699z" data-paper-data="{&quot;index&quot;:null}" stroke="none" stroke-width="0"/><path d="" data-paper-data="{&quot;index&quot;:null}" stroke="none" stroke-width="0"/><path d="" data-paper-data="{&quot;index&quot;:null}" stroke="none" stroke-width="0"/><path d="" data-paper-data="{&quot;index&quot;:null}" stroke="none" stroke-width="0"/><path d="" data-paper-data="{&quot;index&quot;:null}" stroke="none" stroke-width="0"/><path d="M232.42049,176.30306l-0.79963,-0.41772c0.20643,-0.17051 0.41102,-0.34852 0.61282,-0.53243c0.02033,0.06499 0.04058,0.13002 0.06074,0.1951c-0.01696,0.24767 0.03623,0.50011 0.12607,0.75505z" data-paper-data="{&quot;index&quot;:null}" stroke="none" stroke-width="0"/><path d="M234.03963,167.41932l-0.32297,-0.21531c0.19028,-0.39712 0.32341,-0.82582 0.39294,-1.2561l-0.06043,1.83722l-0.38011,0.19006z" data-paper-data="{&quot;index&quot;:null}" stroke="none" stroke-width="0"/><path d="M232.9645,168.40531c0.00541,0.00011 0.01085,0.00017 0.0163,0.00017c0.16157,0 0.3112,-0.05109 0.43363,-0.13799l0.08249,0.16498c-0.23013,0.11218 -0.45131,0.2303 -0.66578,0.35366c0.05668,-0.12083 0.10162,-0.24827 0.13336,-0.38083z" data-paper-data="{&quot;index&quot;:null}" stroke="none" stroke-width="0"/><path d="" data-paper-data="{&quot;index&quot;:null}" stroke="none" stroke-width="0"/><path d="M227.47695,169.81352c0.2075,0.05843 0.45105,0.08143 0.73681,0.05286c0.15836,-0.01584 0.30087,-0.04463 0.42912,-0.0839c-0.35614,0.43251 -0.25644,1.03069 -0.25644,1.03069c0.029,0.16973 0.05567,0.33511 0.07999,0.49677c-0.09951,0.28941 -0.1988,0.57824 -0.29702,0.8672c-0.05135,0.03499 -0.10317,0.06999 -0.15547,0.10499c-0.21785,0.14578 -0.44483,0.28778 -0.67917,0.42711c-0.15237,-0.20318 -0.31957,-0.35363 -0.49278,-0.46311c-0.04852,-0.67599 -0.08261,-1.39525 -0.07186,-1.92514c0.23792,-0.15626 0.47413,-0.32652 0.70682,-0.50747z" data-paper-data="{&quot;index&quot;:null}" stroke="none" stroke-width="0"/><path d="M223.88461,171.30766c0.06556,0.00421 0.13161,0.006 0.19812,0.00547c0.03666,0.03602 0.07304,0.07046 0.10915,0.10312c0.00718,0.06479 0.02587,0.16998 0.07451,0.27868c-0.00191,0.11542 -0.0021,0.23149 -0.0005,0.34824l-0.63449,-0.33145c0.03473,-0.09762 0.0694,-0.19529 0.104,-0.29299c0.05432,-0.0308 0.10442,-0.06819 0.14921,-0.11107z" data-paper-data="{&quot;index&quot;:null}" stroke="none" stroke-width="0"/><path d="" data-paper-data="{&quot;index&quot;:null}" stroke="none" stroke-width="0"/><path d="" data-paper-data="{&quot;index&quot;:null}" stroke="none" stroke-width="0"/><path d="" data-paper-data="{&quot;index&quot;:null}" stroke="none" stroke-width="0"/><path d="M223.70886,161.8104v0c-0.00001,0 -0.00001,0 -0.00002,0z" data-paper-data="{&quot;index&quot;:null}" stroke="none" stroke-width="0"/><path d="M232.79853,151.97267c-0.0087,0.00388 -0.01735,0.00783 -0.02596,0.01187c0.0018,-0.01253 0.00358,-0.02508 0.00533,-0.03764z" data-paper-data="{&quot;index&quot;:null}" stroke="none" stroke-width="0"/><path d="M232.79944,151.90295l-0.01738,0.0139c0.00123,-0.00896 0.00244,-0.01792 0.00365,-0.0269c0.00457,0.00434 0.00914,0.00868 0.01373,0.013z" data-paper-data="{&quot;index&quot;:null}" stroke="none" stroke-width="0"/><path d="" data-paper-data="{&quot;index&quot;:null}" stroke="none" stroke-width="0"/><path d="" data-paper-data="{&quot;index&quot;:null}" stroke="none" stroke-width="0"/><path d="" data-paper-data="{&quot;index&quot;:null}" stroke="none" stroke-width="0"/><path d="" data-paper-data="{&quot;index&quot;:null}" stroke="none" stroke-width="0"/><path d="M224.15263,159.46328c0.02072,-0.10956 0.04149,-0.21946 0.06233,-0.32966c0.11998,0.10899 0.20021,0.20113 0.21891,0.26359c-0.04179,0.02667 -0.08189,0.05577 -0.12009,0.08708c-0.04195,-0.00099 -0.09529,-0.00777 -0.16115,-0.02101z" data-paper-data="{&quot;index&quot;:null}" stroke="none" stroke-width="0"/><path d="M233.1662,189.33609c0.39523,-0.74821 0.56837,-1.60755 0.60354,-2.4992c0.02551,0.17895 0.05628,0.35849 0.09023,0.53603c-0.01651,0.12999 -0.03451,0.25995 -0.05401,0.38988c-0.08966,0.59717 -0.28733,1.19522 -0.55391,1.78779c-0.02895,-0.07143 -0.05757,-0.14293 -0.08585,-0.21449z" data-paper-data="{&quot;index&quot;:null}" stroke="none" stroke-width="0"/><path d="M231.31663,191.64553c0.04881,-0.16179 0.09193,-0.31928 0.12901,-0.47181c0.0028,-0.01154 0.00565,-0.0231 0.00855,-0.03469c0.12603,0.28442 0.25344,0.56672 0.38287,0.84668c-0.01848,0.02725 -0.03699,0.05447 -0.05552,0.08166c-0.14276,-0.1503 -0.29831,-0.29042 -0.4649,-0.42184z" data-paper-data="{&quot;index&quot;:null}" stroke="none" stroke-width="0"/><path d="" data-paper-data="{&quot;index&quot;:null}" stroke="none" stroke-width="0"/><path d="M224.2363,191.54134c0.8744,0.35451 1.7836,0.6373 2.54508,0.87841c0.30824,0.47169 0.5664,0.9285 0.68904,1.33689c0.02037,0.06782 0.02209,0.12645 0.00821,0.17748c-0.02611,0.04201 -0.05247,0.08408 -0.07907,0.12619c-0.22528,0.21044 -0.83878,0.23482 -1.3226,0.34375c-0.02136,-0.06282 -0.0431,-0.12215 -0.06513,-0.17772c-0.36225,-0.91356 -1.10908,-1.54778 -1.93448,-2.13357c0.08044,-0.28004 0.13565,-0.47096 0.15895,-0.55144z" data-paper-data="{&quot;index&quot;:null}" stroke="none" stroke-width="0"/><path d="M228.18875,197.54501c0.11643,-0.15776 0.23125,-0.31759 0.34423,-0.47905c0.02319,0.00775 0.04541,0.01604 0.06637,0.02506c-0.02145,0.12654 -0.02767,0.26785 -0.00186,0.41365c-0.1139,0.03096 -0.26587,0.03208 -0.40874,0.04034z" data-paper-data="{&quot;index&quot;:null}" stroke="none" stroke-width="0"/><path d="" data-paper-data="{&quot;index&quot;:null}" stroke="none" stroke-width="0"/><path d="" data-paper-data="{&quot;index&quot;:null}" stroke="none" stroke-width="0"/><path d="M226.21726,206.70801c0.15365,-0.13552 0.3017,-0.30902 0.43906,-0.52881c0.01147,-0.01835 0.02262,-0.03663 0.03345,-0.05484c-0.0038,0.27725 -0.02784,0.55664 -0.05269,0.83639c-0.13245,-0.12875 -0.27637,-0.20769 -0.41982,-0.25275z" data-paper-data="{&quot;index&quot;:null}" stroke="none" stroke-width="0"/><path d="M230.73008,209.701c0.34187,-0.15194 0.59138,-0.33942 0.7711,-0.54381l0.4927,0.83612c-0.09186,0.02318 -0.18352,0.04672 -0.27497,0.07061c-0.32085,0.08466 -0.64574,0.17046 -0.97308,0.25838c-0.13039,-0.16101 -0.26206,-0.32263 -0.39482,-0.48522c0.12115,-0.03278 0.24748,-0.07758 0.37909,-0.13607z" data-paper-data="{&quot;index&quot;:null}" stroke="none" stroke-width="0"/><path d="M227.78914,210.80781c0.0333,-0.01251 0.06634,-0.02582 0.09911,-0.03995c0.08545,0.10348 0.17059,0.20636 0.25538,0.30874c-0.19136,0.06143 -0.38214,0.12444 -0.57204,0.18921c0.07324,-0.15072 0.14568,-0.30338 0.21754,-0.458z" data-paper-data="{&quot;index&quot;:null}" stroke="none" stroke-width="0"/><path d="M235.27935,215.569c0,0 -0.5107,-0.21361 -1.34158,-0.58638c-0.27358,-0.54107 -0.57364,-1.05837 -0.89537,-1.5613c0.22093,-0.2894 0.35366,-0.64974 0.35805,-1.0409z" data-paper-data="{&quot;index&quot;:null}" stroke="none" stroke-width="0"/><path d="M223.82232,207.543c-0.15454,0.30419 -0.40411,0.60115 -0.64502,0.89877c-0.19055,-0.09485 -0.36147,-0.20851 -0.51191,-0.34112c0.14607,-0.58952 0.35638,-1.14281 0.63053,-1.65765c0.20272,0.12221 0.40413,0.24639 0.60431,0.37217c0,0 0.31662,0.19789 0.76177,0.28586z" data-paper-data="{&quot;index&quot;:null}" stroke="none" stroke-width="0"/><path d="M257.67481,201.77733c-0.3613,0.43918 -0.75678,0.85383 -1.17925,1.24698c0.25075,-0.39271 0.49657,-0.78676 0.73084,-1.18309c0.15056,-0.0178 0.3001,-0.03907 0.44841,-0.06389z" data-paper-data="{&quot;index&quot;:null}" stroke="none" stroke-width="0"/><path d="M260.01394,206.0248c0.00271,0.19223 -0.0538,0.37518 -0.15304,0.54946c-0.07627,-0.63788 -0.46203,-1.30948 -1.29934,-1.99865c-0.01965,-0.01618 -0.04127,-0.03204 -0.06474,-0.04759c0.22153,-0.21448 0.43682,-0.43462 0.64515,-0.66081c0.45688,0.67498 0.86119,1.39199 0.87196,2.15759z" data-paper-data="{&quot;index&quot;:null}" stroke="none" stroke-width="0"/><path d="M253.99853,208.90028c-0.21286,-0.21561 -0.39054,-0.43114 -0.54576,-0.66286c0.01175,-0.02848 0.02363,-0.05694 0.03562,-0.08539c0.87268,-0.50039 1.72902,-1.03204 2.54617,-1.6077c0.39088,0.0904 0.68329,0.18681 0.82207,0.3229c-1.27377,0.11821 -2.34956,0.91898 -2.85811,2.03305z" data-paper-data="{&quot;index&quot;:null}" stroke="none" stroke-width="0"/><path d="" data-paper-data="{&quot;index&quot;:null}" stroke="none" stroke-width="0"/><path d="M250.15371,209.92203c0.06907,-0.03478 0.13822,-0.06964 0.20744,-0.10461c-0.17866,0.70892 -0.32815,1.36416 -0.41122,1.95761c-0.23497,-0.10265 -0.4694,-0.20743 -0.70369,-0.31298z" data-paper-data="{&quot;index&quot;:null}" stroke="none" stroke-width="0"/><path d="M249.09601,190.80059c0.04643,-0.03714 0.09299,-0.07879 0.13955,-0.12535c0.88388,-0.88388 0,-1.76777 0,-1.76777l-0.90408,-0.5748c-0.05461,-0.00858 -0.10932,-0.01667 -0.1641,-0.0243c-0.0047,-0.92658 -0.6395,-1.70415 -1.49782,-1.92609l-0.32493,-0.59167c0.15688,-0.02314 0.31349,-0.04326 0.46993,-0.06072l4.17309,2.17998c-0.49274,1.20877 -0.94983,2.42283 -1.32528,3.68614c-0.06513,-0.04147 -0.13068,-0.08221 -0.19666,-0.12223z" data-paper-data="{&quot;index&quot;:null}" stroke="none" stroke-width="0"/><path d="M252.08915,192.21111c0.21584,-0.71595 0.4594,-1.41522 0.72072,-2.10729c0.08007,0.09539 0.16117,0.19038 0.24328,0.28497l0.50822,0.51213c0,0 0.02748,0.02748 0.07761,0.06791c-0.70459,0.7657 -1.01558,1.8256 -0.58396,3.22428c-0.11004,0.17258 -0.20837,0.34506 -0.29614,0.51925c-0.05335,-0.0852 -0.10761,-0.1691 -0.16276,-0.25173c0.16852,-0.33206 0.62416,-1.46362 -0.50697,-2.24952z" data-paper-data="{&quot;index&quot;:null}" stroke="none" stroke-width="0"/><path d="M254.22157,199.26759c0.34533,-0.36979 0.34533,-0.90001 0.34533,-0.90001c-0.00003,-0.0016 -0.00006,-0.00321 -0.00009,-0.00481c0.50498,-0.01576 1.00063,-0.04376 1.47023,-0.06603c0.0366,0.07926 0.07367,0.15848 0.11116,0.23767c-0.09728,0.13556 -0.14355,0.24353 -0.14355,0.24353c-0.09623,0.22474 -0.19784,0.44705 -0.304,0.66724c-0.49355,-0.02029 -0.99159,-0.08183 -1.47907,-0.17759z" data-paper-data="{&quot;index&quot;:null}" stroke="none" stroke-width="0"/><path d="M258.48843,195.96976c0.01394,0.02577 0.02644,0.05266 0.03757,0.0806c-0.01244,-0.0269 -0.02496,-0.05376 -0.03757,-0.0806z" data-paper-data="{&quot;index&quot;:null}" stroke="none" stroke-width="0"/><path d="M246.82625,215.56898l0.21718,-0.36856c0.10963,0.05537 0.22698,0.09769 0.35,0.1249c-0.36194,0.15782 -0.56718,0.24366 -0.56718,0.24366z" data-paper-data="{&quot;index&quot;:null}" stroke="none" stroke-width="0"/><path d="" data-paper-data="{&quot;index&quot;:null}" stroke="none" stroke-width="0"/><path d="M221.73382,180.56989c0.08189,-0.272 0.09339,0.56172 0.10665,0.84547c0.0303,0.64831 0.00383,1.29768 -0.00953,1.94689c-0.23439,0.16578 -0.46715,0.32865 -0.68159,0.47602c-0.07092,-0.39437 -0.14493,-0.78782 -0.22351,-1.17935c0.35282,-0.77562 0.63138,-1.50241 0.80798,-2.08902z" data-paper-data="{&quot;index&quot;:null}" stroke="none" stroke-width="0"/><path d="M223.35051,178.1943c0.02966,0.23794 0.05657,0.47972 0.08046,0.72383c-0.1608,-0.12306 -0.31602,-0.22952 -0.46599,-0.32047c0.12839,-0.13781 0.2565,-0.27218 0.38553,-0.40336z" data-paper-data="{&quot;index&quot;:null}" stroke="none" stroke-width="0"/><path d="M217.13671,179.93244c-0.01797,0.06817 -0.02813,0.14532 -0.02813,0.23264c0,0.34063 0.1547,0.52655 0.32358,0.62803c0.07946,0.12169 0.17721,0.2444 0.29602,0.36719c-0.15682,0.29808 -0.31769,0.59333 -0.48486,0.88441c-0.17249,-0.18735 -0.36137,-0.3671 -0.56813,-0.53849c0.0407,-1.01927 0.11915,-2.0139 0.24206,-3.01649c0.00391,-0.00883 0.0078,-0.01764 0.01167,-0.02643c0.07752,0.30721 0.1666,0.61643 0.26233,0.92529c-0.04307,0.16823 -0.06607,0.35112 -0.05454,0.54384z" data-paper-data="{&quot;index&quot;:null}" stroke="none" stroke-width="0"/><path d="M230.37002,178.39539l1.28143,0.55003c-0.19575,0.18324 -0.37598,0.3755 -0.53446,0.57646c-0.04709,-0.00538 -0.09498,-0.00815 -0.14351,-0.00815c-0.62742,0 -1.14687,0.46225 -1.23637,1.06477l-0.12654,0.75922l-0.75556,0.30082c0.10449,-0.77803 0.16817,-1.56033 0.20316,-2.33351c0.93538,0.12057 1.25294,-0.72144 1.31185,-0.90964z" data-paper-data="{&quot;index&quot;:null}" stroke="none" stroke-width="0"/><path d="M226.14983,178.58431l0.15673,0.02476c0.00135,0.25251 0.01608,0.50381 0.04421,0.7516l0.2101,-0.1306c-0.01635,0.34805 -0.0383,0.69837 -0.06774,1.04923c-0.07426,-0.33162 -0.14713,-0.66354 -0.21792,-0.99593c-0.14763,-0.72572 -0.29772,-1.45096 -0.45042,-2.17565c0.16505,0.16087 0.33979,0.29184 0.52287,0.3952c-0.35222,0.46388 -0.19784,1.08139 -0.19784,1.08139z" data-paper-data="{&quot;index&quot;:null}" stroke="none" stroke-width="0"/><path d="" data-paper-data="{&quot;index&quot;:null}" stroke="none" stroke-width="0"/><path d="" data-paper-data="{&quot;index&quot;:null}" stroke="none" stroke-width="0"/><path d="" data-paper-data="{&quot;index&quot;:null}" stroke="none" stroke-width="0"/><path d="" data-paper-data="{&quot;index&quot;:null}" stroke="none" stroke-width="0"/><path d="M219.40577,176.59259c-0.10486,0.07629 -0.19739,0.16847 -0.27407,0.27302c-0.137,-0.28571 -0.28237,-0.56658 -0.43694,-0.84205c0.47302,-0.36201 0.89196,-0.68116 1.23485,-0.94169c-0.09013,0.40517 -0.17313,0.81274 -0.25655,1.22014c-0.08863,0.09558 -0.17767,0.19242 -0.2673,0.29057z" data-paper-data="{&quot;index&quot;:null}" stroke="none" stroke-width="0"/><path d="" data-paper-data="{&quot;index&quot;:null}" stroke="none" stroke-width="0"/><path d="" data-paper-data="{&quot;index&quot;:null}" stroke="none" stroke-width="0"/><path d="" data-paper-data="{&quot;index&quot;:null}" stroke="none" stroke-width="0"/><path d="M248.54484,180.8761l1.93938,-0.83244c-0.11539,0.12931 -0.20142,0.26758 -0.25213,0.4168c-0.48242,0.12241 -0.69842,0.47743 -0.79514,0.77081z" data-paper-data="{&quot;index&quot;:null}" stroke="none" stroke-width="0"/><path d="M258.78826,181.15912c-0.2342,0.309 -0.30123,0.67488 -0.32041,0.85901c-0.32184,-0.06659 -0.63905,-0.11872 -0.94298,-0.15603c0.44517,-0.44409 0.7822,-0.9596 1.03671,-1.52416c0.07691,0.27286 0.15168,0.5472 0.22668,0.82118z" data-paper-data="{&quot;index&quot;:null}" stroke="none" stroke-width="0"/><path d="" data-paper-data="{&quot;index&quot;:null}" stroke="none" stroke-width="0"/><path d="" data-paper-data="{&quot;index&quot;:null}" stroke="none" stroke-width="0"/><path d="M268.8207,194.00752c0.00187,0.00285 0.00367,0.00569 0.00542,0.00854c-0.00034,0.00363 -0.00067,0.00725 -0.00101,0.01088c-0.00147,-0.00647 -0.00294,-0.01294 -0.00441,-0.01942z" data-paper-data="{&quot;index&quot;:null}" stroke="none" stroke-width="0"/><path d="" data-paper-data="{&quot;index&quot;:null}" stroke="none" stroke-width="0"/><path d="" data-paper-data="{&quot;index&quot;:null}" stroke="none" stroke-width="0"/><path d="" data-paper-data="{&quot;index&quot;:null}" stroke="none" stroke-width="0"/></g></g></svg>