<svg version="1.1" xmlns="http://www.w3.org/2000/svg" xmlns:xlink="http://www.w3.org/1999/xlink" width="55.17826" height="72.53193" viewBox="0,0,55.17826,72.53193"><g transform="translate(-213.64781,-143.03706)"><g data-paper-data="{&quot;isPaintingLayer&quot;:true}" fill="#f5ffa1" fill-rule="nonzero" stroke-linecap="butt" stroke-linejoin="miter" stroke-miterlimit="10" stroke-dasharray="" stroke-dashoffset="0" style="mix-blend-mode: normal"><path d="M251.55909,181.02851c0,3.19385 -2.76229,7.69832 -5.52622,11.40604c-0.0796,-0.09215 -0.18051,-0.18167 -0.30709,-0.26605c-1.04006,-0.69338 -1.73343,0.34668 -1.73343,0.34668l-0.46659,0.70243c-0.69423,1.23502 -0.89504,2.26838 -0.72205,3.25266c-0.52132,0.61129 -0.98393,1.13658 -1.35546,1.55117c-0.10891,-1.55778 -1.40713,-2.7877 -2.9926,-2.7877c-0.01504,0 -0.03006,0.00011 -0.04504,0.00033c-0.33055,-0.43104 -0.69509,-0.81056 -0.99075,-1.1845c0.24403,-0.40654 0.4742,-0.82862 0.60664,-1.33038l0.62503,-1.25007l-0.36774,-0.18387l0.13545,-0.75997c-0.25365,0.11772 -0.48499,0.23481 -0.69537,0.3516l-0.27349,-0.27349l-0.65217,0.65217l0.13291,0.13291c-0.9405,0.72209 -1.15395,1.45263 -0.96005,2.27479c-0.01042,0.0178 -0.02087,0.03557 -0.03133,0.05334c-1.70836,-2.187 -3.54471,-4.78523 -4.8292,-7.27572c0.00731,-0.19312 0.01499,-0.3882 0.02841,-0.58172c0.69508,-0.11664 1.37618,-0.21627 2.09704,-0.21397h0.17241c0,0 0.51664,0 0.69233,-0.4288c0.2012,0.11073 0.53684,0.19994 0.87249,-0.1357c0.30057,-0.30057 0.26044,-0.60113 0.16925,-0.80515c0.00651,-0.00363 0.01303,-0.00728 0.01956,-0.01093c0.13882,-0.0094 0.72052,-0.08821 0.72052,-0.74873c0,-0.75 -0.75,-0.75 -0.75,-0.75l-0.55829,0.10688c-0.21975,0.13563 -0.42685,0.39277 -0.64799,0.53924c-0.21564,-0.08012 -0.43034,-0.14748 -0.64475,-0.20404c-0.06172,-0.34598 0.06717,-0.88134 -0.20485,-1.08448c-0.44054,-0.32899 -1.08093,-0.51049 -1.60974,-0.3599c-0.60332,0.17181 -1.02559,0.6722 -1.45718,1.162c-0.10176,0.00117 -0.2041,0.00255 -0.30707,0.00395c-0.17277,-0.66986 -0.26799,-1.30803 -0.26799,-1.90102c0,-4.95063 2.97142,-9.17523 7.15025,-10.82835c0.32526,0.12081 0.67715,0.18682 1.04446,0.18682c0.32845,0 0.64457,-0.05278 0.94034,-0.15033c0.17111,0.29841 0.34373,0.58091 0.52234,0.82612l0.11375,0.45501c0.07579,0.33399 0.37449,0.58332 0.73141,0.58332c0.04399,0 0.0871,-0.00379 0.12901,-0.01105c0.01233,0.3752 0.06525,0.76634 0.33391,1.19882l0.42833,0.6425c0.13354,0.20678 0.36603,0.34365 0.63049,0.34365c0.41421,0 0.75,-0.33579 0.75,-0.75v-1.08696h-0.14905c0.09428,-0.69345 0.13227,-1.37882 0.14561,-2.07739l0.00117,-0.00097c0,0 0.33046,-0.33046 0.2088,-0.73053c5.195,0.95034 9.1436,5.69244 9.1436,11.39934z" stroke="#ff7373" stroke-width="1.5"/><path d="M246.25403,176.99559l-0.56797,-17.26642c1.13378,0.49852 2.21208,1.16495 3.4171,1.47999l0.61668,0.02239c0,0 0.75,0 0.75,-0.75c0,-0.75 -0.75,-0.75 -0.75,-0.75l-0.25288,0.02239c-0.5482,-0.12874 -1.0698,-0.33609 -1.58228,-0.57205c0.89874,0.04148 1.34811,-0.85726 1.34811,-0.85726l-0.61214,-2.40836c-0.78633,-0.3064 -1.8466,-0.2132 -2.37802,-0.86878c-0.48511,-0.59844 1.05432,-1.0031 1.81995,-1.41092h1.20788c0.73612,0 1.3484,-0.53025 1.4757,-1.22964c0.24006,-0.05155 0.47684,-0.10759 0.71286,-0.16687l-0.05387,0.16161c-0.0285,0.07926 -0.04402,0.16471 -0.04402,0.25378c0,0.41421 0.33579,0.75 0.75,0.75c0.0988,0 0.19314,-0.01911 0.27953,-0.05382l1.38831,-0.52062l-0.00212,-0.00566c0.01889,-0.00562 0.03776,-0.01137 0.05659,-0.01725c0.01825,-0.0057 0.03636,-0.01145 0.05435,-0.01726c0.23919,0.23826 0.51266,0.44213 0.81235,0.60359c0.1583,0.83723 0.31955,1.69006 0.481,2.54396c-0.16989,0.76116 -0.40786,1.52208 -0.7107,2.27938c-0.16142,0.45318 -0.23348,0.81373 -0.23442,1.10731c-1.98335,0.29647 -2.90039,2.90233 -3.30404,4.54308c0.02771,0.51083 -0.12222,1.06393 0.08312,1.53249c0.12246,0.27943 1.6527,0.90084 1.66464,1.31339c0.02272,0.78467 -1.92336,3.33496 -1.44725,3.904c0.21528,0.2573 0.52097,0.4049 0.86144,0.48715c-0.59037,0.8753 -1.19937,1.80548 -0.89684,2.72127c0.06052,0.18321 0.16665,0.32143 0.30559,0.42727z" stroke="none" stroke-width="0"/><path d="M251.79584,147.68692c0,0.00757 -0.00001,0.01513 -0.00001,0.0227c-0.00881,-0.00065 -0.01765,-0.00122 -0.0265,-0.00171c0.00883,-0.007 0.01767,-0.014 0.02651,-0.02099z" stroke="none" stroke-width="0"/><path d="M245.63302,158.11659l-0.00593,-0.18017c0.29389,0.1373 0.59131,0.26046 0.87666,0.37344c0.04661,0.09939 0.10886,0.19753 0.1905,0.29159c-0.34972,-0.17193 -0.70157,-0.33895 -1.06123,-0.48486z" stroke="none" stroke-width="0"/><path d="M249.48891,146.26413c0.05341,-0.01162 0.10692,-0.02357 0.16052,-0.03586c-0.25516,0.21484 -0.50501,0.43481 -0.74858,0.66035c-0.00715,-0.0067 -0.0143,-0.01331 -0.02145,-0.01982z" stroke="none" stroke-width="0"/><path d="" stroke="none" stroke-width="0"/><path d="" stroke="none" stroke-width="0"/><path d="M253.67663,168.52888c0.04878,0.06754 0.10852,0.12663 0.17662,0.17466c-0.33572,0.35406 -0.65213,0.72037 -0.92948,1.11522c-0.12092,0.03433 -0.24376,0.06476 -0.36877,0.0915c-0.3899,0.08338 0.69544,-0.46123 0.87208,-0.81868c0.07303,-0.14779 0.16062,-0.34265 0.24955,-0.56269z" stroke="none" stroke-width="0"/><path d="M254.41292,161.03222c-0.13925,0.13617 -0.22569,0.32613 -0.22569,0.53628c0,0.06861 0.00921,0.13508 0.02647,0.19822l0.00052,0.00209l-0.12678,-0.04226l-0.00051,0.00152c-0.21661,-0.07207 -0.41704,-0.12002 -0.60166,-0.14621c0.38824,-0.51437 0.68542,-0.65491 0.92764,-0.54964z" stroke="none" stroke-width="0"/><path d="M253.56327,163.13098l0.0448,-0.01527c-0.08525,0.14638 -0.14232,0.33641 -0.17858,0.55486c-0.30801,-0.66158 -0.4435,-1.13577 0.13379,-0.53959z" stroke="none" stroke-width="0"/><path d="" stroke="none" stroke-width="0"/><path d="M255.74899,158.94174c0.03064,0.16204 0.06116,0.32348 0.09155,0.48421c-0.15177,-0.14792 -0.20475,-0.30757 -0.09155,-0.48421z" stroke="none" stroke-width="0"/><path d="M252.74181,143.03706c0,0 0.00155,0.00819 0.00459,0.02428c-0.00522,-0.00446 -0.01045,-0.00887 -0.0157,-0.01326z" stroke="none" stroke-width="0"/><path d="M257.08435,171.33796l-0.2797,0.14611c-0.11695,-0.23274 -0.21694,-0.53203 -0.22087,-0.76135c0.03674,-0.03878 0.07331,-0.07761 0.10971,-0.11648c0.15119,0.24783 0.29929,0.50831 0.39086,0.73172z" stroke="none" stroke-width="0"/><path d="M257.62843,169.98018c0.06249,-0.02325 0.12758,-0.04571 0.19488,-0.06756c0.00643,0.03401 0.01274,0.06739 0.01892,0.10008c-0.16962,-0.00723 -0.31286,0.00434 -0.2138,-0.03252z" stroke="none" stroke-width="0"/><path d="M223.74086,161.8115l1.44137,-0.13197c0.6011,-0.43699 1.58697,-0.60001 1.80331,-1.31098c0.44628,-1.46669 -0.94941,-2.95351 -2.26245,-3.92294c0.02647,-0.14002 0.05296,-0.28009 0.07944,-0.42015c1.16337,-0.31022 2.32661,-1.00096 3.70228,-2.40806c0.60042,-0.61413 0.7755,-1.48389 0.92442,-2.36936c0.23754,0.26284 0.42865,0.51657 0.54654,0.75484l0.19947,0.92062c0,0 0.30317,1.21268 1.51585,0.90951c0.10013,-0.02503 0.18992,-0.05626 0.27041,-0.0925c0.05109,0.18662 0.13733,0.35873 0.25115,0.50875c-0.74962,1.47969 -0.90023,3.26198 -0.99161,5.21816c-0.01179,0.2524 -0.04181,0.48689 -0.0798,0.70715c-0.30683,0.6993 -0.6201,1.39579 -0.93917,2.08953l-0.81203,1.29925c-0.152,0.23457 -0.24026,0.51428 -0.24026,0.81461c0,0.82843 0.67157,1.5 1.5,1.5c0.30146,0 0.58216,-0.08893 0.81728,-0.24199c-0.05166,0.42178 0.11716,0.90538 0.60422,1.47406l0.17803,0.71212c0.07579,0.33399 0.37449,0.58332 0.73141,0.58332c0.26446,0 0.49695,-0.13688 0.63049,-0.34365l0.42833,-0.6425l-0.32297,-0.21531c0.19028,-0.39712 0.32341,-0.82582 0.39294,-1.2561l-0.3634,11.04769l-10.51177,-5.49122c0.0427,0.00755 0.08666,0.01149 0.13153,0.01149c0.25076,0 0.47279,-0.12307 0.60896,-0.3121c0.0734,0.07672 0.1457,0.14807 0.21691,0.21249c0.02022,0.18238 0.13163,0.68486 0.74552,0.68486c0.75,0 0.75,-0.75 0.75,-0.75l-0.09016,-0.2877c0.01259,-0.02858 0.02513,-0.05813 0.0376,-0.08867c0.84079,-2.05807 0.21165,-2.44916 -0.76242,-2.23521c0.65761,-0.53596 1.30294,-1.07634 1.86457,-1.46741l0.75839,-0.1896c0.33399,-0.07579 0.58332,-0.37449 0.58332,-0.73141c0,-0.32193 -0.20283,-0.59649 -0.48768,-0.70285l-1.03782,-0.41513c-0.90196,-0.58803 -1.95758,-1.0168 -2.58092,-0.28192c-0.63278,0.746 -0.30895,1.56827 -0.09493,2.32781c-0.30314,0.19641 -0.58628,0.39615 -0.8442,0.61055c-0.02611,0.00791 -0.05014,0.01798 -0.07156,0.03065c-0.1276,-0.06592 -0.25293,-0.1274 -0.37316,-0.18377c0.25236,-1.33467 0.65491,-3.46375 1.12047,-5.92604c0.02067,0.00109 0.0321,0.00109 0.0321,0.00109z" data-paper-data="{&quot;index&quot;:null}" stroke="none" stroke-width="0"/><path d="M223.70876,161.8104c0,0 0,0 0,0c-0.00001,0 -0.00001,0 -0.00002,0z" data-paper-data="{&quot;index&quot;:null}" stroke="none" stroke-width="0"/><path d="M232.39151,151.54679c0.09465,0.08599 0.19658,0.17163 0.3066,0.25736c0.03321,0.03358 0.06696,0.0665 0.10123,0.0988l-0.03457,0.02765l0.03366,0.04207c-0.08906,0.03969 -0.17354,0.0878 -0.25242,0.14333z" data-paper-data="{&quot;index&quot;:null}" stroke="none" stroke-width="0"/><path d="M225.03275,166.01186c-0.02975,-0.30329 0.33654,-0.08239 0.7421,0.11279c-0.21038,0.13105 -0.41729,0.25592 -0.6197,0.37687c-0.05728,-0.14337 -0.10389,-0.30096 -0.1224,-0.48967z" data-paper-data="{&quot;index&quot;:null}" stroke="none" stroke-width="0"/><path d="" data-paper-data="{&quot;index&quot;:null}" stroke="none" stroke-width="0"/><path d="" data-paper-data="{&quot;index&quot;:null}" stroke="none" stroke-width="0"/><path d="" data-paper-data="{&quot;index&quot;:null}" stroke="none" stroke-width="0"/><path d="M224.15253,159.46328c0.02072,-0.10956 0.04149,-0.21946 0.06233,-0.32966c0.27469,0.24952 0.34102,0.41074 -0.06233,0.32966z" data-paper-data="{&quot;index&quot;:null}" stroke="none" stroke-width="0"/><path d="M235.99674,185.3612l-8.93286,16.26585l8.21542,13.94194c0,0 -4.7574,-1.98988 -8.85504,-4.42115c0.106,-0.12093 0.1985,-0.2792 0.26716,-0.48516c0.29682,-0.89046 -0.2979,-1.33516 -0.6126,-1.50145l0.27988,-0.12874c0,0 1.11803,-0.55902 0.55902,-1.67705c-0.55902,-1.11803 -1.67705,-0.55902 -1.67705,-0.55902l-1.41839,0.74658c-0.21121,0.41574 -0.59994,0.81798 -0.90143,1.22686c-1.24352,-1.01019 -2.11765,-2.01321 -2.28787,-2.91344c-0.09541,-0.50464 0.58592,-3.32011 1.38208,-6.32602c0.15545,0 0.31091,0 0.46636,0c0,0 3.5,0 3.5,-3.5c0,-1.99135 -1.133,-2.84971 -2.10974,-3.2197c0.23195,-0.81301 0.37692,-1.31239 0.37692,-1.31239z" data-paper-data="{&quot;index&quot;:null}" stroke="none" stroke-width="0"/><path d="M253.68345,203.93184c0.06472,0.09007 0.13025,0.17952 0.19655,0.26833l0.8478,1.41622c0,0 0.64312,1.07187 1.71499,0.42875c1.07187,-0.64312 0.42875,-1.71499 0.42875,-1.71499l-0.91691,-1.52495c-0.52456,-0.69595 -1.00339,-1.43335 -1.38986,-2.21447c0,0 -0.10387,-0.20775 -0.31162,-0.39936l-8.14442,-14.83017l8.89602,4.64718c-1.59865,0.74109 -2.6743,2.14931 -1.87953,4.39673c0.22285,0.63016 1.19757,0.62829 1.68782,1.08263c0.08849,0.08201 0.17346,0.16866 0.2552,0.25953c0.5067,1.80191 1.44136,3.56534 2.3902,5.33677c0.21163,0.5486 0.44103,1.06131 0.71242,1.50269c0,0 0.12209,0.19534 0.34713,0.38508c0.63162,0.9283 1.48015,1.93922 1.49582,3.05299c0.00734,0.52121 -0.42067,0.97428 -0.95538,1.37101c-0.54188,-0.34429 -1.18485,-0.5437 -1.8744,-0.5437c-1.933,0 -3.5,1.567 -3.5,3.5c0,0.02532 0.00027,0.05057 0.0008,0.07576c-1.39474,0.40524 -2.74036,0.87471 -4.05268,1.53701c-0.14603,0.02376 -0.29876,0.04879 -0.45973,0.07558l0.00014,0.12404l-0.0239,-0.11949l-0.08997,0.01799l-0.04688,-0.15628l-0.0336,0.01008z" data-paper-data="{&quot;index&quot;:null}" stroke="none" stroke-width="0"/><path d="M258.48843,195.96976c0.01394,0.02577 0.02644,0.05266 0.03757,0.0806c-0.01244,-0.0269 -0.02496,-0.05376 -0.03757,-0.0806z" data-paper-data="{&quot;index&quot;:null}" stroke="none" stroke-width="0"/><path d="M246.82616,215.56898l0.21718,-0.36856c0.10963,0.05537 0.22698,0.09769 0.35,0.1249c-0.36194,0.15782 -0.56718,0.24366 -0.56718,0.24366z" data-paper-data="{&quot;index&quot;:null}" stroke="none" stroke-width="0"/><path d="" data-paper-data="{&quot;index&quot;:null}" stroke="none" stroke-width="0"/><path d="M233.56067,179.76497l-13.36024,5.31932c-0.00562,-0.0431 -0.01207,-0.06891 -0.01207,-0.06891c-0.1703,-0.60772 -0.50422,-1.1863 -0.93802,-1.64472l-1.27107,-0.21967c0,0 -0.75,0 -0.75,0.75c0,0.75 0.75,0.75 0.75,0.75l0.21041,-0.21967c0.26921,0.24529 0.47228,0.59069 0.54346,0.94787c0,0 0.0292,0.1168 0.111,0.2451l-3.10165,1.23491l-0.25812,1.36643c-0.70278,-0.48061 -1.30984,-0.53474 -1.83656,-0.34541c0.20662,-1.68392 0.70986,-3.31968 1.34267,-5.05863c0,0 0.13062,-0.35919 0.07867,-0.78088c0.80886,-1.49578 1.58595,-2.8695 2.01379,-3.94421l-0.01144,-0.12675l0.04253,0.00945l0.19858,-0.89363c0.00567,-0.00438 0.01134,-0.00875 0.01701,-0.01312c0.02734,0.76693 0.18843,1.74621 0.11508,2.45718c-0.17371,0.09975 -0.33621,0.28635 -0.33621,0.63545c0,0.75 0.75,0.75 0.75,0.75l0.945,-0.56809c0.23857,-1.22997 0.01483,-2.14896 0.02239,-3.44277c0,0 0,-0.48995 -0.396,-0.67785c1.4634,-1.12169 2.484,-1.88972 2.484,-1.88972z" data-paper-data="{&quot;index&quot;:null}" stroke="none" stroke-width="0"/><path d="" data-paper-data="{&quot;index&quot;:null}" stroke="none" stroke-width="0"/><path d="" data-paper-data="{&quot;index&quot;:null}" stroke="none" stroke-width="0"/><path d="" data-paper-data="{&quot;index&quot;:null}" stroke="none" stroke-width="0"/><path d="M248.5448,180.8761l8.96176,-3.84665c0.02479,0.47141 0.19,0.82936 0.19,0.82936c0.4726,1.01838 0.78017,2.1625 1.09164,3.30031c-0.2342,0.309 -0.30123,0.67488 -0.32041,0.85901c-1.23936,-0.25644 -2.41007,-0.29835 -3.01816,-0.1057c-0.54873,0.17384 -0.79752,0.71431 -0.99354,1.31722z" data-paper-data="{&quot;index&quot;:null}" stroke="none" stroke-width="0"/><path d="" data-paper-data="{&quot;index&quot;:null}" stroke="none" stroke-width="0"/><path d="" data-paper-data="{&quot;index&quot;:null}" stroke="none" stroke-width="0"/><path d="M268.82066,194.00752c0.00187,0.00285 0.00367,0.00569 0.00542,0.00854c-0.00034,0.00363 -0.00067,0.00725 -0.00101,0.01088c-0.00147,-0.00647 -0.00294,-0.01294 -0.00441,-0.01942z" data-paper-data="{&quot;index&quot;:null}" stroke="none" stroke-width="0"/><path d="" data-paper-data="{&quot;index&quot;:null}" stroke="none" stroke-width="0"/><path d="" data-paper-data="{&quot;index&quot;:null}" stroke="none" stroke-width="0"/><path d="" data-paper-data="{&quot;index&quot;:null}" stroke="none" stroke-width="0"/></g></g></svg>