<svg version="1.1" xmlns="http://www.w3.org/2000/svg" xmlns:xlink="http://www.w3.org/1999/xlink" width="66.64118" height="72.53193" viewBox="0,0,66.64118,72.53193"><g transform="translate(-207.77162,-143.03704)"><g data-paper-data="{&quot;isPaintingLayer&quot;:true}" fill="#f5ffa1" fill-rule="nonzero" stroke-linecap="butt" stroke-linejoin="miter" stroke-miterlimit="10" stroke-dasharray="" stroke-dashoffset="0" style="mix-blend-mode: normal"><path d="M251.55906,181.0285c0,3.19385 -2.76229,7.69832 -5.52622,11.40604c-0.0796,-0.09215 -0.18051,-0.18167 -0.30709,-0.26605c-1.04006,-0.69338 -1.73343,0.34668 -1.73343,0.34668l-0.46659,0.70243c-0.69423,1.23502 -0.89504,2.26838 -0.72205,3.25266c-1.3504,1.58345 -2.30684,2.58984 -2.30684,2.58984c0,0 -11.06221,-11.64013 -11.06221,-18.0316c0,-6.39147 4.95272,-11.57278 11.06221,-11.57278c6.1095,0 11.06221,5.18131 11.06221,11.57278z" stroke="#ff7373" stroke-width="2"/><path d="M246.254,176.99558l-0.56797,-17.26642c1.13378,0.49852 2.21208,1.16495 3.4171,1.47999l0.61668,0.02239c0,0 0.75,0 0.75,-0.75c0,-0.75 -0.75,-0.75 -0.75,-0.75l-0.25288,0.02239c-1.35236,-0.31759 -2.54282,-1.11357 -3.83394,-1.63734l-0.25571,-7.77349l7.3645,-7.30605c0,0 0.05661,0.29943 0.15773,0.83423c-1.58756,1.01789 -3.13037,2.14299 -4.45434,3.45337c0,0 -0.88388,0.88388 0,1.76777c0.88388,0.88388 1.76777,0 1.76777,0c0.9427,-0.95446 2.04345,-1.80006 3.18775,-2.57045c1.05334,5.57097 3.08265,16.30383 3.91758,20.7197c-0.57454,-0.16388 -1.34213,-0.11657 -1.7289,-0.11883h-0.86957c-0.41421,0 -0.75,0.33579 -0.75,0.75c0,0.20711 0.08395,0.39461 0.21967,0.53033l0.65217,0.65217l0.05322,-0.05322c0.03586,0.05851 0.07172,0.11703 0.10758,0.17554l0.95682,0.26459c-0.63231,0.95025 -1.3042,2.17421 -0.91347,2.96058z" stroke="none" stroke-width="0"/><path d="" stroke="none" stroke-width="0"/><path d="" stroke="none" stroke-width="0"/><path d="M221.99792,170.8585c0,0 0.2057,-1.08788 0.42361,-2.2404c0.21114,-1.11666 0.69885,-3.69612 1.28717,-6.8077c0.02068,0.00109 0.03212,0.00109 0.03212,0.00109l1.44137,-0.13197c0.6011,-0.43699 1.58697,-0.60001 1.80331,-1.31098c0.44628,-1.46669 -0.94941,-2.95351 -2.26245,-3.92294c0.54453,-2.87996 1.09297,-5.78062 1.53978,-8.14375c1.01697,1.13966 3.16263,2.58883 3.7129,3.70101l0.19947,0.92062c0,0 0.30317,1.21268 1.51585,0.90951c1.21268,-0.30317 0.90951,-1.51585 0.90951,-1.51585l-0.20909,-0.77036c0.09465,0.08599 0.19658,0.17163 0.3066,0.25736c0.03321,0.03358 0.06696,0.0665 0.10123,0.0988l-0.03457,0.02765l1.16926,1.46157c0.14686,0.18684 0.34582,0.33078 0.575,0.40994l-0.76293,23.19348z" data-paper-data="{&quot;index&quot;:null}" stroke="none" stroke-width="0"/><path d="" data-paper-data="{&quot;index&quot;:null}" stroke="none" stroke-width="0"/><path d="" data-paper-data="{&quot;index&quot;:null}" stroke="none" stroke-width="0"/><path d="M235.99671,185.36119l-8.93286,16.26585l8.21542,13.94194c0,0 -4.7574,-1.98988 -8.85504,-4.42115c0.106,-0.12093 0.1985,-0.2792 0.26716,-0.48516c0.29682,-0.89046 -0.2979,-1.33516 -0.6126,-1.50145l0.27988,-0.12874c0,0 1.11803,-0.55902 0.55902,-1.67705c-0.55902,-1.11803 -1.67705,-0.55902 -1.67705,-0.55902l-1.41839,0.74658c-0.21121,0.41574 -0.59994,0.81798 -0.90143,1.22686c-1.24352,-1.01019 -2.11765,-2.01321 -2.28787,-2.91344c-0.21791,-1.15252 3.61563,-14.35811 3.61563,-14.35811z" data-paper-data="{&quot;index&quot;:null}" stroke="none" stroke-width="0"/><path d="M257.85684,191.49828c0,0 3.83354,13.20559 3.61563,14.35811c-0.73635,3.89444 -14.64632,9.71258 -14.64632,9.71258l6.85729,-11.63714c0.06472,0.09007 0.13025,0.17952 0.19655,0.26833l0.8478,1.41622c0,0 0.64312,1.07187 1.71499,0.42875c1.07187,-0.64312 0.42875,-1.71499 0.42875,-1.71499l-0.91691,-1.52495c-0.52456,-0.69595 -1.00339,-1.43335 -1.38986,-2.21447c0,0 -0.10387,-0.20775 -0.31162,-0.39936l-8.14442,-14.83017z" data-paper-data="{&quot;index&quot;:null}" stroke="none" stroke-width="0"/><path d="M233.56064,179.76496l-13.36024,5.31932c-0.00562,-0.0431 -0.01207,-0.06891 -0.01207,-0.06891c-0.1703,-0.60772 -0.50422,-1.1863 -0.93802,-1.64472l-1.27107,-0.21967c0,0 -0.75,0 -0.75,0.75c0,0.75 0.75,0.75 0.75,0.75l0.21041,-0.21967c0.26921,0.24529 0.47228,0.59069 0.54346,0.94787c0,0 0.0292,0.1168 0.111,0.2451l-3.10165,1.23491l-4.04926,21.43594c0,0 -3.34464,-11.15648 -3.92158,-18.41215c0.20618,-0.0652 0.40707,-0.141 0.5965,-0.23891c3.04502,-1.57385 2.66788,-4.34108 2.20154,-7.18297c1.90419,-1.60851 4.59847,-3.72098 6.75994,-5.38866c0.02734,0.76693 0.18843,1.74621 0.11508,2.45718c-0.17371,0.09975 -0.33621,0.28635 -0.33621,0.63545c0,0.75 0.75,0.75 0.75,0.75l0.945,-0.56809c0.23857,-1.22997 0.01483,-2.14896 0.02239,-3.44277c0,0 0,-0.48995 -0.396,-0.67785c1.4634,-1.12169 2.484,-1.88972 2.484,-1.88972z" data-paper-data="{&quot;index&quot;:null}" stroke="none" stroke-width="0"/><path d="" data-paper-data="{&quot;index&quot;:null}" stroke="none" stroke-width="0"/><path d="M261.19154,175.44773c0,0 1.17571,0.88476 2.81273,2.14193c-0.0062,0.00174 -0.01241,0.00349 -0.01862,0.00522c0,0 -1.2019,0.3434 -0.8585,1.54531c0.3434,1.2019 1.54531,0.8585 1.54531,0.8585c0.58256,-0.16938 1.14254,-0.3694 1.69,-0.58453c1.31621,1.02661 2.70325,2.12386 3.92515,3.12255c-0.08334,0.13173 -0.12129,0.23293 -0.12129,0.23293c-0.5774,1.63634 -1.25687,2.44256 -0.29762,4.18587c0.34434,0.62578 1.19974,0.95443 1.36913,1.64831l1.06162,0.94014c0,0 1.11804,0.55902 1.67706,-0.55902c0.02698,-0.05397 0.05005,-0.10663 0.06953,-0.15798c0.12054,0.228 0.24197,0.45468 0.36676,0.67959c-0.06234,2.73344 -0.67045,6.31435 -1.39453,9.68402l-1.25857,-0.41952c-0.1321,-0.04749 -0.27451,-0.07337 -0.42297,-0.07337c-0.69036,0 -1.25,0.55964 -1.25,1.25c0,0.1847 0.04005,0.36003 0.11196,0.5178l0.27522,0.6422c-0.04062,0.59544 -0.12502,1.16606 -0.22232,1.7248l-0.96515,0.61418l-2.92349,-15.47635l-17.81818,-7.09423z" data-paper-data="{&quot;index&quot;:null}" stroke="none" stroke-width="0"/><path d="M272.90778,199.58238l0.07363,-0.22089c-0.01631,0.07533 -0.03267,0.15054 -0.04908,0.22563z" data-paper-data="{&quot;index&quot;:null}" stroke="none" stroke-width="0"/></g></g></svg>