<svg version="1.1" xmlns="http://www.w3.org/2000/svg" xmlns:xlink="http://www.w3.org/1999/xlink" width="66.7307" height="72.53191" viewBox="0,0,66.7307,72.53191"><g transform="translate(-207.68733,-143.03701)"><g data-paper-data="{&quot;isPaintingLayer&quot;:true}" fill="#f5ffa1" fill-rule="nonzero" stroke-linecap="butt" stroke-linejoin="miter" stroke-miterlimit="10" stroke-dasharray="" stroke-dashoffset="0" style="mix-blend-mode: normal"><path d="M251.55903,181.02845c0,6.39147 -11.06221,18.0316 -11.06221,18.0316c0,0 -11.06221,-11.64013 -11.06221,-18.0316c0,-6.39147 4.95272,-11.57278 11.06221,-11.57278c6.1095,0 11.06221,5.18131 11.06221,11.57278z" stroke="#ff7373" stroke-width="4"/><path d="M246.25398,176.99553l-0.87672,-26.65246l7.3645,-7.30605c0,0 4.1004,21.68658 4.83674,25.58102c0.21792,1.15252 0.42361,2.2404 0.42361,2.2404z" stroke="none" stroke-width="0"/><path d="M221.9979,170.85845c0,0 0.2057,-1.08788 0.42361,-2.2404c0.73635,-3.89444 4.83674,-25.58102 4.83674,-25.58102l7.3645,7.30605l-0.87672,26.65246z" data-paper-data="{&quot;index&quot;:null}" stroke="none" stroke-width="0"/><path d="M235.99668,185.36114l-8.93286,16.26585l8.21542,13.94194c0,0 -13.90997,-5.81814 -14.64632,-9.71258c-0.21791,-1.15252 3.61563,-14.35811 3.61563,-14.35811z" data-paper-data="{&quot;index&quot;:null}" stroke="none" stroke-width="0"/><path d="M257.85681,191.49823c0,0 3.83354,13.20559 3.61563,14.35811c-0.73635,3.89444 -14.64632,9.71258 -14.64632,9.71258l8.21542,-13.94194l-8.93286,-16.26585z" data-paper-data="{&quot;index&quot;:null}" stroke="none" stroke-width="0"/><path d="M233.56061,179.76491l-17.81818,7.09423l-4.04926,21.43594c0,0 -5.72179,-19.08578 -3.48868,-23.5658c0.66087,-1.32581 12.70935,-10.39271 12.70935,-10.39271z" data-paper-data="{&quot;index&quot;:null}" stroke="none" stroke-width="0"/><path d="M261.19152,175.44768c0,0 12.04849,9.0669 12.70935,10.39271c2.23311,4.48002 -3.48868,23.5658 -3.48868,23.5658l-4.04926,-21.43593l-17.81818,-7.09423z" data-paper-data="{&quot;index&quot;:null}" stroke="none" stroke-width="0"/></g></g></svg>