<svg version="1.1" xmlns="http://www.w3.org/2000/svg" xmlns:xlink="http://www.w3.org/1999/xlink" width="40.85742" height="72.53192" viewBox="0,0,40.85742,72.53192"><g transform="translate(-220.62397,-143.03698)"><g data-paper-data="{&quot;isPaintingLayer&quot;:true}" fill="#ffa1a1" fill-rule="nonzero" stroke-linecap="butt" stroke-linejoin="miter" stroke-miterlimit="10" stroke-dasharray="" stroke-dashoffset="0" style="mix-blend-mode: normal"><path d="M251.55903,181.02844c0,6.39147 -11.06221,18.0316 -11.06221,18.0316c0,0 -11.06221,-11.64013 -11.06221,-18.0316c0,-6.39147 4.95272,-11.57278 11.06221,-11.57278c6.1095,0 11.06221,5.18131 11.06221,11.57278z" stroke="#a50000" stroke-width="4"/><path d="M246.25398,176.9955l-0.87672,-26.65246l7.3645,-7.30605c0,0 4.1004,21.68658 4.83674,25.58102c0.21792,1.15252 0.42361,2.2404 0.42361,2.2404z" stroke="none" stroke-width="0"/><path d="M221.9979,170.85842c0,0 0.2057,-1.08788 0.42361,-2.2404c0.73635,-3.89444 4.83674,-25.58102 4.83674,-25.58102l7.3645,7.30605l-0.87672,26.65246z" data-paper-data="{&quot;index&quot;:null}" stroke="none" stroke-width="0"/><path d="M235.99668,185.36111l-8.93286,16.26585l8.21542,13.94194c0,0 -13.90997,-5.81814 -14.64632,-9.71258c-0.21791,-1.15252 3.61563,-14.35811 3.61563,-14.35811z" data-paper-data="{&quot;index&quot;:null}" stroke="none" stroke-width="0"/><path d="M257.85681,191.4982c0,0 3.83354,13.20559 3.61563,14.35811c-0.73635,3.89444 -14.64632,9.71258 -14.64632,9.71258l8.21542,-13.94194l-8.93286,-16.26585z" data-paper-data="{&quot;index&quot;:null}" stroke="none" stroke-width="0"/></g></g></svg>