<svg version="1.1" xmlns="http://www.w3.org/2000/svg" xmlns:xlink="http://www.w3.org/1999/xlink" width="66.64644" height="72.53191" viewBox="0,0,66.64644,72.53191"><g transform="translate(-207.77159,-143.03705)"><g data-paper-data="{&quot;isPaintingLayer&quot;:true}" fill="#f5ffa1" fill-rule="nonzero" stroke-linecap="butt" stroke-linejoin="miter" stroke-miterlimit="10" stroke-dasharray="" stroke-dashoffset="0" style="mix-blend-mode: normal"><path d="M251.55903,181.02849c0,6.39147 -11.06221,18.0316 -11.06221,18.0316c0,0 -11.06221,-11.64013 -11.06221,-18.0316c0,-6.39147 4.95272,-11.57278 11.06221,-11.57278c6.1095,0 11.06221,5.18131 11.06221,11.57278z" stroke="#ff7373" stroke-width="3"/><path d="M246.25398,176.99557l-0.87672,-26.65246l7.3645,-7.30605c0,0 0.05661,0.29943 0.15773,0.83423c-1.58756,1.01789 -3.13037,2.14299 -4.45434,3.45337c0,0 -0.88388,0.88388 0,1.76777c0.88388,0.88388 1.76777,0 1.76777,0c0.9427,-0.95446 2.04345,-1.80006 3.18775,-2.57045c1.19023,6.29499 3.62661,19.18077 4.17783,22.09611c0.21792,1.15252 0.42361,2.2404 0.42361,2.2404z" stroke="none" stroke-width="0"/><path d="M221.9979,170.85848c0,0 0.2057,-1.08788 0.42361,-2.2404c0.21114,-1.11666 0.69885,-3.69612 1.28717,-6.8077c0.02068,0.00109 0.03212,0.00109 0.03212,0.00109l1.44137,-0.13197c0.6011,-0.43699 1.58697,-0.60001 1.80331,-1.31098c0.44628,-1.46669 -0.94941,-2.95351 -2.26245,-3.92294c1.25718,-6.6491 2.53522,-13.40853 2.53522,-13.40853l7.3645,7.30605l-0.87672,26.65246z" data-paper-data="{&quot;index&quot;:null}" stroke="none" stroke-width="0"/><path d="M224.15246,159.46325c0.02072,-0.10956 0.04149,-0.21946 0.06233,-0.32966c0.27469,0.24952 0.34102,0.41074 -0.06233,0.32966z" data-paper-data="{&quot;index&quot;:null}" stroke="none" stroke-width="0"/><path d="M235.99668,185.36117l-8.93286,16.26585l8.21542,13.94194c0,0 -4.7574,-1.98988 -8.85504,-4.42115c0.106,-0.12093 0.1985,-0.2792 0.26716,-0.48516c0.29682,-0.89046 -0.2979,-1.33516 -0.6126,-1.50145l0.27988,-0.12874c0,0 1.11803,-0.55902 0.55902,-1.67705c-0.55902,-1.11803 -1.67705,-0.55902 -1.67705,-0.55902l-1.41839,0.74658c-0.21121,0.41574 -0.59994,0.81798 -0.90143,1.22686c-1.24352,-1.01019 -2.11765,-2.01321 -2.28787,-2.91344c-0.21791,-1.15252 3.61563,-14.35811 3.61563,-14.35811z" data-paper-data="{&quot;index&quot;:null}" stroke="none" stroke-width="0"/><path d="M257.85681,191.49826c0,0 3.83354,13.20559 3.61563,14.35811c-0.73635,3.89444 -14.64632,9.71258 -14.64632,9.71258l6.85729,-11.63714c0.06472,0.09007 0.13025,0.17952 0.19655,0.26833l0.8478,1.41622c0,0 0.64312,1.07187 1.71499,0.42875c1.07187,-0.64312 0.42875,-1.71499 0.42875,-1.71499l-0.91691,-1.52495c-0.52456,-0.69595 -1.00339,-1.43335 -1.38986,-2.21447c0,0 -0.10387,-0.20775 -0.31162,-0.39936l-8.14442,-14.83017z" data-paper-data="{&quot;index&quot;:null}" stroke="none" stroke-width="0"/><path d="M233.56061,179.76492l-17.81818,7.09423l-4.04926,21.43594c0,0 -3.34464,-11.15648 -3.92158,-18.41215c0.20618,-0.0652 0.40707,-0.141 0.5965,-0.23891c3.04502,-1.57385 2.66788,-4.34108 2.20154,-7.18297c3.68926,-3.11639 10.34421,-8.12447 10.34421,-8.12447z" data-paper-data="{&quot;index&quot;:null}" stroke="none" stroke-width="0"/><path d="M208.84141,185.92674c0.05696,-0.11427 0.16551,-0.26361 0.32009,-0.44403c0.20439,1.3709 0.27995,2.83517 -0.22702,3.63655c-0.21854,0.34547 -0.5342,0.63102 -0.91448,0.87631c0.07848,-1.69289 0.33473,-3.09241 0.82142,-4.0688z" data-paper-data="{&quot;index&quot;:null}" stroke="none" stroke-width="0"/><path d="M261.19152,175.44772c0,0 1.17571,0.88476 2.81273,2.14193c-0.0062,0.00174 -0.01241,0.00349 -0.01862,0.00522c0,0 -1.2019,0.3434 -0.8585,1.54531c0.3434,1.2019 1.54531,0.8585 1.54531,0.8585c0.58256,-0.16938 1.14254,-0.3694 1.69,-0.58453c3.35694,2.61831 7.17449,5.69615 7.53843,6.42628c2.23311,4.48002 -3.48868,23.5658 -3.48868,23.5658l-4.04926,-21.43593l-17.81818,-7.09423z" data-paper-data="{&quot;index&quot;:null}" stroke="none" stroke-width="0"/></g></g></svg>