<svg version="1.1" xmlns="http://www.w3.org/2000/svg" xmlns:xlink="http://www.w3.org/1999/xlink" width="55.17826" height="72.53194" viewBox="0,0,55.17826,72.53194"><g transform="translate(-213.64786,-143.03706)"><g data-paper-data="{&quot;isPaintingLayer&quot;:true}" fill="#f5ffa1" fill-rule="nonzero" stroke-linecap="butt" stroke-linejoin="miter" stroke-miterlimit="10" stroke-dasharray="" stroke-dashoffset="0" style="mix-blend-mode: normal"><path d="M248.68352,188.5565l-0.35205,-0.22383c-0.05461,-0.00858 -0.10932,-0.01667 -0.1641,-0.0243c-0.00557,-1.09981 -0.89885,-1.98966 -1.99997,-1.98966c-1.069,0 -1.94211,0.83868 -1.99724,1.89395c-0.11168,0.00975 -0.22994,0.02951 -0.35513,0.06081c-0.04413,0.01103 -0.08683,0.02293 -0.12814,0.03563c-0.1727,-0.05702 -0.35729,-0.08788 -0.5491,-0.08788c-0.9665,0 -1.75,0.7835 -1.75,1.75c0,0.32649 0.08941,0.6321 0.24508,0.89368l-0.13236,-0.02206c-0.81066,-0.40547 -1.58488,-1.3082 -2.44255,-1.07225c-0.40293,0.11085 -0.45663,0.9687 -0.48113,1.60058l-0.03409,-0.00568c-0.00091,-0.04417 -0.01252,-0.338 -0.16108,-0.62902l0.03764,-0.21117c-0.0435,0.02019 -0.08634,0.04036 -0.12853,0.06051c-0.17778,-0.25078 -0.48095,-0.46461 -0.99795,-0.46461c-0.13101,0 -0.2483,0.01373 -0.35328,0.03832c-0.32779,-0.93312 -0.58141,-1.44003 -0.13911,-0.57336c0,0 1.14893,0.4924 1.64133,-0.65653c0.4924,-1.14893 -0.65653,-1.64133 -0.65653,-1.64133c-0.92011,-0.19056 -1.96942,-1.079 -2.76034,-0.57169c-0.68939,0.44218 -0.81639,1.36245 -0.69974,2.29598c-0.8158,0.13155 -0.95973,0.88079 -0.98512,1.14108c-0.82333,-1.22206 -1.59391,-2.4806 -2.22941,-3.71276c0.00731,-0.19312 0.01499,-0.3882 0.02841,-0.58172c0.69508,-0.11664 1.37618,-0.21627 2.09704,-0.21397h0.17241c0,0 0.51664,0 0.69233,-0.4288c0.2012,0.11073 0.53684,0.19994 0.87249,-0.1357c0.30057,-0.30057 0.26044,-0.60113 0.16925,-0.80515c0.00651,-0.00363 0.01303,-0.00728 0.01956,-0.01093c0.13882,-0.0094 0.72052,-0.08821 0.72052,-0.74873c0,-0.75 -0.75,-0.75 -0.75,-0.75l-0.55829,0.10688c-0.21975,0.13563 -0.42685,0.39277 -0.64799,0.53924c-0.21564,-0.08012 -0.43034,-0.14748 -0.64475,-0.20404c-0.06172,-0.34598 0.06717,-0.88134 -0.20485,-1.08448c-0.44054,-0.32899 -1.08093,-0.51049 -1.60974,-0.3599c-0.60332,0.17181 -1.02559,0.6722 -1.45718,1.162c-0.10176,0.00117 -0.2041,0.00255 -0.30707,0.00395c-0.17277,-0.66986 -0.26799,-1.30803 -0.26799,-1.90102c0,-0.59754 0.04329,-1.1845 0.12676,-1.75763c0.63883,-0.19093 0.81916,-0.91226 0.81916,-0.91226l0.22569,-0.90276c0.21836,-0.8814 0.36601,-1.68216 0.44838,-2.45996c1.27404,-2.1778 3.21718,-3.8807 5.53026,-4.79574c0.2414,0.08966 0.49747,0.14914 0.76363,0.17385c-0.05998,0.41457 -0.10601,0.81965 -0.13406,1.21741c-0.30131,0.35013 -0.48344,0.80575 -0.48344,1.30392c0,0.58425 0.25052,1.10999 0.65,1.47565c0.01516,0.06944 0.03127,0.13881 0.04835,0.20811c-0.88096,-0.17582 -1.91049,-0.13821 -2.6192,-0.03055c-0.82029,0.1246 -2.08701,-0.16822 -2.41746,0.59284c-0.41665,0.9596 0.56536,2.01447 0.84804,3.0217l1.39982,0.85253c0,0 0.01155,0.00385 0.03274,0.00965c-0.10963,0.22871 -0.17103,0.48493 -0.17103,0.75549c0,0.9665 0.7835,1.75 1.75,1.75c0.9665,0 1.75,-0.7835 1.75,-1.75c0,-0.01205 -0.00012,-0.02406 -0.00036,-0.03605c0.32772,-0.04939 0.68904,-0.23932 0.90277,-0.77364c0.12705,-0.31763 0.1324,-0.5831 0.07315,-0.80117c0.1223,-0.01329 0.33404,-0.0514 0.54242,-0.16076l0.28349,0.0945c0.1321,0.04749 0.27451,0.07337 0.42297,0.07337c0.32872,0 0.6278,-0.12688 0.85094,-0.33435c0.04288,0.1281 0.10315,0.23531 0.17401,0.32505c-0.28041,-0.02014 -1.18213,-0.00194 -1.35519,1.03639c-0.2055,1.23299 1.02749,1.43849 1.02749,1.43849c1.44484,0.06952 1.28973,0.75097 1.45065,2.10345l0.34509,0.83362c0,0 0.55902,1.11803 1.67705,0.55902c1.11803,-0.55902 0.55902,-1.67705 0.55902,-1.67705l-0.10629,-0.06914c-0.07465,-0.46722 -0.15304,-0.88528 -0.24719,-1.26007c0.22518,0.02427 0.48711,-0.02304 0.78134,-0.19958c1.07187,-0.64312 0.42875,-1.71499 0.42875,-1.71499h-0.00001l-0.6133,-1.00765c-0.28538,-0.61529 -0.30253,-1.45402 -0.85613,-1.84587c-0.5709,-0.4041 -1.39002,-0.1573 -2.08503,-0.23595c0,0 -0.5068,0 -0.875,0.3227c-0.04215,-0.1023 -0.09749,-0.19778 -0.16389,-0.28432c0.22801,-0.29552 0.36364,-0.66596 0.36364,-1.06808c0,-0.29967 -0.07532,-0.58175 -0.20807,-0.82834c0.02768,0.0031 0.05582,0.00469 0.08433,0.00469c0.41421,0 0.75,-0.33579 0.75,-0.75v-1.08696h-0.14905c0.09428,-0.69345 0.13227,-1.37882 0.14561,-2.07739l0.00117,-0.00097c0,0 0.33046,-0.33046 0.2088,-0.73053c0.44126,0.08072 0.87354,0.1888 1.29516,0.3225c-0.05279,0.45363 0.18366,0.8477 0.18366,0.8477c0.9955,1.58545 1.34374,3.59697 2.21073,5.33246l-0.32033,0.04057c0,0 -0.30317,1.21268 0.90951,1.51585c0.0689,0.01723 0.13487,0.02956 0.19802,0.0375c-0.04454,0.1866 -0.04366,0.40914 0.03176,0.67309c0.3434,1.2019 1.54531,0.8585 1.54531,0.8585c0.8383,-0.24699 1.71669,-0.41223 2.59057,-0.40329h0.30427c0.11581,0.63727 0.18167,1.29305 0.19315,1.96273c-0.18283,-0.22196 -0.47664,-0.4003 -0.9488,-0.4003c-1.25,0 -1.25,1.25 -1.25,1.25c0.01561,1.50367 0.31049,2.8867 0.82224,4.17866c-0.43062,0.89245 -0.9404,1.80439 -1.49727,2.71133zM241.29921,182.96324l-0.00049,0.31704c-0.22569,-0.37615 -0.45138,-0.7523 -0.67707,-1.12845c0,0 -0.64312,-1.07187 -1.71499,-0.42875c-1.07187,0.64312 -0.42875,1.71499 -0.42875,1.71499c0.22569,0.37615 0.45138,0.7523 0.67707,1.12845l1.35365,0.76842c0,0 1.18585,0.39528 1.58114,-0.79057c0.39528,-1.18585 -0.79057,-1.58114 -0.79057,-1.58114z" stroke="#ff7373" stroke-width="1.5"/><path d="" stroke="#ff7373" stroke-width="1.5"/><path d="M243.04033,193.82707c0,0 0,0.13413 0.03713,0.32812c-0.01662,0.04281 -0.03259,0.08539 -0.04792,0.12775c-0.12284,-0.13139 -0.21881,-0.20337 -0.21881,-0.20337l-0.67842,-0.37087l0.71936,-0.23979c0.07218,-0.0222 0.14157,-0.05075 0.20752,-0.08502z" stroke="#ff7373" stroke-width="1.5"/><path d="" stroke="#ff7373" stroke-width="1.5"/><path d="M238.83575,177.78094l0.00852,0.09137c-0.02697,-0.04178 -0.05606,-0.08087 -0.08643,-0.11734z" stroke="#ff7373" stroke-width="1.5"/><path d="M246.48966,191.81431l-0.00161,-0.06419c-0.08663,-0.34652 -0.17326,-0.69304 -0.25989,-1.03956c0.34703,-0.02071 0.69563,-0.02036 1.04116,0.00589c-0.25691,0.3709 -0.51759,0.73746 -0.77966,1.09786z" stroke="#ff7373" stroke-width="1.5"/><path d="" stroke="#ff7373" stroke-width="1.5"/><path d="M241.4483,198.02144c-0.02123,-0.30366 -0.08765,-0.59486 -0.19258,-0.86693c0.25018,0.08546 0.56466,0.14113 0.8958,0.07171c-0.25912,0.29682 -0.49541,0.56334 -0.70321,0.79522z" stroke="#ff7373" stroke-width="1.5"/><path d="M247.26025,168.86847c0.03009,-0.00376 0.06017,-0.00752 0.09026,-0.01128c0.45009,0.94304 0.93017,1.87008 1.46716,2.76665c0.01046,0.81672 0.51237,1.23272 0.93445,1.43842c0.25516,0.36103 0.52296,0.71527 0.8054,1.06167c0.11816,0.14492 0.23444,0.29243 0.35064,0.44042l-0.09714,0.05074l-1.08601,-0.543c-1.23447,-1.26961 -2.05557,-3.02121 -2.98624,-4.52142z" stroke="none" stroke-width="0"/><path d="M250.09071,168.41963c0.29476,0.39079 0.5485,0.84552 0.77374,1.37236c-0.01428,-0.00206 -0.02856,-0.00412 -0.04285,-0.00617c0,0 -0.08906,-0.01272 -0.22969,-0.01221c-0.23728,-0.41046 -0.4631,-0.82756 -0.68012,-1.24976c0.06007,-0.0304 0.12008,-0.06495 0.17892,-0.10422z" stroke="none" stroke-width="0"/><path d="M248.62075,155.91626c-0.78633,-0.3064 -1.8466,-0.2132 -2.37802,-0.86878c-0.38457,-0.47441 0.50318,-0.82704 1.26911,-1.15601c-0.07584,0.13011 -0.13471,0.29012 -0.16748,0.4867c-0.2055,1.23299 1.02749,1.43849 1.02749,1.43849c0.70082,0.07391 1.26166,0.42427 1.73428,0.92819c-0.40482,0.13293 -0.79321,0.30407 -1.14743,0.50103z" stroke="none" stroke-width="0"/><path d="M249.71996,159.73154l-0.06979,0.00618c0.12595,-0.37664 1.05718,-0.70683 1.84086,-0.77917c0.27762,0.5731 0.53662,1.15241 0.806,1.66906c-0.01855,0.02529 -0.0369,0.05081 -0.05505,0.07655l-0.32816,-0.13585c-0.45657,0.01195 -0.96835,-0.12401 -1.44726,-0.17191c-0.05449,-0.66486 -0.7466,-0.66486 -0.7466,-0.66486z" stroke="none" stroke-width="0"/><path d="M252.69749,155.78593l0.25214,0.44124c0.10005,0.18288 0.22785,0.34841 0.37772,0.49094c-0.1443,-0.06075 -0.29326,-0.11059 -0.44584,-0.15028c-0.11454,-0.19636 -0.232,-0.3883 -0.35429,-0.57462c0.05678,-0.06897 0.1134,-0.13874 0.17026,-0.20727z" stroke="none" stroke-width="0"/><path d="M254.70537,157.2686c0.03724,0 0.07424,-0.00102 0.11098,-0.00303c-0.05829,0.17857 -0.12024,0.35702 -0.1858,0.5353c-0.03827,-0.05982 -0.07869,-0.11752 -0.12136,-0.17295c-0.13598,-0.17666 -0.28546,-0.33101 -0.44611,-0.46468c0.20159,0.06832 0.41761,0.10536 0.64229,0.10536z" stroke="none" stroke-width="0"/><path d="M248.98844,161.17798c-0.17251,0.55052 -0.06017,1.27259 -0.07696,1.85933c-0.01847,0.64531 0.06924,1.17716 0.23856,1.62668c-0.3696,-0.15694 -0.76362,-0.29221 -1.18425,-0.407c-0.63711,-1.48917 -1.27304,-2.97826 -2.01138,-4.40656c1.00112,0.46391 1.9698,1.02805 3.03403,1.32755z" stroke="none" stroke-width="0"/><path d="M251.24235,162.78785c-0.04679,0.14028 -0.09015,0.27889 -0.13033,0.41449c-0.18906,-0.3984 -0.23214,-0.6607 0.13033,-0.41449z" stroke="none" stroke-width="0"/><path d="M251.7959,147.68692c0,0.00757 -0.00001,0.01513 -0.00001,0.0227c-0.00881,-0.00065 -0.01765,-0.00122 -0.0265,-0.00171c0.00883,-0.007 0.01767,-0.014 0.02651,-0.02099z" stroke="none" stroke-width="0"/><path d="M245.63311,158.11658l-0.00593,-0.18017c0.29389,0.1373 0.59131,0.26046 0.87666,0.37344c0.04661,0.09939 0.10886,0.19753 0.1905,0.29159c-0.34972,-0.17193 -0.70157,-0.33895 -1.06123,-0.48486z" stroke="none" stroke-width="0"/><path d="M249.48896,146.26413c0.05341,-0.01162 0.10692,-0.02357 0.16052,-0.03586c-0.25516,0.21484 -0.50501,0.43481 -0.74858,0.66035c-0.00715,-0.0067 -0.0143,-0.01331 -0.02145,-0.01982z" stroke="none" stroke-width="0"/><path d="" stroke="none" stroke-width="0"/><path d="" stroke="none" stroke-width="0"/><path d="M253.67672,168.52888c0.04878,0.06754 0.10852,0.12663 0.17662,0.17466c-0.17806,0.18779 -0.35069,0.37902 -0.51493,0.57613c-0.00591,-0.01482 -0.01183,-0.02961 -0.01776,-0.04436c0.04693,-0.04982 0.08407,-0.09828 0.10653,-0.14373c0.07303,-0.14779 0.16062,-0.34265 0.24955,-0.56269z" stroke="none" stroke-width="0"/><path d="" stroke="none" stroke-width="0"/><path d="" stroke="none" stroke-width="0"/><path d="" stroke="none" stroke-width="0"/><path d="M255.74906,158.94174c0.03064,0.16204 0.06116,0.32348 0.09155,0.48421c-0.15177,-0.14792 -0.20475,-0.30757 -0.09155,-0.48421z" stroke="none" stroke-width="0"/><path d="M252.7419,143.03706c0,0 0.00155,0.00819 0.00459,0.02428c-0.00522,-0.00446 -0.01045,-0.00887 -0.0157,-0.01326z" stroke="none" stroke-width="0"/><path d="M257.08439,171.33796l-0.23803,0.12434c-0.03199,-0.03339 -0.06416,-0.06472 -0.09597,-0.094c-0.09208,-0.21057 -0.16327,-0.4528 -0.16658,-0.64558c0.03674,-0.03878 0.07331,-0.07761 0.10971,-0.11648c0.15119,0.24783 0.29929,0.50831 0.39086,0.73172z" stroke="none" stroke-width="0"/><path d="M257.62845,169.98018c0.06249,-0.02325 0.12758,-0.04571 0.19488,-0.06756c0.00643,0.03401 0.01274,0.06739 0.01892,0.10008c-0.16962,-0.00723 -0.31286,0.00434 -0.2138,-0.03252z" stroke="none" stroke-width="0"/><path d="M223.74092,161.8115l0.72465,-0.06635l0.30006,0.45009c-0.57749,0.89421 -1.11444,1.80227 -1.63138,2.65416c0.17407,-0.92064 0.36813,-1.94704 0.57459,-3.03895c0.02067,0.00109 0.0321,0.00109 0.0321,0.00109z" data-paper-data="{&quot;index&quot;:null}" stroke="none" stroke-width="0"/><path d="M226.36743,164.82626c-0.04688,0.07127 -0.08657,0.1445 -0.12013,0.21799c-0.02032,-0.01181 -0.04067,-0.0235 -0.06107,-0.03504c0.06092,-0.07935 0.11538,-0.15274 0.1618,-0.21927c0.00648,0.0121 0.01294,0.02421 0.0194,0.03632z" data-paper-data="{&quot;index&quot;:null}" stroke="none" stroke-width="0"/><path d="M224.72317,156.44561c0.02647,-0.14002 0.05296,-0.28009 0.07944,-0.42015c0.09151,-0.0244 0.18302,-0.05116 0.27463,-0.08043c0.66347,0.58551 1.33749,1.16244 2.14868,1.41484c0.31398,0.0977 0.65287,0.1499 1.00669,0.16883c-0.07118,0.28136 -0.12557,0.50894 -0.15767,0.64421c-0.37799,0.32191 -0.73794,0.6753 -1.0823,1.05184c-0.28417,-1.06427 -1.29937,-2.06291 -2.26945,-2.77913z" data-paper-data="{&quot;index&quot;:null}" stroke="none" stroke-width="0"/><path d="" data-paper-data="{&quot;index&quot;:null}" stroke="none" stroke-width="0"/><path d="M228.50489,153.61739c0.60042,-0.61413 0.7755,-1.48389 0.92442,-2.36936c0.23754,0.26284 0.42865,0.51657 0.54654,0.75484l0.19947,0.92062c0,0 0.14895,0.59579 0.65564,0.84776c-0.45926,-0.01783 -0.90551,-0.00057 -1.26545,0.24975c-0.18973,0.13195 -0.39383,0.53364 -0.58903,1.04154c-0.37346,0.01886 -0.72386,-0.00434 -1.02611,-0.09541c-0.19618,-0.05911 -0.39721,-0.16165 -0.60058,-0.29276c0.37047,-0.29691 0.75374,-0.64646 1.15509,-1.05698z" data-paper-data="{&quot;index&quot;:null}" stroke="none" stroke-width="0"/><path d="M231.96158,153.7405c0.00757,0.02767 0.01592,0.05502 0.02502,0.08202l-0.11036,-0.03747c-0.01165,0.00119 -0.02333,0.0023 -0.03504,0.00332c0.04228,-0.01476 0.08237,-0.03076 0.12039,-0.04787z" data-paper-data="{&quot;index&quot;:null}" stroke="none" stroke-width="0"/><path d="M232.9645,168.40531c0.00541,0.00011 0.01085,0.00017 0.0163,0.00017c0.26446,0 0.49695,-0.13688 0.63049,-0.34365l0.42833,-0.6425l-0.32297,-0.21531c0.19028,-0.39712 0.32341,-0.82582 0.39294,-1.2561l-0.28425,8.64141c-0.61959,0.00899 -1.21991,0.06234 -1.43255,0.55206c-0.16304,0.37549 -0.11191,0.76557 0.02767,1.16167l-1.43532,-0.7498c0.24332,-1.69611 0.18129,-3.22424 -0.13278,-5.15108c0,0 -0.04068,-0.24408 -0.19444,-0.49695c0.11726,0.02141 0.23808,0.03259 0.36152,0.03259h0.00001c0.94359,0 1.73455,-0.65346 1.94505,-1.53252z" data-paper-data="{&quot;index&quot;:null}" stroke="none" stroke-width="0"/><path d="M227.81756,173.89854c-0.0234,-0.24204 -0.09786,-0.50736 -0.24216,-0.79597c-0.89443,-1.78885 -2.68328,-0.89443 -2.68328,-0.89443c-0.05245,0.02683 -0.10444,0.05373 -0.15599,0.08069l-1.50168,-0.78446c0.0427,0.00755 0.08666,0.01149 0.13153,0.01149c0.2012,0 0.38391,-0.07923 0.51861,-0.2082c0.06556,0.00421 0.13161,0.006 0.19812,0.00547c0.03666,0.03602 0.07304,0.07046 0.10915,0.10312c0.02022,0.18238 0.13163,0.68486 0.74552,0.68486c0.75,0 0.75,-0.75 0.75,-0.75l-0.09016,-0.2877c0.01259,-0.02858 0.02513,-0.05813 0.0376,-0.08867c0.00504,-0.01234 0.01003,-0.02462 0.01497,-0.03684c0.61191,-0.26744 1.23108,-0.66085 1.82714,-1.12437c0.2075,0.05843 0.45105,0.08143 0.73681,0.05286c0.15836,-0.01584 0.30087,-0.04463 0.42912,-0.0839c-0.35614,0.43251 -0.25644,1.03069 -0.25644,1.03069c0.22828,1.33638 0.31293,2.40331 0.23213,3.50378z" data-paper-data="{&quot;index&quot;:null}" stroke="none" stroke-width="0"/><path d="M229.46567,169.19716c0.04427,0.05455 0.09135,0.10672 0.14103,0.1563c-0.0613,0.00308 -0.12552,0.01001 -0.1928,0.02122c-0.03985,0.00664 -0.07821,0.01436 -0.11511,0.02307c0.06343,-0.06364 0.11872,-0.13105 0.16688,-0.2006z" data-paper-data="{&quot;index&quot;:null}" stroke="none" stroke-width="0"/><path d="M231.47519,165.98996c-0.14639,-0.03412 -0.29896,-0.05215 -0.45574,-0.05215c-0.00218,0 -0.00435,0 -0.00653,0.00001c0.02688,-0.04251 0.05296,-0.08446 0.07821,-0.12581c0.13435,-0.04129 0.26067,-0.10095 0.37601,-0.17603c-0.01388,0.11338 -0.01184,0.23122 0.00804,0.35399z" data-paper-data="{&quot;index&quot;:null}" stroke="none" stroke-width="0"/><path d="M231.46715,165.63597c0,0 0,0 0,0c0,0 0,-0.00001 0,-0.00001z" data-paper-data="{&quot;index&quot;:null}" stroke="none" stroke-width="0"/><path d="M223.70885,161.8104v0c-0.00001,0 -0.00001,0 -0.00002,0z" data-paper-data="{&quot;index&quot;:null}" stroke="none" stroke-width="0"/><path d="M232.39161,151.54679c0.09465,0.08599 0.19658,0.17163 0.3066,0.25736c0.03321,0.03358 0.06696,0.0665 0.10123,0.0988l-0.03457,0.02765l0.03366,0.04207c-0.08906,0.03969 -0.17354,0.0878 -0.25242,0.14333z" data-paper-data="{&quot;index&quot;:null}" stroke="none" stroke-width="0"/><path d="M225.77492,166.12465c-0.21038,0.13105 -0.41729,0.25592 -0.6197,0.37687c-0.01694,-0.04239 -0.03294,-0.08603 -0.04756,-0.13134c0.10695,-0.14116 0.21513,-0.27965 0.32152,-0.41373c0.10521,0.04841 0.2237,0.10947 0.34574,0.16821z" data-paper-data="{&quot;index&quot;:null}" stroke="none" stroke-width="0"/><path d="" data-paper-data="{&quot;index&quot;:null}" stroke="none" stroke-width="0"/><path d="" data-paper-data="{&quot;index&quot;:null}" stroke="none" stroke-width="0"/><path d="" data-paper-data="{&quot;index&quot;:null}" stroke="none" stroke-width="0"/><path d="M224.15263,159.46328c0.02072,-0.10956 0.04149,-0.21946 0.06233,-0.32966c0.11998,0.10899 0.20021,0.20113 0.21891,0.26359c-0.04179,0.02667 -0.08189,0.05577 -0.12009,0.08708c-0.04195,-0.00099 -0.09529,-0.00777 -0.16115,-0.02101z" data-paper-data="{&quot;index&quot;:null}" stroke="none" stroke-width="0"/><path d="M235.99683,185.3612l-0.67495,1.22901c-0.10231,0.02425 -0.20154,0.06514 -0.297,0.12638c-0.55573,0.35645 -0.74601,1.02358 -0.73779,1.75789l-0.37446,0.68185c-0.50193,0.29428 -0.56802,0.89662 -0.57673,1.05016l-1.23383,2.24668c-0.8335,-1.15679 -2.34298,-1.77168 -3.9527,-2.33542c-0.10845,-0.17181 -0.21294,-0.33763 -0.31043,-0.49492z" data-paper-data="{&quot;index&quot;:null}" stroke="none" stroke-width="0"/><path d="M223.87182,192.81073c0.19223,-0.67379 0.32472,-1.13217 0.36446,-1.26939c0.8744,0.35451 1.7836,0.6373 2.54508,0.87841c0.30824,0.47169 0.5664,0.9285 0.68904,1.33689c0.18429,0.61365 -1.15816,0.47447 -1.76146,0.76641c-0.39507,-0.9563 -1.15428,-1.45365 -1.83712,-1.71231z" data-paper-data="{&quot;index&quot;:null}" stroke="none" stroke-width="0"/><path d="M227.9697,196.90216c0.26949,0.13944 0.82588,0.1154 0.80845,0.41832c-0.01698,0.29512 -0.56503,0.17403 -0.84754,0.26105c0,0 -0.42934,0.42934 -0.52933,1.03512c-0.58744,-0.08047 -1.17389,-0.14579 -1.75447,-0.19045l-0.21872,-0.30605c0.00163,-0.02213 0.00365,-0.04395 0.00605,-0.06545c0.15857,-0.23768 0.29163,-0.51363 0.38685,-0.83403c0.46264,-0.47778 1.262,-0.69186 2.03654,-0.97927z" data-paper-data="{&quot;index&quot;:null}" stroke="none" stroke-width="0"/><path d="M225.14073,202.88993c-0.79862,-0.47117 -1.61409,-0.91551 -2.44818,-1.31944c0.04677,-0.22459 0.0933,-0.4492 0.13943,-0.6739c0.19292,-0.02031 0.38877,-0.03564 0.58717,-0.04636c0.07745,0.10734 0.16305,0.21875 0.255,0.33361c0.12404,0.48942 0.41467,0.72185 0.70349,0.82826c0.24953,0.28471 0.51055,0.57963 0.76309,0.87783z" data-paper-data="{&quot;index&quot;:null}" stroke="none" stroke-width="0"/><path d="M226.21723,206.70801c0.15365,-0.13552 0.3017,-0.30902 0.43906,-0.52881c0.01147,-0.01835 0.02262,-0.03663 0.03345,-0.05484c-0.0038,0.27725 -0.02784,0.55664 -0.05269,0.83639c-0.13245,-0.12875 -0.27637,-0.20769 -0.41982,-0.25275z" data-paper-data="{&quot;index&quot;:null}" stroke="none" stroke-width="0"/><path d="M230.73008,209.701c0.34187,-0.15194 0.59138,-0.33942 0.7711,-0.54381l0.97945,1.66216c-0.24698,-0.1333 -0.52965,-0.20897 -0.83,-0.20897c-0.20724,0 -0.40606,0.03602 -0.59055,0.10214c-0.23207,-0.29002 -0.46877,-0.58115 -0.70908,-0.87544c0.12115,-0.03278 0.24748,-0.07758 0.37909,-0.13607z" data-paper-data="{&quot;index&quot;:null}" stroke="none" stroke-width="0"/><path d="M227.36063,211.68987c0.14613,-0.28665 0.28841,-0.58064 0.42851,-0.88206c0.0333,-0.01251 0.06634,-0.02582 0.09911,-0.03995c0.60647,0.73445 1.19789,1.43865 1.75193,2.1499c-0.74612,-0.38427 -1.51704,-0.79673 -2.27954,-1.2279z" data-paper-data="{&quot;index&quot;:null}" stroke="none" stroke-width="0"/><path d="M235.27935,215.569c0,0 -0.5107,-0.21361 -1.34158,-0.58638c-0.27358,-0.54107 -0.57364,-1.05837 -0.89537,-1.5613c0.22093,-0.2894 0.35366,-0.64974 0.35805,-1.0409z" data-paper-data="{&quot;index&quot;:null}" stroke="none" stroke-width="0"/><path d="M223.82232,207.543c-0.15454,0.30419 -0.40411,0.60115 -0.64502,0.89877c-0.94088,-0.46836 -1.40319,-1.39526 -1.28463,-2.79767c0.68378,0.36485 1.35234,0.75935 2.00756,1.17107c0,0 0.31662,0.19789 0.76177,0.28586z" data-paper-data="{&quot;index&quot;:null}" stroke="none" stroke-width="0"/><path d="M255.95474,202.8052c-0.22439,-0.2977 -0.4404,-0.60298 -0.6444,-0.91603c0.8026,0.04965 1.59981,0.01614 2.36446,-0.11184c-0.43576,0.52969 -0.92123,1.02368 -1.4438,1.48733z" data-paper-data="{&quot;index&quot;:null}" stroke="none" stroke-width="0"/><path d="M260.01393,206.0248c0.00271,0.19223 -0.0538,0.37518 -0.15304,0.54946c-0.07627,-0.63788 -0.46203,-1.30948 -1.29934,-1.99865c-0.01965,-0.01618 -0.04127,-0.03204 -0.06474,-0.04759c0.22153,-0.21448 0.43682,-0.43462 0.64515,-0.66081c0.45688,0.67498 0.86119,1.39199 0.87196,2.15759z" data-paper-data="{&quot;index&quot;:null}" stroke="none" stroke-width="0"/><path d="M253.99853,208.90028c-0.22724,-0.23017 -0.41438,-0.46026 -0.57691,-0.71004c0.89577,-0.51152 1.77496,-1.05557 2.61295,-1.64591c0.39088,0.0904 0.68329,0.18681 0.82207,0.3229c-1.27377,0.11821 -2.34956,0.91898 -2.85811,2.03305z" data-paper-data="{&quot;index&quot;:null}" stroke="none" stroke-width="0"/><path d="M252.61777,205.74053c0.01834,0.01075 0.03677,0.02091 0.05522,0.03051c-0.03703,0.02158 -0.07411,0.04308 -0.11122,0.06452z" data-paper-data="{&quot;index&quot;:null}" stroke="none" stroke-width="0"/><path d="M249.63222,211.96488c-0.14603,0.02376 -0.29876,0.04879 -0.45973,0.07558l0.00014,0.12404l-0.0239,-0.11949l-0.08997,0.01799l-0.04688,-0.15628l-0.0336,0.01008l1.17543,-1.99476c0.36065,-0.18157 0.7234,-0.3657 1.08667,-0.55328c0.3205,0.52241 0.69827,0.9893 1.1738,1.45408c-0.94683,0.31659 -1.8724,0.683 -2.78197,1.14204z" data-paper-data="{&quot;index&quot;:null}" stroke="none" stroke-width="0"/><path d="M249.09598,190.80059c0.04643,-0.03714 0.09299,-0.07879 0.13955,-0.12535c0.88388,-0.88388 0,-1.76777 0,-1.76777l-0.90408,-0.5748c-0.05461,-0.00858 -0.10932,-0.01667 -0.1641,-0.0243c-0.0047,-0.92658 -0.6395,-1.70415 -1.49782,-1.92609l-0.56075,-1.02107l4.87883,2.54865c-0.51268,1.25768 -0.98676,2.52109 -1.37045,3.83975z" data-paper-data="{&quot;index&quot;:null}" stroke="none" stroke-width="0"/><path d="M251.79231,195.71034c0.25255,-0.37251 0.50238,-0.75678 0.75162,-1.15475c0,0 0.88396,-1.41433 -0.45478,-2.34448c0.21584,-0.71595 0.4594,-1.41522 0.72072,-2.10729c0.08007,0.09539 0.16117,0.19038 0.24328,0.28497l0.50822,0.51213c0,0 0.02748,0.02748 0.07761,0.06791c-0.70459,0.7657 -1.01558,1.8256 -0.58396,3.22428c-0.34883,0.54708 -0.57993,1.09314 -0.73047,1.69581c-0.17922,-0.03263 -0.34842,-0.0747 -0.50447,-0.128z" data-paper-data="{&quot;index&quot;:null}" stroke="none" stroke-width="0"/><path d="M256.59122,199.43495c-0.77553,0.05205 -1.58623,-0.01345 -2.36968,-0.16736c0.34533,-0.36979 0.34533,-0.90001 0.34533,-0.90001c-0.00003,-0.0016 -0.00006,-0.00321 -0.00009,-0.00481c0.50498,-0.01576 1.00063,-0.04376 1.47023,-0.06603c0.1755,0.38 0.36159,0.75925 0.55421,1.13821z" data-paper-data="{&quot;index&quot;:null}" stroke="none" stroke-width="0"/><path d="M258.48843,195.96976c0.01394,0.02577 0.02644,0.05266 0.03757,0.0806c-0.01244,-0.0269 -0.02496,-0.05376 -0.03757,-0.0806z" data-paper-data="{&quot;index&quot;:null}" stroke="none" stroke-width="0"/><path d="M246.82625,215.56898l0.21718,-0.36856c0.10963,0.05537 0.22698,0.09769 0.35,0.1249c-0.36194,0.15782 -0.56718,0.24366 -0.56718,0.24366z" data-paper-data="{&quot;index&quot;:null}" stroke="none" stroke-width="0"/><path d="" data-paper-data="{&quot;index&quot;:null}" stroke="none" stroke-width="0"/><path d="M222.53677,183.2372c0.09973,0.26594 0.19945,0.53187 0.29918,0.79781l-2.30628,0.91823c-0.07317,-0.3052 -0.15062,-0.57787 -0.23223,-0.79579c0.25404,-1.16673 0.52981,-2.32469 0.81227,-3.48547l0.11245,-0.11332c0.79953,-0.89995 1.45132,-1.67606 2.12832,-2.36436c0.10212,0.81928 0.17164,1.68402 0.19761,2.53312c-1.67274,0.74598 -1.01132,2.50978 -1.01132,2.50978z" data-paper-data="{&quot;index&quot;:null}" stroke="none" stroke-width="0"/><path d="M216.04401,181.04601c0,0 -0.14336,-0.08601 -0.35667,-0.1427c0.57077,-1.05162 1.07894,-2.01116 1.39569,-2.80681l-0.01144,-0.12675l0.04253,0.00945l0.19858,-0.89363c0.00567,-0.00438 0.01134,-0.00875 0.01701,-0.01312c0.01852,0.51957 0.09843,1.13661 0.12524,1.70165c-0.1717,0.28285 -0.34616,0.69176 -0.31824,1.15834c-0.01797,0.06817 -0.02813,0.14532 -0.02813,0.23264c0,0.34063 0.1547,0.52655 0.32358,0.62803c0.07946,0.12169 0.17721,0.2444 0.29602,0.36719c-0.15682,0.29808 -0.31769,0.59333 -0.48486,0.88441c-0.33451,-0.36333 -0.73069,-0.6981 -1.1993,-0.9987z" data-paper-data="{&quot;index&quot;:null}" stroke="none" stroke-width="0"/><path d="M233.56076,179.76497l-7.00778,2.79012c-0.0903,-0.24079 -0.18059,-0.48159 -0.27089,-0.72239c0,0 -0.07018,-0.18715 -0.22533,-0.42093c-0.01043,-1.70197 -0.19494,-3.50328 -0.46897,-5.02908c0.01273,-0.00784 0.0255,-0.01566 0.03832,-0.02348l0.91498,0.39273c-0.06026,0.22778 -0.10891,0.45939 -0.14596,0.69298c-0.41304,0.46852 -0.24532,1.13939 -0.24532,1.13939l0.15673,0.02476c0.00135,0.25251 0.01608,0.50381 0.04421,0.7516l0.95511,-0.5937l0.91239,0.14417c0.14192,0.15295 0.34844,0.28246 0.64659,0.357c1.08567,0.27142 1.44237,-0.67212 1.50517,-0.87274z" data-paper-data="{&quot;index&quot;:null}" stroke="none" stroke-width="0"/><path d="M214.84158,183.23608c0.40917,0.23489 0.72726,0.5483 0.97298,0.91945c-0.22128,0.2709 -0.45546,0.53372 -0.70502,0.78698l-0.99591,0.59754c0.20282,-0.75865 0.45068,-1.52193 0.72795,-2.30397z" data-paper-data="{&quot;index&quot;:null}" stroke="none" stroke-width="0"/><path d="M213.64787,187.88022c0.02071,-0.16881 0.04441,-0.33713 0.07091,-0.50512c0.12995,0.17539 0.30473,0.31557 0.5074,0.40362c-0.20288,-0.00062 -0.39544,0.03577 -0.57831,0.1015z" data-paper-data="{&quot;index&quot;:null}" stroke="none" stroke-width="0"/><path d="M215.48443,188.22563c-0.20048,-0.1371 -0.39317,-0.2395 -0.57843,-0.31144l0.62256,0.07782z" data-paper-data="{&quot;index&quot;:null}" stroke="none" stroke-width="0"/><path d="" data-paper-data="{&quot;index&quot;:null}" stroke="none" stroke-width="0"/><path d="M218.82598,176.90422c0,0 0,-0.48995 -0.396,-0.67785c1.4634,-1.12169 2.484,-1.88972 2.484,-1.88972l0.51692,0.22187c-0.69588,0.61689 -1.34343,1.28751 -2.02513,2.03407c-0.13939,0.10141 -0.25701,0.23092 -0.34454,0.38022c-0.07687,0.08539 -0.15432,0.17176 -0.23247,0.25913c-0.00236,-0.10673 -0.00343,-0.21582 -0.00278,-0.32772z" data-paper-data="{&quot;index&quot;:null}" stroke="none" stroke-width="0"/><path d="" data-paper-data="{&quot;index&quot;:null}" stroke="none" stroke-width="0"/><path d="" data-paper-data="{&quot;index&quot;:null}" stroke="none" stroke-width="0"/><path d="" data-paper-data="{&quot;index&quot;:null}" stroke="none" stroke-width="0"/><path d="M248.54484,180.8761l3.92369,-1.68416c0.76879,0.31767 1.57681,0.53516 2.65382,0.5649l0.75827,-0.26841c-0.39539,1.06714 -1.38397,2.38778 -2.21376,3.42697l-1.79845,-0.71604c-0.009,-0.1758 -0.01238,-0.35341 -0.00987,-0.53286c0,0 0,-1.25 -1.25,-1.25c-0.75333,0 -1.05265,0.454 -1.17159,0.81478z" data-paper-data="{&quot;index&quot;:null}" stroke="none" stroke-width="0"/><path d="M258.78825,181.15912c-0.2342,0.309 -0.30123,0.67488 -0.32041,0.85901c-0.35851,-0.07418 -0.71127,-0.13041 -1.04633,-0.1682c0.42799,-0.69086 0.77755,-1.40579 0.95785,-2.1378c0.14429,0.47668 0.27623,0.96241 0.40889,1.44699z" data-paper-data="{&quot;index&quot;:null}" stroke="none" stroke-width="0"/><path d="" data-paper-data="{&quot;index&quot;:null}" stroke="none" stroke-width="0"/><path d="" data-paper-data="{&quot;index&quot;:null}" stroke="none" stroke-width="0"/><path d="M268.8207,194.00752c0.00187,0.00285 0.00367,0.00569 0.00542,0.00854c-0.00034,0.00363 -0.00067,0.00725 -0.00101,0.01088c-0.00147,-0.00647 -0.00294,-0.01294 -0.00441,-0.01942z" data-paper-data="{&quot;index&quot;:null}" stroke="none" stroke-width="0"/><path d="" data-paper-data="{&quot;index&quot;:null}" stroke="none" stroke-width="0"/><path d="" data-paper-data="{&quot;index&quot;:null}" stroke="none" stroke-width="0"/><path d="" data-paper-data="{&quot;index&quot;:null}" stroke="none" stroke-width="0"/></g></g></svg>