<svg version="1.1" xmlns="http://www.w3.org/2000/svg" xmlns:xlink="http://www.w3.org/1999/xlink" width="66.7738" height="66.77381" viewBox="0,0,66.7738,66.77381"><g transform="translate(-206.6131,-146.6131)"><g data-paper-data="{&quot;isPaintingLayer&quot;:true}" fill-rule="nonzero" stroke="none" stroke-width="0" stroke-linecap="butt" stroke-linejoin="miter" stroke-miterlimit="10" stroke-dasharray="" stroke-dashoffset="0" style="mix-blend-mode: normal"><path d="M235.9121,213.38691l0,-66.77381l6.11417,0l0,66.77381z" fill="#d1fffa"/><path d="M236.39775,202.51407v-48.78049l5.62852,0l0,48.78049z" fill="#66fff0"/><path d="M261.44642,205.76979l-47.21621,-47.21621l4.32337,-4.32337l47.21621,47.21621z" fill="#d1fffa"/><path d="M254.10157,197.73813l-34.49302,-34.49302l3.97996,-3.97996l34.49302,34.49302z" fill="#66fff0"/><path d="M265.76979,158.55358l-47.21621,47.21621l-4.32337,-4.32337l47.21621,-47.21621z" fill="#d1fffa"/><path d="M257.73812,165.89843l-34.49301,34.49302l-3.97996,-3.97997l34.49302,-34.49301z" fill="#66fff0"/><path d="M206.6131,176.94291l66.7738,0l0,6.11417l-66.7738,0z" fill="#d1fffa"/><path d="M217.48594,177.42857l48.78049,0l0,5.62852l-48.78049,0z" fill="#66fff0"/></g></g></svg>