<svg version="1.1" xmlns="http://www.w3.org/2000/svg" xmlns:xlink="http://www.w3.org/1999/xlink" width="66.64118" height="72.53193" viewBox="0,0,66.64118,72.53193"><g transform="translate(-207.77165,-143.03706)"><g data-paper-data="{&quot;isPaintingLayer&quot;:true}" fill="#f5ffa1" fill-rule="nonzero" stroke-linecap="butt" stroke-linejoin="miter" stroke-miterlimit="10" stroke-dasharray="" stroke-dashoffset="0" style="mix-blend-mode: normal"><path d="M251.55908,181.02851c0,3.19385 -2.76229,7.69832 -5.52622,11.40604c-0.0796,-0.09215 -0.18051,-0.18167 -0.30709,-0.26605c-1.04006,-0.69338 -1.73343,0.34668 -1.73343,0.34668l-0.46659,0.70243c-0.69423,1.23502 -0.89504,2.26838 -0.72205,3.25266c-1.3504,1.58345 -2.30684,2.58984 -2.30684,2.58984c0,0 -0.85351,-0.8981 -2.08638,-2.33236c0.01576,-0.02548 0.02364,-0.04124 0.02364,-0.04124l0.17061,-1.18622c-0.37554,-0.54465 -0.82988,-1.0017 -1.18489,-1.45072c0.24403,-0.40654 0.4742,-0.82862 0.60664,-1.33038l0.62503,-1.25007l-0.36774,-0.18387l0.13545,-0.75997c-0.25365,0.11772 -0.48499,0.23481 -0.69537,0.3516l-0.27349,-0.27349l-0.65217,0.65217l0.13291,0.13291c-0.9405,0.72209 -1.15395,1.45263 -0.96005,2.27479c-0.01042,0.0178 -0.02087,0.03557 -0.03133,0.05334c-3.04871,-3.90289 -6.50506,-9.11545 -6.50506,-12.68809c0,-5.5768 3.77062,-10.23228 8.79027,-11.32847l0.07619,0.05714c0.26033,0.47137 0.51866,0.93181 0.79093,1.30559l0.11375,0.45501c0.07579,0.33399 0.37449,0.58332 0.73141,0.58332c0.04399,0 0.0871,-0.00379 0.12901,-0.01105c0.01233,0.3752 0.06525,0.76634 0.33391,1.19882l0.42833,0.6425c0.13354,0.20678 0.36603,0.34365 0.63049,0.34365c0.41421,0 0.75,-0.33579 0.75,-0.75v-1.08696h-0.14905c0.09428,-0.69345 0.13227,-1.37882 0.14561,-2.07739l0.00117,-0.00097c0,0 0.33046,-0.33046 0.2088,-0.73053c5.195,0.95034 9.1436,5.69244 9.1436,11.39934z" stroke="#ff7373" stroke-width="1.5"/><path d="M246.25402,176.99559l-0.56797,-17.26642c1.13378,0.49852 2.21208,1.16495 3.4171,1.47999l0.61668,0.02239c0,0 0.75,0 0.75,-0.75c0,-0.75 -0.75,-0.75 -0.75,-0.75l-0.25288,0.02239c-1.35236,-0.31759 -2.54282,-1.11357 -3.83394,-1.63734l-0.25571,-7.77349l4.1116,-4.07897c0.05341,-0.01162 0.10692,-0.02357 0.16052,-0.03586c-0.41701,0.35111 -0.81984,0.71593 -1.20423,1.09637c0,0 -0.88388,0.88388 0,1.76777c0.88388,0.88388 1.76777,0 1.76777,0c0.49025,-0.49636 1.02324,-0.96328 1.58287,-1.4055c-0.00069,1.17153 -0.00542,2.34311 0.00938,3.51455l-0.40007,1.2002c-0.0285,0.07926 -0.04402,0.16471 -0.04402,0.25378c0,0.41421 0.33579,0.75 0.75,0.75c0.0988,0 0.19314,-0.01911 0.27953,-0.05382l1.38831,-0.52062l-0.00212,-0.00566c0.01889,-0.00562 0.03776,-0.01137 0.05659,-0.01725c0.2603,-0.08129 0.4942,-0.17398 0.70345,-0.27707c0.20991,1.11021 0.4269,2.25782 0.64425,3.40736c-0.16989,0.76116 -0.40786,1.52208 -0.7107,2.27938c-0.16142,0.45318 -0.23348,0.81373 -0.23442,1.10731c-1.98335,0.29647 -2.90039,2.90233 -3.30404,4.54308c0.02771,0.51083 -0.12222,1.06393 0.08312,1.53249c0.12246,0.27943 1.6527,0.90084 1.66464,1.31339c0.02272,0.78467 -1.92336,3.33496 -1.44725,3.904c0.49986,0.59743 1.48715,0.60345 2.26552,0.57316c0.53849,-0.02096 1.24112,-0.3319 1.89347,-0.80523c-0.37945,0.7249 -0.61499,1.47483 -0.34566,2.01686z" stroke="none" stroke-width="0"/><path d="" stroke="none" stroke-width="0"/><path d="M253.29633,148.88974c0.00114,0.00216 0.00228,0.00433 0.00343,0.00649c-0.00114,0.00504 -0.00229,0.01007 -0.00343,0.01511c0,-0.0072 0,-0.0144 0,-0.0216z" stroke="none" stroke-width="0"/><path d="" stroke="none" stroke-width="0"/><path d="" stroke="none" stroke-width="0"/><path d="" stroke="none" stroke-width="0"/><path d="" stroke="none" stroke-width="0"/><path d="" stroke="none" stroke-width="0"/><path d="M252.74181,143.03706c0,0 0.00155,0.00819 0.00459,0.02428c-0.00522,-0.00446 -0.01045,-0.00887 -0.0157,-0.01326z" stroke="none" stroke-width="0"/><path d="" stroke="none" stroke-width="0"/><path d="" stroke="none" stroke-width="0"/><path d="M223.70873,161.81041c0.02068,0.00109 0.03212,0.00109 0.03212,0.00109l1.44137,-0.13197c0.6011,-0.43699 1.58697,-0.60001 1.80331,-1.31098c0.44628,-1.46669 -0.94941,-2.95351 -2.26245,-3.92294c0.54453,-2.87996 1.09297,-5.78062 1.53978,-8.14375c1.01697,1.13966 3.16263,2.58883 3.7129,3.70101l0.19947,0.92062c0,0 0.30317,1.21268 1.51585,0.90951c1.21268,-0.30317 0.90951,-1.51585 0.90951,-1.51585l-0.20909,-0.77036c0.09465,0.08599 0.19658,0.17163 0.3066,0.25736c0.03321,0.03358 0.06696,0.0665 0.10123,0.0988l-0.03457,0.02765l1.16926,1.46157c0.00198,0.00252 0.00397,0.00503 0.00596,0.00753c-0.09849,-0.09175 -0.23967,-0.16285 -0.44168,-0.1853c-0.74541,-0.08282 -0.82824,0.66259 -0.82824,0.66259c-0.22393,2.03426 -1.6534,4.33502 -1.05936,6.38712c0.10348,0.35749 0.32792,0.65629 0.62078,0.90871c-0.16322,1.04553 -0.19739,1.98059 0.18696,2.41378c0.15292,0.17235 0.32314,0.32337 0.50488,0.45228c-1.27059,0.72831 -2.09115,1.62441 -0.85207,3.07114l0.17803,0.71212c0.07579,0.33399 0.37449,0.58332 0.73141,0.58332c0.26446,0 0.49695,-0.13688 0.63049,-0.34365l0.42833,-0.6425l-0.32297,-0.21531c0.19028,-0.39712 0.32341,-0.82582 0.39294,-1.2561l-0.3634,11.04769l-10.51177,-5.49122c0.0427,0.00755 0.08666,0.01149 0.13153,0.01149c0.25076,0 0.47279,-0.12307 0.60896,-0.3121c0.0734,0.07672 0.1457,0.14807 0.21691,0.21249c0.02022,0.18238 0.13163,0.68486 0.74552,0.68486c0.75,0 0.75,-0.75 0.75,-0.75l-0.09016,-0.2877c0.01259,-0.02858 0.02513,-0.05813 0.0376,-0.08867c0.84079,-2.05807 0.21165,-2.44916 -0.76242,-2.23521c0.65761,-0.53596 1.30294,-1.07634 1.86457,-1.46741l0.75839,-0.1896c0.33399,-0.07579 0.58332,-0.37449 0.58332,-0.73141c0,-0.32193 -0.20283,-0.59649 -0.48768,-0.70285l-1.03782,-0.41513c-0.90196,-0.58803 -1.95758,-1.0168 -2.58092,-0.28192c-0.63278,0.746 -0.30895,1.56827 -0.09493,2.32781c-0.30314,0.19641 -0.58628,0.39615 -0.8442,0.61055c-0.02611,0.00791 -0.05014,0.01798 -0.07156,0.03065c-0.1276,-0.06592 -0.25293,-0.1274 -0.37316,-0.18377c0.25236,-1.33467 0.65491,-3.46375 1.12047,-5.92604z" data-paper-data="{&quot;index&quot;:null}" stroke="none" stroke-width="0"/><path d="" data-paper-data="{&quot;index&quot;:null}" stroke="none" stroke-width="0"/><path d="" data-paper-data="{&quot;index&quot;:null}" stroke="none" stroke-width="0"/><path d="" data-paper-data="{&quot;index&quot;:null}" stroke="none" stroke-width="0"/><path d="" data-paper-data="{&quot;index&quot;:null}" stroke="none" stroke-width="0"/><path d="" data-paper-data="{&quot;index&quot;:null}" stroke="none" stroke-width="0"/><path d="M235.99674,185.3612l-8.93286,16.26585l8.21542,13.94194c0,0 -4.7574,-1.98988 -8.85504,-4.42115c0.106,-0.12093 0.1985,-0.2792 0.26716,-0.48516c0.29682,-0.89046 -0.2979,-1.33516 -0.6126,-1.50145l0.27988,-0.12874c0,0 1.11803,-0.55902 0.55902,-1.67705c-0.55902,-1.11803 -1.67705,-0.55902 -1.67705,-0.55902l-1.41839,0.74658c-0.21121,0.41574 -0.59994,0.81798 -0.90143,1.22686c-1.24352,-1.01019 -2.11765,-2.01321 -2.28787,-2.91344c-0.21791,-1.15252 3.61563,-14.35811 3.61563,-14.35811z" data-paper-data="{&quot;index&quot;:null}" stroke="none" stroke-width="0"/><path d="M261.47248,205.8564c-0.73635,3.89444 -14.64632,9.71258 -14.64632,9.71258l6.85729,-11.63714c0.06472,0.09007 0.13025,0.17952 0.19655,0.26833l0.8478,1.41622c0,0 0.64312,1.07187 1.71499,0.42875c1.07187,-0.64312 0.42875,-1.71499 0.42875,-1.71499l-0.91691,-1.52495c-0.52456,-0.69595 -1.00339,-1.43335 -1.38986,-2.21447c0,0 -0.10387,-0.20775 -0.31162,-0.39936l-8.14442,-14.83017l10.36444,5.41427c-0.86829,0.71175 -1.47962,2.61457 -1.40214,3.11249c0.32395,2.08202 2.67296,1.01392 3.37556,2.01405c0.65757,0.93604 -1.05989,3.68824 0.09072,4.67508c1.02422,0.87844 1.61326,0.84614 1.92805,0.38968c0.62151,2.42082 1.08709,4.46672 1.00712,4.88963z" data-paper-data="{&quot;index&quot;:null}" stroke="none" stroke-width="0"/><path d="M256.73792,193.83232c-0.50861,-0.32468 0.54562,-2.34138 0.32016,-1.78168c-0.30208,0.74989 -0.17677,1.39164 0.12111,1.98968c-0.15968,-0.05641 -0.30883,-0.12346 -0.44126,-0.208z" data-paper-data="{&quot;index&quot;:null}" stroke="none" stroke-width="0"/><path d="M233.56067,179.76497l-13.36024,5.31932c-0.00562,-0.0431 -0.01207,-0.06891 -0.01207,-0.06891c-0.1703,-0.60772 -0.50422,-1.1863 -0.93802,-1.64472l-1.27107,-0.21967c0,0 -0.75,0 -0.75,0.75c0,0.75 0.75,0.75 0.75,0.75l0.21041,-0.21967c0.26921,0.24529 0.47228,0.59069 0.54346,0.94787c0,0 0.0292,0.1168 0.111,0.2451l-3.10165,1.23491l-1.58379,8.38428c-0.12466,-0.02028 -0.24394,-0.03881 -0.3535,-0.05709c-1.27402,-0.21256 -2.10971,0.64829 -2.42193,1.72284c-0.17022,0.01706 -0.32366,0.09104 -0.44101,0.20262c-0.34334,-0.73943 -0.73495,-1.4654 -1.00703,-2.17157l-0.19012,-0.08704l0.04838,-0.06104l-0.68989,-0.54676c-0.1287,-0.10388 -0.29244,-0.16607 -0.47071,-0.16607c-0.10955,0 -0.21361,0.02349 -0.30743,0.0657c-0.2518,-1.48945 -0.44872,-2.94048 -0.55381,-4.26208c0.20618,-0.0652 0.40707,-0.141 0.5965,-0.23891c3.04502,-1.57385 2.66788,-4.34108 2.20154,-7.18297c1.90419,-1.60851 4.59847,-3.72098 6.75994,-5.38866c0.02734,0.76693 0.18843,1.74621 0.11508,2.45718c-0.17371,0.09975 -0.33621,0.28635 -0.33621,0.63545c0,0.75 0.75,0.75 0.75,0.75l0.945,-0.56809c0.23857,-1.22997 0.01483,-2.14896 0.02239,-3.44277c0,0 0,-0.48995 -0.396,-0.67785c1.4634,-1.12169 2.484,-1.88972 2.484,-1.88972z" data-paper-data="{&quot;index&quot;:null}" stroke="none" stroke-width="0"/><path d="" data-paper-data="{&quot;index&quot;:null}" stroke="none" stroke-width="0"/><path d="" data-paper-data="{&quot;index&quot;:null}" stroke="none" stroke-width="0"/><path d="" data-paper-data="{&quot;index&quot;:null}" stroke="none" stroke-width="0"/><path d="" data-paper-data="{&quot;index&quot;:null}" stroke="none" stroke-width="0"/><path d="M261.19156,175.44774c0,0 1.17571,0.88476 2.81273,2.14193c-0.0062,0.00174 -0.01241,0.00349 -0.01862,0.00522c0,0 -1.2019,0.3434 -0.8585,1.54531c0.3434,1.2019 1.54531,0.8585 1.54531,0.8585c0.58256,-0.16938 1.14254,-0.3694 1.69,-0.58453c1.31621,1.02661 2.70325,2.12386 3.92515,3.12255c-0.08334,0.13173 -0.12129,0.23293 -0.12129,0.23293c-0.5774,1.63634 -1.25687,2.44256 -0.29762,4.18587c0.34434,0.62578 1.19974,0.95443 1.36913,1.64831l1.06162,0.94014c0,0 1.11804,0.55902 1.67706,-0.55902c0.02698,-0.05397 0.05005,-0.10663 0.06953,-0.15798c0.12054,0.228 0.24197,0.45468 0.36676,0.67959c-0.06234,2.73344 -0.67045,6.31435 -1.39453,9.68402l-1.25857,-0.41952c-0.1321,-0.04749 -0.27451,-0.07337 -0.42297,-0.07337c-0.69036,0 -1.25,0.55964 -1.25,1.25c0,0.1847 0.04005,0.36003 0.11196,0.5178l0.27522,0.6422c-0.04062,0.59544 -0.12502,1.16606 -0.22232,1.7248l-0.96515,0.61418l-2.92349,-15.47635l-17.81818,-7.09423z" data-paper-data="{&quot;index&quot;:null}" stroke="none" stroke-width="0"/><path d="M272.90779,199.58239l0.07363,-0.22089c-0.01631,0.07533 -0.03267,0.15054 -0.04908,0.22563z" data-paper-data="{&quot;index&quot;:null}" stroke="none" stroke-width="0"/></g></g></svg>