<svg version="1.1" xmlns="http://www.w3.org/2000/svg" xmlns:xlink="http://www.w3.org/1999/xlink" width="62.75598" height="81.77578" viewBox="0,0,62.75598,81.77578"><g transform="translate(-211.24461,-142.91829)"><g data-paper-data="{&quot;isPaintingLayer&quot;:true}" fill-rule="nonzero" stroke="none" stroke-width="0" stroke-linecap="butt" stroke-linejoin="miter" stroke-miterlimit="10" stroke-dasharray="" stroke-dashoffset="0" style="mix-blend-mode: normal"><path d="M251.90504,180c0,6.5035 -5.33007,11.77564 -11.90504,11.77564c-6.57497,0 -11.90504,-5.27213 -11.90504,-11.77564c0,-6.5035 5.33007,-11.77564 11.90504,-11.77564c6.57497,0 11.90504,5.27213 11.90504,11.77564z" fill="#d1fffa"/><path d="M247.34726,180c0,4.05777 -3.28948,7.34725 -7.34725,7.34725c-4.05777,0 -7.34725,-3.28948 -7.34725,-7.34725c0,-4.05777 3.28948,-7.34725 7.34725,-7.34725c4.05777,0 7.34725,3.28948 7.34725,7.34725z" fill="#66fff0"/><path d="M225.87047,186.35858c0,3.99492 -3.2741,7.23344 -7.31293,7.23344c-4.03882,0 -7.31293,-3.23852 -7.31293,-7.23344c0,-3.99492 3.2741,-7.23344 7.31293,-7.23344c4.03882,0 7.31293,3.23851 7.31293,7.23344z" fill="#d1fffa"/><path d="M223.72429,186.35858c0,2.85351 -2.31323,5.16674 -5.16674,5.16674c-2.85351,0 -5.16674,-2.31323 -5.16674,-5.16674c0,-2.85351 2.31323,-5.16674 5.16674,-5.16674c2.85351,0 5.16674,2.31323 5.16674,5.16674z" fill="#66fff0"/><path d="M270.52173,180.00002c0,3.8818 -3.18139,7.02862 -7.10585,7.02862c-3.92446,0 -7.10585,-3.14682 -7.10585,-7.02862c0,-3.8818 3.1814,-7.02861 7.10585,-7.02861c3.92446,0 7.10585,3.14681 7.10585,7.02861z" fill="#d1fffa"/><path d="M268.43632,180.00002c0,2.77271 -2.24773,5.02044 -5.02044,5.02044c-2.77271,0 -5.02044,-2.24773 -5.02044,-5.02044c0,-2.77271 2.24773,-5.02043 5.02044,-5.02043c2.77271,0 5.02044,2.24773 5.02044,5.02043z" fill="#66fff0"/><path d="M272.43972,167.07448c0,2.77271 -2.27243,5.02044 -5.07561,5.02044c-2.80318,0 -5.0756,-2.24773 -5.0756,-5.02044c0,-2.77271 2.27242,-5.02043 5.0756,-5.02043c2.80318,0 5.07561,2.24772 5.07561,5.02043z" fill="#d1fffa"/><path d="M270.95014,167.07448c0,1.98051 -1.60552,3.58603 -3.58603,3.58603c-1.98051,0 -3.58603,-1.60552 -3.58603,-3.58603c0,-1.98051 1.60552,-3.58602 3.58603,-3.58602c1.98051,0 3.58603,1.60551 3.58603,3.58602z" fill="#66fff0"/><path d="M222.93735,159.53679c0,1.98051 -1.62316,3.58603 -3.62544,3.58603c-2.00227,0 -3.62543,-1.60552 -3.62543,-3.58603c0,-1.98051 1.62316,-3.58603 3.62543,-3.58603c2.00227,0 3.62544,1.60551 3.62544,3.58603z" fill="#d1fffa"/><path d="M221.87336,159.53679c0,1.41465 -1.1468,2.56145 -2.56145,2.56145c-1.41465,0 -2.56145,-1.1468 -2.56145,-2.56145c0,-1.41465 1.1468,-2.56145 2.56145,-2.56145c1.41465,0 2.56145,1.1468 2.56145,2.56145z" fill="#66fff0"/><path d="M255.71679,206.84477c0,2.77271 -2.27243,5.02044 -5.07561,5.02044c-2.80318,0 -5.0756,-2.24773 -5.0756,-5.02044c0,-2.77271 2.27242,-5.02043 5.0756,-5.02043c2.80318,0 5.07561,2.24772 5.07561,5.02043z" fill="#d1fffa"/><path d="M254.22721,206.84477c0,1.98051 -1.60552,3.58603 -3.58603,3.58603c-1.98051,0 -3.58603,-1.60552 -3.58603,-3.58603c0,-1.98051 1.60552,-3.58602 3.58603,-3.58602c1.98051,0 3.58603,1.60551 3.58603,3.58602z" fill="#66fff0"/><path d="M225.45946,205.75135c0,1.41465 -1.1594,2.56145 -2.5896,2.56145c-1.43019,0 -2.5896,-1.1468 -2.5896,-2.56145c0,-1.41465 1.1594,-2.56145 2.5896,-2.56145c1.43019,0 2.5896,1.1468 2.5896,2.56145z" fill="#d1fffa"/><path d="M224.69946,205.75135c0,1.01046 -0.81914,1.82961 -1.82961,1.82961c-1.01046,0 -1.82961,-0.81914 -1.82961,-1.82961c0,-1.01046 0.81914,-1.82961 1.82961,-1.82961c1.01046,0 1.82961,0.81914 1.82961,1.82961z" fill="#66fff0"/><path d="M256.59076,162.33238c0,2.77271 -2.27243,5.02044 -5.07561,5.02044c-2.80318,0 -5.0756,-2.24773 -5.0756,-5.02044c0,-2.77271 2.27242,-5.02043 5.0756,-5.02043c2.80318,0 5.07561,2.24772 5.07561,5.02043z" fill="#d1fffa"/><path d="M255.10118,162.33238c0,1.98051 -1.60552,3.58603 -3.58603,3.58603c-1.98051,0 -3.58603,-1.60552 -3.58603,-3.58603c0,-1.98051 1.60552,-3.58602 3.58603,-3.58602c1.98051,0 3.58603,1.60551 3.58603,3.58602z" fill="#66fff0"/><path d="M239.83532,168.83276c0,2.77271 -2.27243,5.02044 -5.07561,5.02044c-2.80318,0 -5.0756,-2.24773 -5.0756,-5.02044c0,-2.77271 2.27242,-5.02043 5.0756,-5.02043c2.80318,0 5.07561,2.24772 5.07561,5.02043z" fill="#d1fffa"/><path d="M238.34574,168.83276c0,1.98051 -1.60552,3.58603 -3.58603,3.58603c-1.98051,0 -3.58603,-1.60552 -3.58603,-3.58603c0,-1.98051 1.60552,-3.58602 3.58603,-3.58602c1.98051,0 3.58603,1.60551 3.58603,3.58602z" fill="#66fff0"/><path d="M231.23546,222.13262c0,1.41465 -1.1594,2.56145 -2.5896,2.56145c-1.43019,0 -2.5896,-1.1468 -2.5896,-2.56145c0,-1.41465 1.1594,-2.56145 2.5896,-2.56145c1.43019,0 2.5896,1.1468 2.5896,2.56145z" fill="#d1fffa"/><path d="M230.47546,222.13262c0,1.01046 -0.81914,1.82961 -1.82961,1.82961c-1.01046,0 -1.82961,-0.81914 -1.82961,-1.82961c0,-1.01046 0.81914,-1.82961 1.82961,-1.82961c1.01046,0 1.82961,0.81914 1.82961,1.82961z" fill="#66fff0"/><path d="M274.00059,197.38611c0,1.41465 -1.1594,2.56145 -2.5896,2.56145c-1.43019,0 -2.5896,-1.1468 -2.5896,-2.56145c0,-1.41465 1.1594,-2.56145 2.5896,-2.56145c1.43019,0 2.5896,1.1468 2.5896,2.56145z" fill="#d1fffa"/><path d="M273.24059,197.38611c0,1.01046 -0.81914,1.82961 -1.82961,1.82961c-1.01046,0 -1.82961,-0.81914 -1.82961,-1.82961c0,-1.01046 0.81914,-1.82961 1.82961,-1.82961c1.01046,0 1.82961,0.81914 1.82961,1.82961z" fill="#66fff0"/><path d="M249.51275,145.47975c0,1.41465 -1.1594,2.56145 -2.5896,2.56145c-1.43019,0 -2.5896,-1.1468 -2.5896,-2.56145c0,-1.41465 1.1594,-2.56145 2.5896,-2.56145c1.43019,0 2.5896,1.1468 2.5896,2.56145z" fill="#d1fffa"/><path d="M248.75275,145.47975c0,1.01046 -0.81914,1.82961 -1.82961,1.82961c-1.01046,0 -1.82961,-0.81914 -1.82961,-1.82961c0,-1.01046 0.81914,-1.82961 1.82961,-1.82961c1.01046,0 1.82961,0.81914 1.82961,1.82961z" fill="#66fff0"/><path d="M235.49133,150.8516c0,0.56921 -0.46651,1.03065 -1.04198,1.03065c-0.57547,0 -1.04197,-0.46144 -1.04197,-1.03065c0,-0.56921 0.46651,-1.03065 1.04197,-1.03065c0.57547,0 1.04198,0.46144 1.04198,1.03065z" fill="#d1fffa"/><path d="M249.25955,152.25979c0,0.56921 -0.46651,1.03065 -1.04198,1.03065c-0.57547,0 -1.04197,-0.46144 -1.04197,-1.03065c0,-0.56921 0.46651,-1.03064 1.04197,-1.03064c0.57547,0 1.04198,0.46143 1.04198,1.03064z" fill="#d1fffa"/><path d="M254.21277,172.45111c0,0.56921 -0.46651,1.03065 -1.04198,1.03065c-0.57547,0 -1.04197,-0.46144 -1.04197,-1.03065c0,-0.56921 0.46651,-1.03064 1.04197,-1.03064c0.57547,0 1.04198,0.46143 1.04198,1.03064z" fill="#d1fffa"/><path d="M253.02828,217.47304c0,0.56921 -0.46651,1.03065 -1.04198,1.03065c-0.57547,0 -1.04197,-0.46144 -1.04197,-1.03065c0,-0.56921 0.4665,-1.03064 1.04197,-1.03064c0.57546,0 1.04198,0.46143 1.04198,1.03064z" fill="#d1fffa"/><path d="M232.60455,202.21198c0,0.56921 -0.46651,1.03065 -1.04198,1.03065c-0.57547,0 -1.04197,-0.46144 -1.04197,-1.03065c0,-0.56921 0.46651,-1.03064 1.04197,-1.03064c0.57547,0 1.04198,0.46143 1.04198,1.03064z" fill="#d1fffa"/></g></g></svg>