<svg version="1.1" xmlns="http://www.w3.org/2000/svg" xmlns:xlink="http://www.w3.org/1999/xlink" width="34.41803" height="37.41014" viewBox="0,0,34.41803,37.41014"><g transform="translate(-222.07823,-50.6336)"><g data-paper-data="{&quot;isPaintingLayer&quot;:true}" fill="#f5ffa1" fill-rule="nonzero" stroke-linecap="butt" stroke-linejoin="miter" stroke-miterlimit="10" stroke-dasharray="" stroke-dashoffset="0" style="mix-blend-mode: normal"><g><path d="M244.70616,70.22863c0,3.29656 -5.70561,9.30025 -5.70561,9.30025c0,0 -5.70561,-6.00369 -5.70561,-9.30025c0,-3.29656 2.55449,-5.96895 5.70561,-5.96895c3.15113,0 5.70561,2.67239 5.70561,5.96895z" stroke="#ff7373" stroke-width="4"/><path d="M241.96995,68.14855l-0.45219,-13.74667l3.79842,-3.76828c0,0 2.11489,11.18539 2.49467,13.19405c0.1124,0.59444 0.21849,1.15555 0.21849,1.15555z" stroke="none" stroke-width="0"/><path d="M229.45927,64.9832c0,0 0.10609,-0.5611 0.21848,-1.15554c0.37979,-2.00866 2.49467,-13.19406 2.49467,-13.19406l3.79843,3.76828l-0.45219,13.74667z" data-paper-data="{&quot;index&quot;:null}" stroke="none" stroke-width="0"/><path d="M236.67949,72.46332l-4.60734,8.38952l4.23731,7.1909c0,0 -7.17442,-3.00085 -7.55421,-5.0095c-0.11239,-0.59444 1.86486,-7.40555 1.86486,-7.40555z" data-paper-data="{&quot;index&quot;:null}" stroke="none" stroke-width="0"/><path d="M247.9544,75.62868c0,0 1.97725,6.81112 1.86486,7.40555c-0.37979,2.00866 -7.55421,5.00951 -7.55421,5.00951l4.23731,-7.1909l-4.60734,-8.38952z" data-paper-data="{&quot;index&quot;:null}" stroke="none" stroke-width="0"/><path d="M235.42302,69.57693l-9.19017,3.65902l-2.08851,11.05613c0,0 -2.95115,-9.84396 -1.79937,-12.15465c0.34086,-0.68382 6.55516,-5.3603 6.55516,-5.3603z" data-paper-data="{&quot;index&quot;:null}" stroke="none" stroke-width="0"/><path d="M249.67436,67.35021c0,0 6.21431,4.67648 6.55516,5.3603c1.15178,2.31069 -1.79937,12.15465 -1.79937,12.15465l-2.08851,-11.05612l-9.19017,-3.65902z" data-paper-data="{&quot;index&quot;:null}" stroke="none" stroke-width="0"/></g></g></g></svg>