<svg version="1.1" xmlns="http://www.w3.org/2000/svg" xmlns:xlink="http://www.w3.org/1999/xlink" width="55.17827" height="72.53194" viewBox="0,0,55.17827,72.53194"><g transform="translate(-213.64785,-143.03706)"><g data-paper-data="{&quot;isPaintingLayer&quot;:true}" fill="#f5ffa1" fill-rule="nonzero" stroke-linecap="butt" stroke-linejoin="miter" stroke-miterlimit="10" stroke-dasharray="" stroke-dashoffset="0" style="mix-blend-mode: normal"><path d="M251.55913,181.02852c-0.00001,2.1338 -1.23297,4.85261 -2.87564,7.52798l-0.35205,-0.22383c-0.05461,-0.00858 -0.10932,-0.01667 -0.1641,-0.0243c-0.00557,-1.09981 -0.89885,-1.98966 -1.99997,-1.98966c-1.069,0 -1.94211,0.83868 -1.99724,1.89395c-0.11168,0.00975 -0.22994,0.02951 -0.35513,0.06081c-0.04413,0.01103 -0.08683,0.02293 -0.12814,0.03563c-0.1727,-0.05702 -0.35729,-0.08788 -0.5491,-0.08788c-0.9665,0 -1.75,0.7835 -1.75,1.75c0,0.87472 0.64177,1.59955 1.48014,1.72932c0.07487,0.29949 0.14974,0.59897 0.22461,0.89846l-0.05225,1.22807c0,0 0,0.13413 0.03713,0.32812c-0.01662,0.04281 -0.03259,0.08539 -0.04792,0.12775c-0.12284,-0.13139 -0.21881,-0.20337 -0.21881,-0.20337l-2.15167,-1.17625c-0.64264,0 -1.28528,0 -1.92792,0c0,0 -0.40646,0 -0.8276,0.19589c0.04675,-0.12195 0.08827,-0.24823 0.12305,-0.38001l0.62503,-1.25007l-0.36774,-0.18387l0.13545,-0.75997c-0.25365,0.11772 -0.48499,0.23481 -0.69537,0.3516l-0.27349,-0.27349l-0.65217,0.65217l0.13291,0.13291c-0.9405,0.72209 -1.15395,1.45263 -0.96005,2.27479c-0.01042,0.0178 -0.02087,0.03557 -0.03133,0.05334c-0.08596,-0.11004 -0.17224,-0.22113 -0.25876,-0.33319c0.11408,-0.98812 0.15353,-2.02673 0.15353,-3.14069c0,0 0,-1.25 -1.25,-1.25c-1.04592,0 -1.21668,0.87515 -1.24456,1.16092c-0.82333,-1.22206 -1.59391,-2.4806 -2.22941,-3.71276c0.00731,-0.19312 0.01499,-0.3882 0.02841,-0.58172c0.69508,-0.11664 1.37618,-0.21627 2.09704,-0.21397h0.17241c0,0 0.51664,0 0.69233,-0.4288c0.2012,0.11073 0.53684,0.19994 0.87249,-0.1357c0.30057,-0.30057 0.26044,-0.60113 0.16925,-0.80515c0.00651,-0.00363 0.01303,-0.00728 0.01956,-0.01093c0.13882,-0.0094 0.72052,-0.08821 0.72052,-0.74873c0,-0.75 -0.75,-0.75 -0.75,-0.75l-0.55829,0.10688c-0.21975,0.13563 -0.42685,0.39277 -0.64799,0.53924c-0.21564,-0.08012 -0.43034,-0.14748 -0.64475,-0.20404c-0.06172,-0.34598 0.06717,-0.88134 -0.20485,-1.08448c-0.44054,-0.32899 -1.08093,-0.51049 -1.60974,-0.3599c-0.60332,0.17181 -1.02559,0.6722 -1.45718,1.162c-0.10176,0.00117 -0.2041,0.00255 -0.30707,0.00395c-0.17277,-0.66986 -0.26799,-1.30803 -0.26799,-1.90102c0,-4.95063 2.97142,-9.17523 7.15025,-10.82835c0.2414,0.08966 0.49747,0.14914 0.76363,0.17385c-0.05998,0.41457 -0.10601,0.81965 -0.13406,1.21741c-0.30131,0.35013 -0.48344,0.80575 -0.48344,1.30392c0,0.58425 0.25052,1.10999 0.65,1.47565c0.01516,0.06944 0.03127,0.13881 0.04835,0.20811c-0.88096,-0.17582 -1.91049,-0.13821 -2.6192,-0.03055c-0.82029,0.1246 -2.08701,-0.16822 -2.41746,0.59284c-0.41665,0.9596 0.56536,2.01447 0.84804,3.0217l1.39982,0.85253c0,0 0.01155,0.00385 0.03274,0.00965c-0.10963,0.22871 -0.17103,0.48493 -0.17103,0.75549c0,0.9665 0.7835,1.75 1.75,1.75c0.9665,0 1.75,-0.7835 1.75,-1.75c0,-0.26488 -0.05885,-0.51602 -0.16419,-0.74105c0.19584,-0.16615 0.30084,-0.34113 0.30084,-0.34113c0.19165,-0.31941 0.3833,-0.63883 0.57494,-0.95824l0.12178,0.04059l0.03693,0.39607c0,0 0.32781,0 0.64768,-0.16787l0.28349,0.0945c0.1321,0.04749 0.27451,0.07337 0.42297,0.07337c0.32872,0 0.6278,-0.12688 0.85094,-0.33435c0.26303,0.78572 1.18027,0.78572 1.18027,0.78572c0.28592,-0.10824 0.65338,0.32119 0.66988,0.62646l0.74085,1.24925c0,0 0.64312,1.07187 1.71499,0.42875c1.07187,-0.64312 0.42875,-1.71499 0.42875,-1.71499h-0.00001l-0.6133,-1.00765c-0.28538,-0.61529 -0.30253,-1.45402 -0.85613,-1.84587c-0.5709,-0.4041 -1.39002,-0.1573 -2.08503,-0.23595c0,0 -0.5068,0 -0.875,0.3227c-0.04215,-0.1023 -0.09749,-0.19778 -0.16389,-0.28432c0.22801,-0.29552 0.36364,-0.66596 0.36364,-1.06808c0,-0.29967 -0.07532,-0.58175 -0.20807,-0.82834c0.02768,0.0031 0.05582,0.00469 0.08433,0.00469c0.41421,0 0.75,-0.33579 0.75,-0.75v-1.08696h-0.14905c0.09428,-0.69345 0.13227,-1.37882 0.14561,-2.07739l0.00117,-0.00097c0,0 0.33046,-0.33046 0.2088,-0.73053c3.35385,0.61353 6.18822,2.80743 7.776,5.82103c-0.37467,-0.02647 -0.88231,0.08119 -1.17664,0.74343c-0.50767,1.14226 0.63459,1.64994 0.63459,1.64994c0.63124,0.27894 1.16968,0.55777 1.67707,0.81294c0.15245,0.76564 0.23258,1.55902 0.23258,2.37199zM241.29914,182.96324l-0.00049,0.31704c-0.22569,-0.37615 -0.45138,-0.7523 -0.67707,-1.12845c0,0 -0.64312,-1.07187 -1.71499,-0.42875c-1.07187,0.64312 -0.42875,1.71499 -0.42875,1.71499c0.22569,0.37615 0.45138,0.7523 0.67707,1.12845l1.35365,0.76842c0,0 1.18585,0.39528 1.58114,-0.79057c0.39528,-1.18585 -0.79057,-1.58114 -0.79057,-1.58114z" stroke="#ff7373" stroke-width="1.5"/><path d="M246.48964,191.81431l-0.00161,-0.06419c-0.08663,-0.34652 -0.17326,-0.69304 -0.25989,-1.03956c0.34703,-0.02071 0.69563,-0.02036 1.04116,0.00589c-0.25691,0.3709 -0.51759,0.73746 -0.77966,1.09786z" stroke="#ff7373" stroke-width="1.5"/><path d="M236.12478,177.17169c0.00506,-0.00018 0.01012,-0.00035 0.01517,-0.00053c-0.00247,0.00411 -0.00493,0.00822 -0.0074,0.01233c-0.00257,-0.00396 -0.00516,-0.00789 -0.00777,-0.0118z" stroke="#ff7373" stroke-width="1.5"/><path d="M241.44829,198.02144c-0.02123,-0.30366 -0.08765,-0.59486 -0.19258,-0.86693c0.25018,0.08546 0.56466,0.14113 0.8958,0.07171c-0.25912,0.29682 -0.49541,0.56334 -0.70321,0.79522z" stroke="#ff7373" stroke-width="1.5"/><path d="M246.25408,176.99559l-0.23387,-7.10978c0.24706,0.052 0.42259,0.052 0.42259,0.052l0.81741,-1.06934c0.36094,-0.04512 0.72188,-0.09023 1.08282,-0.13535l0.6857,0.01352c0,0 1.75,0 1.75,-1.75c0,-0.19444 -0.0216,-0.36728 -0.06001,-0.52092c0.52837,0.34947 1.12745,0.64939 1.73316,0.98101c-0.3312,0.72178 -0.93274,1.69755 -1.18176,2.39579c-0.14942,-0.02297 -0.29894,-0.04522 -0.44857,-0.06669c0,0 -1.73241,-0.24749 -1.9799,1.48492c-0.24749,1.73241 1.48492,1.9799 1.48492,1.9799c0.26406,0.03754 0.52775,0.07775 0.79108,0.12033c0.00436,0.15201 0.02946,0.30394 0.07952,0.45547c0.06052,0.18321 0.16665,0.32143 0.30559,0.42727z" stroke="none" stroke-width="0"/><path d="M249.7199,159.73154l-0.25288,0.02239c-0.5482,-0.12874 -1.0698,-0.33609 -1.58228,-0.57205c0.89874,0.04148 1.34811,-0.85726 1.34811,-0.85726l-0.61214,-2.40836c-0.78633,-0.3064 -1.8466,-0.2132 -2.37802,-0.86878c-0.48511,-0.59844 1.05432,-1.0031 1.81995,-1.41092h0.43164c0.09187,0.19671 0.17691,0.31576 0.17691,0.31576c0.89192,0.91275 1.45271,2.37384 2.67576,2.73823c0.53463,0.15929 0.93652,-0.40565 1.3505,-0.90462l0.25214,0.44124c0.33953,0.62058 0.99849,1.04143 1.75575,1.04143c0.03724,0 0.07424,-0.00102 0.11098,-0.00303c-0.10376,0.31787 -0.21911,0.63535 -0.34581,0.95219c-0.16142,0.45318 -0.23348,0.81373 -0.23442,1.10731c-0.84334,0.12606 -1.49389,0.66967 -1.99416,1.37909l-0.32816,-0.13585c-0.45657,0.01195 -0.96835,-0.12401 -1.44726,-0.17191c-0.05449,-0.66486 -0.7466,-0.66486 -0.7466,-0.66486z" stroke="none" stroke-width="0"/><path d="M249.02873,165.24664l-1.11982,0.01351c-0.04414,0.00552 -0.08827,0.01104 -0.13241,0.01655c-0.04935,-0.08637 -0.0987,-0.17272 -0.14805,-0.25909c0,0 -0.64418,-1.12733 -1.80279,-1.0463l-0.13954,-4.24214c1.09764,0.48263 2.14329,1.12264 3.30226,1.44881c-0.17251,0.55052 -0.06017,1.27259 -0.07696,1.85933c-0.02822,0.98589 0.19139,1.70694 0.57125,2.2742c-0.25938,-0.06487 -0.45394,-0.06487 -0.45394,-0.06487z" stroke="none" stroke-width="0"/><path d="M251.24234,162.78785c-0.04679,0.14028 -0.09015,0.27889 -0.13033,0.41449c-0.18906,-0.3984 -0.23214,-0.6607 0.13033,-0.41449z" stroke="none" stroke-width="0"/><path d="M251.79589,147.68692c0,0.00757 -0.00001,0.01513 -0.00001,0.0227c-0.00881,-0.00065 -0.01765,-0.00122 -0.0265,-0.00171c0.00883,-0.007 0.01767,-0.014 0.02651,-0.02099z" stroke="none" stroke-width="0"/><path d="M245.63307,158.11658l-0.00593,-0.18017c0.29389,0.1373 0.59131,0.26046 0.87666,0.37344c0.04661,0.09939 0.10886,0.19753 0.1905,0.29159c-0.34972,-0.17193 -0.70157,-0.33895 -1.06123,-0.48486z" stroke="none" stroke-width="0"/><path d="M249.48895,146.26413c0.05341,-0.01162 0.10692,-0.02357 0.16052,-0.03586c-0.25516,0.21484 -0.50501,0.43481 -0.74858,0.66035c-0.00715,-0.0067 -0.0143,-0.01331 -0.02145,-0.01982z" stroke="none" stroke-width="0"/><path d="" stroke="none" stroke-width="0"/><path d="" stroke="none" stroke-width="0"/><path d="M253.67668,168.52888c0.04878,0.06754 0.10852,0.12663 0.17662,0.17466c-0.33572,0.35406 -0.65213,0.72037 -0.92948,1.11522c-0.12092,0.03433 -0.24376,0.06476 -0.36877,0.0915c-0.3899,0.08338 0.69544,-0.46123 0.87208,-0.81868c0.07303,-0.14779 0.16062,-0.34265 0.24955,-0.56269z" stroke="none" stroke-width="0"/><path d="M254.41297,161.03222c-0.13925,0.13617 -0.22569,0.32613 -0.22569,0.53628c0,0.06861 0.00921,0.13508 0.02647,0.19822l0.00052,0.00209l-0.12678,-0.04226l-0.00051,0.00152c-0.21661,-0.07207 -0.41704,-0.12002 -0.60166,-0.14621c0.38824,-0.51437 0.68542,-0.65491 0.92764,-0.54964z" stroke="none" stroke-width="0"/><path d="M253.56332,163.13098l0.0448,-0.01527c-0.08525,0.14638 -0.14232,0.33641 -0.17858,0.55486c-0.30801,-0.66158 -0.4435,-1.13577 0.13379,-0.53959z" stroke="none" stroke-width="0"/><path d="" stroke="none" stroke-width="0"/><path d="M255.74904,158.94174c0.03064,0.16204 0.06116,0.32348 0.09155,0.48421c-0.15177,-0.14792 -0.20475,-0.30757 -0.09155,-0.48421z" stroke="none" stroke-width="0"/><path d="M252.74186,143.03706c0,0 0.00155,0.00819 0.00459,0.02428c-0.00522,-0.00446 -0.01045,-0.00887 -0.0157,-0.01326z" stroke="none" stroke-width="0"/><path d="M257.08439,171.33796l-0.23803,0.12434c-0.03199,-0.03339 -0.06416,-0.06472 -0.09597,-0.094c-0.09208,-0.21057 -0.16327,-0.4528 -0.16658,-0.64558c0.03674,-0.03878 0.07331,-0.07761 0.10971,-0.11648c0.15119,0.24783 0.29929,0.50831 0.39086,0.73172z" stroke="none" stroke-width="0"/><path d="M257.62845,169.98018c0.06249,-0.02325 0.12758,-0.04571 0.19488,-0.06756c0.00643,0.03401 0.01274,0.06739 0.01892,0.10008c-0.16962,-0.00723 -0.31286,0.00434 -0.2138,-0.03252z" stroke="none" stroke-width="0"/><path d="M223.74091,161.8115l1.44137,-0.13197c0.6011,-0.43699 1.58697,-0.60001 1.80331,-1.31098c0.44628,-1.46669 -0.94941,-2.95351 -2.26245,-3.92294c0.02647,-0.14002 0.05296,-0.28009 0.07944,-0.42015c1.16337,-0.31022 2.32661,-1.00096 3.70228,-2.40806c0.60042,-0.61413 0.7755,-1.48389 0.92442,-2.36936c0.23754,0.26284 0.42865,0.51657 0.54654,0.75484l0.19947,0.92062c0,0 0.30317,1.21268 1.51585,0.90951c0.10013,-0.02503 0.18992,-0.05626 0.27041,-0.0925c0.05109,0.18662 0.13733,0.35873 0.25115,0.50875c-0.24926,0.49201 -0.43228,1.01748 -0.56893,1.57167c-0.44208,-0.1961 -1.04692,-0.25204 -1.71758,0.2845c-1.36652,1.09322 -0.2733,2.45974 -0.2733,2.45974c0.07862,0.09798 0.15783,0.1955 0.23761,0.29257c-0.05743,-0.02545 -1.60499,-0.69373 -2.31565,0.86972c-0.72415,1.59314 0.86899,2.3173 0.86899,2.3173l1.47606,0.67094l-0.52979,0.84767c-0.152,0.23457 -0.24026,0.51428 -0.24026,0.81461c0,0.13673 0.01829,0.26918 0.05257,0.39505c-0.27044,-0.38555 -0.74288,-0.72813 -1.56269,-0.64615c-0.8037,0.08037 -1.19936,0.49459 -1.39243,0.91737c-0.82558,-0.4801 -1.72107,-0.74616 -2.27508,-0.09301c-0.63278,0.746 -0.30895,1.56827 -0.09493,2.32781c-0.30314,0.19641 -0.58628,0.39615 -0.8442,0.61055c-0.02611,0.00791 -0.05014,0.01798 -0.07156,0.03065c-0.1276,-0.06592 -0.25293,-0.1274 -0.37316,-0.18377c0.25236,-1.33467 0.65491,-3.46375 1.12047,-5.92604c0.02067,0.00109 0.0321,0.00109 0.0321,0.00109z" data-paper-data="{&quot;index&quot;:null}" stroke="none" stroke-width="0"/><path d="M232.96447,168.40531c0.00541,0.00011 0.01085,0.00017 0.0163,0.00017c0.26446,0 0.49695,-0.13688 0.63049,-0.34365l0.42833,-0.6425l-0.32297,-0.21531c0.19028,-0.39712 0.32341,-0.82582 0.39294,-1.2561l-0.28425,8.64141c-0.61959,0.00899 -1.21991,0.06234 -1.43255,0.55206c-0.16304,0.37549 -0.11191,0.76557 0.02767,1.16167l-4.60293,-2.40452c-0.0234,-0.24204 -0.09786,-0.50736 -0.24216,-0.79597c-0.89443,-1.78885 -2.68328,-0.89443 -2.68328,-0.89443c-0.05245,0.02683 -0.10444,0.05373 -0.15599,0.08069l-1.50168,-0.78446c0.0427,0.00755 0.08666,0.01149 0.13153,0.01149c0.25076,0 0.47279,-0.12307 0.60896,-0.3121c0.0734,0.07672 0.1457,0.14807 0.21691,0.21249c0.02022,0.18238 0.13163,0.68486 0.74552,0.68486c0.75,0 0.75,-0.75 0.75,-0.75l-0.09016,-0.2877c0.01259,-0.02858 0.02513,-0.05813 0.0376,-0.08867c0.84079,-2.05807 0.21165,-2.44916 -0.76242,-2.23521c0.46825,-0.38163 0.93028,-0.76551 1.3603,-1.09612l0.06558,0.6558c0,0 0.17413,1.74132 1.91545,1.56718c0.64421,-0.06442 1.02626,-0.34334 1.25195,-0.66923c0.36669,0.45187 0.92651,0.74066 1.5538,0.74066l0.00001,0c0.94359,0 1.73455,-0.65346 1.94505,-1.53252z" data-paper-data="{&quot;index&quot;:null}" stroke="none" stroke-width="0"/><path d="M230.64984,165.87796c0.30146,0 0.58216,-0.08893 0.81728,-0.24199c-0.01388,0.11338 -0.01184,0.23123 0.00804,0.354c-0.14639,-0.03412 -0.29896,-0.05215 -0.45574,-0.05215c-0.5372,0 -1.02492,0.21179 -1.38424,0.55643l-0.08002,-0.80021c0,0 -0.01717,-0.17172 -0.09465,-0.40191c0.27425,0.35626 0.70498,0.58583 1.18934,0.58583z" data-paper-data="{&quot;index&quot;:null}" stroke="none" stroke-width="0"/><path d="M223.70877,161.8104c0.00001,0 0.00001,0 0.00002,0v0z" data-paper-data="{&quot;index&quot;:null}" stroke="none" stroke-width="0"/><path d="M232.39154,151.54679c0.09465,0.08599 0.19658,0.17163 0.3066,0.25736c0.03321,0.03358 0.06696,0.0665 0.10123,0.0988l-0.03457,0.02765l0.03366,0.04207c-0.08906,0.03969 -0.17354,0.0878 -0.25242,0.14333z" data-paper-data="{&quot;index&quot;:null}" stroke="none" stroke-width="0"/><path d="M225.0328,166.01186c-0.02975,-0.30329 0.33654,-0.08239 0.7421,0.11279c-0.21038,0.13105 -0.41729,0.25592 -0.6197,0.37687c-0.05728,-0.14337 -0.10389,-0.30096 -0.1224,-0.48967z" data-paper-data="{&quot;index&quot;:null}" stroke="none" stroke-width="0"/><path d="" data-paper-data="{&quot;index&quot;:null}" stroke="none" stroke-width="0"/><path d="" data-paper-data="{&quot;index&quot;:null}" stroke="none" stroke-width="0"/><path d="" data-paper-data="{&quot;index&quot;:null}" stroke="none" stroke-width="0"/><path d="M224.15258,159.46328c0.02072,-0.10956 0.04149,-0.21946 0.06233,-0.32966c0.27469,0.24952 0.34102,0.41074 -0.06233,0.32966z" data-paper-data="{&quot;index&quot;:null}" stroke="none" stroke-width="0"/><path d="M235.99679,185.3612l-2.0842,3.79512c-0.50193,0.29428 -0.56802,0.89662 -0.57673,1.05016l-2.29682,4.18228c-0.16295,-0.50754 -0.57966,-1.15653 -1.64537,-1.15653c-1.75,0 -1.75,1.75 -1.75,1.75l0.32596,1.91993c0.26949,0.13944 0.82588,0.1154 0.80845,0.41832c-0.01698,0.29512 -0.56503,0.17403 -0.84754,0.26105c0,0 -0.42934,0.42934 -0.52933,1.03512c-0.74912,-0.10262 -1.49663,-0.1806 -2.23243,-0.22251c0.47046,-0.517 0.81271,-1.26923 0.81271,-2.36371c0,-1.99135 -1.133,-2.84971 -2.10974,-3.2197c0.23195,-0.81301 0.37692,-1.31239 0.37692,-1.31239z" data-paper-data="{&quot;index&quot;:null}" stroke="none" stroke-width="0"/><path d="M227.06392,201.62706l0.70521,1.19677c-0.17731,0.24625 -0.25918,0.45091 -0.25918,0.45091l-0.5215,2.93215c0.36722,0.82625 0.73445,1.65251 1.10167,2.47876c0,0 0.81228,1.82762 2.6399,1.01535c0.34187,-0.15194 0.59138,-0.33942 0.7711,-0.54381l0.97945,1.66216c-0.24698,-0.1333 -0.52965,-0.20897 -0.83,-0.20897c-0.9665,0 -1.75,0.7835 -1.75,1.75c0,0.2824 0.06689,0.54918 0.1857,0.78536c-1.18524,-0.60094 -2.45234,-1.28018 -3.66195,-1.99788c0.106,-0.12093 0.1985,-0.2792 0.26716,-0.48516c0.29682,-0.89046 -0.2979,-1.33516 -0.6126,-1.50145l0.27988,-0.12874c0,0 1.11803,-0.55902 0.55902,-1.67705c-0.19068,-0.38136 -0.4464,-0.5676 -0.7006,-0.64745c0.15365,-0.13552 0.3017,-0.30902 0.43906,-0.52881c1.06,-1.696 -0.636,-2.75599 -0.636,-2.75599c-1.41217,-0.8784 -2.87655,-1.68651 -4.40342,-2.34563l-0.00492,-0.00049c0.01698,-0.06634 0.03409,-0.13298 0.0513,-0.19989c0.34765,0.13017 0.68513,0.08196 0.68513,0.08196c1.52149,-0.23534 3.25641,-0.12205 5.00565,0.13971z" data-paper-data="{&quot;index&quot;:null}" stroke="none" stroke-width="0"/><path d="M235.27934,215.569c0,0 -1.38068,-0.5775 -3.2951,-1.4904c0.80056,-0.15456 1.40673,-0.85472 1.4162,-1.69817z" data-paper-data="{&quot;index&quot;:null}" stroke="none" stroke-width="0"/><path d="M223.82231,207.543c-0.21121,0.41574 -0.59994,0.81798 -0.90143,1.22686c-1.24352,-1.01019 -2.11765,-2.01321 -2.28787,-2.91344c-0.02446,-0.12938 0.00213,-0.41064 0.06863,-0.80806c1.1041,0.51406 2.16784,1.11914 3.19858,1.76682c0,0 0.31662,0.19789 0.76177,0.28586z" data-paper-data="{&quot;index&quot;:null}" stroke="none" stroke-width="0"/><path d="M253.6835,203.93184c0.06472,0.09007 0.13025,0.17952 0.19655,0.26833l0.8478,1.41622c0,0 0.64312,1.07187 1.71499,0.42875c1.07187,-0.64312 0.42875,-1.71499 0.42875,-1.71499l-0.91691,-1.52495c-0.22439,-0.2977 -0.4404,-0.60298 -0.6444,-0.91603c0.82611,0.0511 1.64651,0.01411 2.43157,-0.12333c0.1323,0.29255 0.27382,0.56839 0.42907,0.82089c0,0 0.12209,0.19534 0.34713,0.38508c0.63162,0.9283 1.48015,1.93922 1.49582,3.05299c0.00734,0.52121 -0.42067,0.97428 -0.95538,1.37101c-0.54188,-0.34429 -1.18485,-0.5437 -1.8744,-0.5437c-1.933,0 -3.5,1.567 -3.5,3.5c0,0.02532 0.00027,0.05057 0.0008,0.07576c-1.39474,0.40524 -2.74036,0.87471 -4.05268,1.53701c-0.14603,0.02376 -0.29876,0.04879 -0.45973,0.07558l0.00014,0.12404l-0.0239,-0.11949l-0.08997,0.01799l-0.04688,-0.15628l-0.0336,0.01008z" data-paper-data="{&quot;index&quot;:null}" stroke="none" stroke-width="0"/><path d="M251.7923,195.71034c0.25255,-0.37251 0.50238,-0.75678 0.75162,-1.15475c0,0 0.9275,-1.484 -0.5565,-2.4115c-0.9481,-0.59256 -1.66905,-0.20083 -2.06611,0.15938l-0.82535,-1.50288c0.04643,-0.03714 0.09299,-0.07879 0.13955,-0.12535c0.88388,-0.88388 0,-1.76777 0,-1.76777l-0.90408,-0.5748c-0.05461,-0.00858 -0.10932,-0.01667 -0.1641,-0.0243c-0.0047,-0.92658 -0.6395,-1.70415 -1.49782,-1.92609l-0.56075,-1.02107l8.89602,4.64718c-1.59865,0.74109 -2.6743,2.14931 -1.87953,4.39673c0.11915,0.33691 0.45321,0.49316 0.81325,0.63506c-0.08497,0.22197 -0.13152,0.46296 -0.13152,0.71481c0,1.10043 0.88874,1.99329 1.9876,1.99996c0.24265,0.56162 0.51251,1.12113 0.79658,1.68c-0.95623,0.06418 -1.96591,-0.05035 -2.91207,-0.28897z" data-paper-data="{&quot;index&quot;:null}" stroke="none" stroke-width="0"/><path d="M258.48843,195.96976c0.01394,0.02577 0.02644,0.05266 0.03757,0.0806c-0.01244,-0.0269 -0.02496,-0.05376 -0.03757,-0.0806z" data-paper-data="{&quot;index&quot;:null}" stroke="none" stroke-width="0"/><path d="M246.82621,215.56898l0.21718,-0.36856c0.10963,0.05537 0.22698,0.09769 0.35,0.1249c-0.36194,0.15782 -0.56718,0.24366 -0.56718,0.24366z" data-paper-data="{&quot;index&quot;:null}" stroke="none" stroke-width="0"/><path d="" data-paper-data="{&quot;index&quot;:null}" stroke="none" stroke-width="0"/><path d="M233.56072,179.76497l-7.00778,2.79012c-0.0903,-0.24079 -0.18059,-0.48159 -0.27089,-0.72239c0,0 -0.70225,-1.87266 -2.57491,-1.17041c-1.87266,0.70225 -1.17041,2.57491 -1.17041,2.57491c0.09973,0.26594 0.19945,0.53187 0.29918,0.79781l-2.63543,1.04928c-0.00562,-0.0431 -0.01207,-0.06891 -0.01207,-0.06891c-0.1703,-0.60772 -0.50422,-1.1863 -0.93802,-1.64472l-1.20625,-0.20847c-0.44304,-0.8083 -1.08279,-1.52772 -2.00017,-2.11618c0,0 -0.14336,-0.08601 -0.35667,-0.1427c0.57077,-1.05162 1.07894,-2.01116 1.39569,-2.80681l-0.01144,-0.12675l0.04253,0.00945l0.19858,-0.89363c0.00567,-0.00438 0.01134,-0.00875 0.01701,-0.01312c0.01852,0.51957 0.09843,1.13661 0.12524,1.70165c-0.1717,0.28285 -0.34616,0.69176 -0.31824,1.15834c-0.01797,0.06817 -0.02813,0.14532 -0.02813,0.23264c0,0.34063 0.1547,0.52655 0.32358,0.62803c0.08694,0.13315 0.19577,0.26751 0.33013,0.40187c1.41421,1.41421 2.82843,0 2.82843,0l0.63144,-0.63632c1.5979,-1.7986 2.6057,-3.10255 4.40394,-4.19945l0.91498,0.39273c-0.06026,0.22778 -0.10891,0.45939 -0.14596,0.69298c-0.41304,0.46852 -0.24532,1.13939 -0.24532,1.13939l0.15673,0.02476c0.00135,0.25251 0.01608,0.50381 0.04421,0.7516l0.95511,-0.5937l1.51977,0.24014c-0.07822,-0.41037 -0.07841,-0.85151 0.00151,-1.27396z" data-paper-data="{&quot;index&quot;:null}" stroke="none" stroke-width="0"/><path d="M215.74253,186.8592l-0.25812,1.36643c-0.70278,-0.48061 -1.30984,-0.53474 -1.83656,-0.34541c0.19013,-1.54952 0.63142,-3.05825 1.19371,-4.64414c1.13004,0.64871 1.56531,1.89635 1.70029,3.30487z" data-paper-data="{&quot;index&quot;:null}" stroke="none" stroke-width="0"/><path d="M218.84419,185.62429l-0.00721,0.00287c-0.001,-0.00644 -0.00201,-0.01287 -0.00302,-0.0193c0.00332,0.00545 0.00673,0.01093 0.01023,0.01643z" data-paper-data="{&quot;index&quot;:null}" stroke="none" stroke-width="0"/><path d="M218.82591,176.90422c0,0 0,-0.48995 -0.396,-0.67785c1.4634,-1.12169 2.484,-1.88972 2.484,-1.88972l0.51692,0.22187c-0.88893,0.78803 -1.69901,1.66374 -2.60214,2.67342c-0.00236,-0.10673 -0.00343,-0.21582 -0.00278,-0.32772z" data-paper-data="{&quot;index&quot;:null}" stroke="none" stroke-width="0"/><path d="" data-paper-data="{&quot;index&quot;:null}" stroke="none" stroke-width="0"/><path d="" data-paper-data="{&quot;index&quot;:null}" stroke="none" stroke-width="0"/><path d="" data-paper-data="{&quot;index&quot;:null}" stroke="none" stroke-width="0"/><path d="M248.54483,180.8761l3.92369,-1.68416c0.76879,0.31767 1.57681,0.53516 2.65382,0.5649l1.0104,-0.35766c0,0 1.11803,-0.55902 0.55902,-1.67705c-0.05201,-0.10402 -0.10886,-0.19352 -0.16919,-0.2703l0.98403,-0.42238c0.02479,0.47141 0.19,0.82936 0.19,0.82936c0.4726,1.01838 0.78017,2.1625 1.09164,3.30031c-0.2342,0.309 -0.30123,0.67488 -0.32041,0.85901c-1.23936,-0.25644 -2.41007,-0.29835 -3.01816,-0.1057c-0.54873,0.17384 -0.79752,0.71431 -0.99354,1.31722z" data-paper-data="{&quot;index&quot;:null}" stroke="none" stroke-width="0"/><path d="" data-paper-data="{&quot;index&quot;:null}" stroke="none" stroke-width="0"/><path d="" data-paper-data="{&quot;index&quot;:null}" stroke="none" stroke-width="0"/><path d="M268.8207,194.00752c0.00187,0.00285 0.00367,0.00569 0.00542,0.00854c-0.00034,0.00363 -0.00067,0.00725 -0.00101,0.01088c-0.00147,-0.00647 -0.00294,-0.01294 -0.00441,-0.01942z" data-paper-data="{&quot;index&quot;:null}" stroke="none" stroke-width="0"/><path d="" data-paper-data="{&quot;index&quot;:null}" stroke="none" stroke-width="0"/><path d="" data-paper-data="{&quot;index&quot;:null}" stroke="none" stroke-width="0"/><path d="" data-paper-data="{&quot;index&quot;:null}" stroke="none" stroke-width="0"/></g></g></svg>