<svg version="1.1" xmlns="http://www.w3.org/2000/svg" xmlns:xlink="http://www.w3.org/1999/xlink" width="52.15093" height="72.53192" viewBox="0,0,52.15093,72.53192"><g transform="translate(-216.67519,-143.03706)"><g data-paper-data="{&quot;isPaintingLayer&quot;:true}" fill="#f5ffa1" fill-rule="nonzero" stroke-linecap="butt" stroke-linejoin="miter" stroke-miterlimit="10" stroke-dasharray="" stroke-dashoffset="0" style="mix-blend-mode: normal"><path d="M251.05998,178.85409h0.30427c0.03139,0.17275 0.05912,0.34686 0.08308,0.52224c-0.61025,0.30011 -1.06591,0.64467 -1.21525,1.08418c-0.2325,0.05901 -0.40312,0.17205 -0.52832,0.30618c0.03471,-0.59614 0.0449,-1.19679 0.02136,-1.80259c0.44218,-0.07381 0.88911,-0.11457 1.33486,-0.11001z" stroke="#ff7373" stroke-width="1.5"/><path d="M246.89234,177.72579c-0.02383,0.09985 -0.03466,0.21 -0.02802,0.33127c-0.0606,0.01475 -0.1213,0.02937 -0.18208,0.04387c0.02111,-0.12588 0.04382,-0.2595 0.06762,-0.39967c0.04902,0.01063 0.0965,0.01874 0.14249,0.02453z" stroke="#ff7373" stroke-width="1.5"/><path d="M247.25678,179.77329c-0.05568,-0.0868 -0.1086,-0.17437 -0.15884,-0.26265c0.05176,-0.01189 0.10346,-0.02386 0.15508,-0.03591c0.00223,0.09966 0.00347,0.19917 0.00376,0.29856z" stroke="#ff7373" stroke-width="1.5"/><path d="" stroke="#ff7373" stroke-width="1.5"/><path d="M248.68352,188.5565l-0.08655,-0.05503c0.05334,-0.42903 0.11606,-0.85906 0.18417,-1.29036c0.10076,0.07888 0.32478,0.22096 0.58964,0.17902c-0.21875,0.38842 -0.44866,0.77785 -0.68721,1.16636z" stroke="#ff7373" stroke-width="1.5"/><path d="M250.09488,185.62181c0.02793,0.07476 0.05659,0.14921 0.08596,0.22336c-0.0775,0.16062 -0.15757,0.32187 -0.24001,0.48361c-0.06841,-0.13973 -0.1561,-0.22742 -0.1561,-0.22742l-0.49144,-0.48268c0.2664,-0.00017 0.53347,0.0015 0.80159,0.00314z" stroke="#ff7373" stroke-width="1.5"/><path d="M246.1698,186.31871c-0.05323,-0.09318 -0.10708,-0.18525 -0.16155,-0.27605c0.00641,-0.06829 0.01261,-0.13606 0.0186,-0.20333c0.03055,-0.00302 0.04768,-0.00587 0.04768,-0.00587c0.12879,-0.02191 0.25738,-0.04164 0.38581,-0.0594c-0.03822,0.1841 -0.07662,0.36824 -0.11492,0.55246c-0.05787,-0.0051 -0.11645,-0.00774 -0.17563,-0.00781z" stroke="#ff7373" stroke-width="1.5"/><path d="" stroke="#ff7373" stroke-width="1.5"/><path d="M241.21919,176.16678c0.02741,-0.03552 0.05348,-0.07212 0.07814,-0.10973c0.3805,-0.24813 0.76225,-0.49251 1.14723,-0.73036c0.46185,-0.2492 0.91653,-0.51664 1.35972,-0.79919c0.0007,-0.00039 0.00139,-0.00077 0.00209,-0.00116c-0.33887,0.85811 -0.99088,1.30765 -1.77264,1.62671c-0.13633,0.02523 -0.31663,0.07628 -0.48799,0.17963c-0.06212,0.02087 -0.12475,0.04131 -0.18784,0.06145c-0.03819,-0.08092 -0.08481,-0.15707 -0.13872,-0.22734z" stroke="#ff7373" stroke-width="1.5"/><path d="M242.20565,170.3607l0.00117,-0.00097c0,0 0.33046,-0.33046 0.2088,-0.73053c0.44126,0.08072 0.87354,0.1888 1.29516,0.3225c-0.02454,0.2109 0.01343,0.40892 0.0611,0.56046c-0.55576,0.29995 -1.0875,0.68776 -1.61005,0.90964c0.02381,-0.35215 0.03702,-0.70491 0.04383,-1.0611z" stroke="#ff7373" stroke-width="1.5"/><path d="M229.44084,180.64204c0.03377,0.02456 0.06728,0.04875 0.1005,0.07254c-0.03458,0.01571 -0.06914,0.03146 -0.10367,0.04727c0.00086,-0.03999 0.00192,-0.07992 0.00317,-0.11981z" stroke="#ff7373" stroke-width="1.5"/><path d="M230.8217,176.49931c0.08773,-0.06221 0.17535,-0.12611 0.2628,-0.19157l-0.35052,0.78866l0.01287,0.00572l-0.03602,0.04995c-0.02876,0.09051 -0.05747,0.18142 -0.08593,0.27264c-0.00278,-0.00334 -0.00555,-0.00669 -0.00833,-0.01003c0.07733,-0.31445 0.14563,-0.61869 0.20513,-0.91536z" stroke="#ff7373" stroke-width="1.5"/><path d="M236.58503,170.20018c0.2414,0.08966 0.49747,0.14914 0.76363,0.17385c-0.05998,0.41457 -0.10601,0.81965 -0.13406,1.21741c-0.19187,0.22296 -0.33541,0.48869 -0.41437,0.78094c-0.27057,0.00982 -0.54174,0.01602 -0.81316,0.01934c-0.06481,-0.51171 -0.04756,-1.07916 0.07574,-1.76715c0.04964,-0.09027 0.09643,-0.17857 0.14023,-0.26467c0.12615,-0.05564 0.2535,-0.1089 0.38199,-0.15973z" stroke="#ff7373" stroke-width="1.5"/><path d="" stroke="#ff7373" stroke-width="1.5"/><path d="" stroke="#ff7373" stroke-width="1.5"/><path d="" stroke="#ff7373" stroke-width="1.5"/><path d="M240.23145,185.70335c-0.13687,-0.24591 -0.26779,-0.50039 -0.39849,-0.75198l0.2159,0.12256c0.1228,0.15933 0.24567,0.31858 0.36873,0.47761c-0.06399,0.05034 -0.126,0.10094 -0.18614,0.1518z" stroke="#ff7373" stroke-width="1.5"/><path d="" stroke="#ff7373" stroke-width="1.5"/><path d="M241.9909,181.86724c-0.00655,0.12143 -0.01254,0.24287 -0.01776,0.36416c-0.1136,-0.04154 -0.22735,-0.08268 -0.34126,-0.12341c0.12033,-0.07953 0.24003,-0.15976 0.35902,-0.24075z" stroke="#ff7373" stroke-width="1.5"/><path d="M233.1662,189.33609c0.39522,-0.74819 0.56836,-1.60751 0.60354,-2.49914c0.02551,0.17894 0.05628,0.35847 0.09023,0.536c-0.01651,0.12998 -0.0345,0.25993 -0.05401,0.38984c-0.08966,0.59717 -0.28733,1.19522 -0.55391,1.78779c-0.02895,-0.07143 -0.05757,-0.14293 -0.08585,-0.21449z" stroke="#ff7373" stroke-width="1.5"/><path d="M242.23696,187.83563l0.1574,0.55091c-0.32258,0.1516 -0.59134,0.39881 -0.76976,0.70511c-0.13531,-0.28476 -0.27093,-0.55957 -0.39932,-0.81414c0.20211,-0.3193 0.44046,-0.58717 0.73548,-0.77655c0.09167,0.11198 0.18372,0.22355 0.2762,0.33467z" stroke="#ff7373" stroke-width="1.5"/><path d="" stroke="#ff7373" stroke-width="1.5"/><path d="" stroke="#ff7373" stroke-width="1.5"/><path d="" stroke="#ff7373" stroke-width="1.5"/><path d="" stroke="#ff7373" stroke-width="1.5"/><path d="" stroke="#ff7373" stroke-width="1.5"/><path d="" stroke="#ff7373" stroke-width="1.5"/><path d="" stroke="#ff7373" stroke-width="1.5"/><path d="M241.4483,198.02144c-0.02123,-0.30366 -0.08765,-0.59486 -0.19258,-0.86693c0.25018,0.08546 0.56466,0.14113 0.8958,0.07171c-0.25912,0.29682 -0.49541,0.56334 -0.70321,0.79522z" stroke="#ff7373" stroke-width="1.5"/><path d="M249.75215,173.06226c0.25516,0.36103 0.52296,0.71527 0.8054,1.06167c0.11816,0.14492 0.23444,0.29243 0.35064,0.44042l-0.09714,0.05074l-1.08601,-0.543c-0.43555,-0.44795 -0.81965,-0.95591 -1.17525,-1.49165c0.14477,-0.09146 0.30534,-0.24984 0.32977,-0.5089c0.14824,0.5286 0.53582,0.8266 0.87259,0.99072z" stroke="none" stroke-width="0"/><path d="M248.8177,171.62384c0.00019,0.01478 0.00054,0.02944 0.00105,0.04396c-0.22503,-0.59601 -0.8747,-0.43359 -0.8747,-0.43359c-0.06362,0.01591 -0.127,0.03216 -0.19014,0.04876c-0.00416,-0.00716 -0.00832,-0.01433 -0.01248,-0.0215c0.1828,-0.20186 0.35686,-0.40522 0.52135,-0.6095c0.17853,0.3274 0.3631,0.65158 0.55493,0.97186z" stroke="none" stroke-width="0"/><path d="M250.09074,168.41963c0.29476,0.39079 0.5485,0.84552 0.77374,1.37236c-0.01428,-0.00206 -0.02856,-0.00412 -0.04285,-0.00617c0,0 -0.08906,-0.01272 -0.22969,-0.01221c-0.23728,-0.41046 -0.4631,-0.82756 -0.68012,-1.24976c0.06007,-0.0304 0.12008,-0.06495 0.17892,-0.10422z" stroke="none" stroke-width="0"/><path d="M248.62075,155.91626c-0.78633,-0.3064 -1.8466,-0.2132 -2.37802,-0.86878c-0.38457,-0.47441 0.50318,-0.82704 1.26911,-1.15601c-0.07584,0.13011 -0.13471,0.29012 -0.16748,0.4867c-0.2055,1.23299 1.02749,1.43849 1.02749,1.43849c0.63445,0.06691 1.15418,0.36039 1.59759,0.78926c-0.17455,-0.08062 -0.35033,-0.15804 -0.52727,-0.23241c-0.2518,-0.26383 -0.53796,-0.34436 -0.79283,-0.34477z" stroke="none" stroke-width="0"/><path d="" stroke="none" stroke-width="0"/><path d="M252.69749,155.78593l0.25214,0.44124c0.00044,0.00081 0.00088,0.00161 0.00132,0.00242c-0.09273,-0.01077 -0.18819,-0.01771 -0.28603,-0.02115c-0.04527,-0.07251 -0.09114,-0.14428 -0.13771,-0.21523c0.05678,-0.06897 0.1134,-0.13874 0.17026,-0.20727z" stroke="none" stroke-width="0"/><path d="M254.70537,157.2686c0.03724,0 0.07424,-0.00102 0.11098,-0.00303c-0.0358,0.10968 -0.07299,0.21931 -0.11154,0.32889c-0.05034,-0.11555 -0.10614,-0.22685 -0.16837,-0.3329c0.05569,0.00466 0.11204,0.00703 0.16893,0.00703z" stroke="none" stroke-width="0"/><path d="" stroke="none" stroke-width="0"/><path d="" stroke="none" stroke-width="0"/><path d="M251.7959,147.68692c0,0.00757 -0.00001,0.01513 -0.00001,0.0227c-0.00881,-0.00065 -0.01765,-0.00122 -0.0265,-0.00171c0.00883,-0.007 0.01767,-0.014 0.02651,-0.02099z" stroke="none" stroke-width="0"/><path d="" stroke="none" stroke-width="0"/><path d="M249.48896,146.26413c0.05341,-0.01162 0.10692,-0.02357 0.16052,-0.03586c-0.25516,0.21484 -0.50501,0.43481 -0.74858,0.66035c-0.00715,-0.0067 -0.0143,-0.01331 -0.02145,-0.01982z" stroke="none" stroke-width="0"/><path d="" stroke="none" stroke-width="0"/><path d="" stroke="none" stroke-width="0"/><path d="" stroke="none" stroke-width="0"/><path d="" stroke="none" stroke-width="0"/><path d="" stroke="none" stroke-width="0"/><path d="" stroke="none" stroke-width="0"/><path d="M255.74906,158.94174c0.03064,0.16204 0.06116,0.32348 0.09155,0.48421c-0.15177,-0.14792 -0.20475,-0.30757 -0.09155,-0.48421z" stroke="none" stroke-width="0"/><path d="M252.7419,143.03706c0,0 0.00155,0.00819 0.00459,0.02428c-0.00522,-0.00446 -0.01045,-0.00887 -0.0157,-0.01326z" stroke="none" stroke-width="0"/><path d="" stroke="none" stroke-width="0"/><path d="" stroke="none" stroke-width="0"/><path d="M223.74092,161.8115l0.42177,-0.03862c-0.35973,1.01765 -0.69778,2.04516 -1.02313,3.06777c-0.00177,0.00292 -0.00354,0.00583 -0.00531,0.00874c0.17407,-0.92064 0.36813,-1.94704 0.57459,-3.03895c0.02067,0.00109 0.0321,0.00109 0.0321,0.00109z" data-paper-data="{&quot;index&quot;:null}" stroke="none" stroke-width="0"/><path d="" data-paper-data="{&quot;index&quot;:null}" stroke="none" stroke-width="0"/><path d="M224.72319,156.44561c0.02647,-0.14002 0.05296,-0.28009 0.07944,-0.42015c0.09151,-0.0244 0.18302,-0.05116 0.27463,-0.08043c0.2583,0.22795 0.5182,0.4546 0.78716,0.6613c-0.01869,0.07081 -0.03734,0.14199 -0.05596,0.21354c-0.05582,0.04793 -0.11133,0.09612 -0.16653,0.14455c0,0 -0.05095,0.04529 -0.12724,0.12898c-0.25658,-0.23415 -0.52573,-0.45157 -0.79149,-0.64778z" data-paper-data="{&quot;index&quot;:null}" stroke="none" stroke-width="0"/><path d="" data-paper-data="{&quot;index&quot;:null}" stroke="none" stroke-width="0"/><path d="" data-paper-data="{&quot;index&quot;:null}" stroke="none" stroke-width="0"/><path d="" data-paper-data="{&quot;index&quot;:null}" stroke="none" stroke-width="0"/><path d="" data-paper-data="{&quot;index&quot;:null}" stroke="none" stroke-width="0"/><path d="" data-paper-data="{&quot;index&quot;:null}" stroke="none" stroke-width="0"/><path d="M234.03963,167.41932l-0.32297,-0.21531c0.19028,-0.39712 0.32341,-0.82582 0.39294,-1.2561l-0.05703,1.73392c-0.06173,-0.00577 -0.12189,-0.00944 -0.18053,-0.01112z" data-paper-data="{&quot;index&quot;:null}" stroke="none" stroke-width="0"/><path d="" data-paper-data="{&quot;index&quot;:null}" stroke="none" stroke-width="0"/><path d="" data-paper-data="{&quot;index&quot;:null}" stroke="none" stroke-width="0"/><path d="M228.21376,169.86638c0.15836,-0.01584 0.30087,-0.04463 0.42912,-0.0839c-0.35614,0.43251 -0.25644,1.03069 -0.25644,1.03069c0.029,0.16973 0.05567,0.33511 0.07999,0.49677c-0.09951,0.28941 -0.1988,0.57824 -0.29702,0.8672c-0.05135,0.03499 -0.10317,0.06999 -0.15547,0.10499c-0.0004,0.00027 -0.0008,0.00053 -0.0012,0.0008c-0.35296,0.00951 -0.70992,0.02644 -1.04011,0.05472c-0.03517,-0.02717 -0.07069,-0.05246 -0.10649,-0.07596c0.12537,-0.12823 0.23791,-0.26173 0.33458,-0.40202c0.39381,-0.57151 0.47536,-1.28533 0.57578,-1.99056c0.13349,0.0131 0.27889,0.0131 0.43725,-0.00273z" data-paper-data="{&quot;index&quot;:null}" stroke="none" stroke-width="0"/><path d="" data-paper-data="{&quot;index&quot;:null}" stroke="none" stroke-width="0"/><path d="" data-paper-data="{&quot;index&quot;:null}" stroke="none" stroke-width="0"/><path d="" data-paper-data="{&quot;index&quot;:null}" stroke="none" stroke-width="0"/><path d="" data-paper-data="{&quot;index&quot;:null}" stroke="none" stroke-width="0"/><path d="M223.70884,161.8104c0.00001,0 0.00001,0 0.00002,0v0z" data-paper-data="{&quot;index&quot;:null}" stroke="none" stroke-width="0"/><path d="M232.79853,151.97267c-0.0087,0.00388 -0.01735,0.00783 -0.02596,0.01187c0.0018,-0.01253 0.00358,-0.02508 0.00533,-0.03764z" data-paper-data="{&quot;index&quot;:null}" stroke="none" stroke-width="0"/><path d="M232.79944,151.90295l-0.01738,0.0139c0.00123,-0.00896 0.00244,-0.01792 0.00365,-0.0269c0.00457,0.00434 0.00914,0.00868 0.01373,0.013z" data-paper-data="{&quot;index&quot;:null}" stroke="none" stroke-width="0"/><path d="" data-paper-data="{&quot;index&quot;:null}" stroke="none" stroke-width="0"/><path d="" data-paper-data="{&quot;index&quot;:null}" stroke="none" stroke-width="0"/><path d="" data-paper-data="{&quot;index&quot;:null}" stroke="none" stroke-width="0"/><path d="" data-paper-data="{&quot;index&quot;:null}" stroke="none" stroke-width="0"/><path d="M224.15263,159.46328c0.02072,-0.10956 0.04149,-0.21946 0.06233,-0.32966c0.11998,0.10899 0.20021,0.20113 0.21891,0.26359c-0.04179,0.02667 -0.08189,0.05577 -0.12009,0.08708c-0.04195,-0.00099 -0.09529,-0.00777 -0.16115,-0.02101z" data-paper-data="{&quot;index&quot;:null}" stroke="none" stroke-width="0"/><path d="M233.1662,189.33609c0.39523,-0.74821 0.56837,-1.60755 0.60354,-2.4992c0.02551,0.17895 0.05628,0.35849 0.09023,0.53603c-0.01651,0.12999 -0.03451,0.25995 -0.05401,0.38988c-0.08966,0.59717 -0.28733,1.19522 -0.55391,1.78779c-0.02895,-0.07143 -0.05757,-0.14293 -0.08585,-0.21449z" data-paper-data="{&quot;index&quot;:null}" stroke="none" stroke-width="0"/><path d="M231.31663,191.64553c0.04881,-0.16179 0.09193,-0.31928 0.12901,-0.47181c0.0028,-0.01154 0.00565,-0.0231 0.00855,-0.03469c0.12603,0.28442 0.25344,0.56672 0.38287,0.84668c-0.01848,0.02725 -0.03699,0.05447 -0.05552,0.08166c-0.14276,-0.1503 -0.29831,-0.29042 -0.4649,-0.42184z" data-paper-data="{&quot;index&quot;:null}" stroke="none" stroke-width="0"/><path d="" data-paper-data="{&quot;index&quot;:null}" stroke="none" stroke-width="0"/><path d="M227.47042,193.75664c0.02037,0.06782 0.02209,0.12645 0.00821,0.17748c-0.02611,0.04201 -0.05247,0.08408 -0.07907,0.12619c-0.10093,0.09428 -0.27979,0.15122 -0.49,0.19514c0.0282,-0.52729 0.04175,-1.0537 0.03559,-1.5783c0.23448,0.37995 0.42509,0.74587 0.52528,1.07948z" data-paper-data="{&quot;index&quot;:null}" stroke="none" stroke-width="0"/><path d="M228.18875,197.54501c0.11643,-0.15776 0.23125,-0.31759 0.34423,-0.47905c0.02319,0.00775 0.04541,0.01604 0.06637,0.02506c-0.02145,0.12654 -0.02767,0.26785 -0.00186,0.41365c-0.1139,0.03096 -0.26587,0.03208 -0.40874,0.04034z" data-paper-data="{&quot;index&quot;:null}" stroke="none" stroke-width="0"/><path d="" data-paper-data="{&quot;index&quot;:null}" stroke="none" stroke-width="0"/><path d="" data-paper-data="{&quot;index&quot;:null}" stroke="none" stroke-width="0"/><path d="" data-paper-data="{&quot;index&quot;:null}" stroke="none" stroke-width="0"/><path d="" data-paper-data="{&quot;index&quot;:null}" stroke="none" stroke-width="0"/><path d="" data-paper-data="{&quot;index&quot;:null}" stroke="none" stroke-width="0"/><path d="" data-paper-data="{&quot;index&quot;:null}" stroke="none" stroke-width="0"/><path d="" data-paper-data="{&quot;index&quot;:null}" stroke="none" stroke-width="0"/><path d="" data-paper-data="{&quot;index&quot;:null}" stroke="none" stroke-width="0"/><path d="" data-paper-data="{&quot;index&quot;:null}" stroke="none" stroke-width="0"/><path d="" data-paper-data="{&quot;index&quot;:null}" stroke="none" stroke-width="0"/><path d="" data-paper-data="{&quot;index&quot;:null}" stroke="none" stroke-width="0"/><path d="" data-paper-data="{&quot;index&quot;:null}" stroke="none" stroke-width="0"/><path d="M248.59697,188.50146c0.05334,-0.42902 0.11605,-0.85905 0.18416,-1.29035c0.14079,0.11022 0.52222,0.34382 0.91948,0.02643l0.9475,0.49496c-0.2969,0.03677 -0.6215,0.14518 -0.9715,0.35518c-0.32393,0.19436 -0.56084,0.41047 -0.73083,0.63556z" data-paper-data="{&quot;index&quot;:null}" stroke="none" stroke-width="0"/><path d="M246.34463,185.79061c0.03859,-0.00569 0.07715,-0.0112 0.11571,-0.01653c-0.01141,0.05494 -0.02283,0.10989 -0.03426,0.16484z" data-paper-data="{&quot;index&quot;:null}" stroke="none" stroke-width="0"/><path d="" data-paper-data="{&quot;index&quot;:null}" stroke="none" stroke-width="0"/><path d="" data-paper-data="{&quot;index&quot;:null}" stroke="none" stroke-width="0"/><path d="" data-paper-data="{&quot;index&quot;:null}" stroke="none" stroke-width="0"/><path d="M246.82625,215.56898l0.21718,-0.36856c0.10963,0.05537 0.22698,0.09769 0.35,0.1249c-0.36194,0.15782 -0.56718,0.24366 -0.56718,0.24366z" data-paper-data="{&quot;index&quot;:null}" stroke="none" stroke-width="0"/><path d="" data-paper-data="{&quot;index&quot;:null}" stroke="none" stroke-width="0"/><path d="" data-paper-data="{&quot;index&quot;:null}" stroke="none" stroke-width="0"/><path d="M223.35051,178.1943c0.02966,0.23794 0.05657,0.47972 0.08046,0.72383c-0.1608,-0.12306 -0.31602,-0.22952 -0.46599,-0.32047c0.12839,-0.13781 0.2565,-0.27218 0.38553,-0.40336z" data-paper-data="{&quot;index&quot;:null}" stroke="none" stroke-width="0"/><path d="M217.13671,179.93244c-0.01797,0.06817 -0.02813,0.14532 -0.02813,0.23264c0,0.34063 0.1547,0.52655 0.32358,0.62803c0.07946,0.12169 0.17721,0.2444 0.29602,0.36719c-0.15682,0.29808 -0.31769,0.59333 -0.48486,0.88441c-0.17249,-0.18735 -0.36137,-0.3671 -0.56813,-0.53849c0.0407,-1.01927 0.11915,-2.0139 0.24206,-3.01649c0.00391,-0.00883 0.0078,-0.01764 0.01167,-0.02643c0.07752,0.30721 0.1666,0.61643 0.26233,0.92529c-0.04307,0.16823 -0.06607,0.35112 -0.05454,0.54384z" data-paper-data="{&quot;index&quot;:null}" stroke="none" stroke-width="0"/><path d="M228.99604,180.30788c0.18763,0.14548 0.37042,0.28142 0.5453,0.4067c-0.20399,0.09267 -0.40719,0.1869 -0.60933,0.28319c0.0245,-0.23003 0.04574,-0.46011 0.06403,-0.6899z" data-paper-data="{&quot;index&quot;:null}" stroke="none" stroke-width="0"/><path d="M226.14983,178.58431l0.15673,0.02476c0.00135,0.25251 0.01608,0.50381 0.04421,0.7516l0.2101,-0.1306c-0.01635,0.34805 -0.0383,0.69837 -0.06774,1.04923c-0.07426,-0.33162 -0.14713,-0.66354 -0.21792,-0.99593c-0.14763,-0.72572 -0.29772,-1.45096 -0.45042,-2.17565c0.05032,0.04905 0.10155,0.09532 0.15363,0.13887c0.09053,0.13086 0.18537,0.26047 0.28387,0.38859c-0.23957,0.44073 -0.11247,0.94913 -0.11247,0.94913z" data-paper-data="{&quot;index&quot;:null}" stroke="none" stroke-width="0"/><path d="" data-paper-data="{&quot;index&quot;:null}" stroke="none" stroke-width="0"/><path d="" data-paper-data="{&quot;index&quot;:null}" stroke="none" stroke-width="0"/><path d="" data-paper-data="{&quot;index&quot;:null}" stroke="none" stroke-width="0"/><path d="" data-paper-data="{&quot;index&quot;:null}" stroke="none" stroke-width="0"/><path d="" data-paper-data="{&quot;index&quot;:null}" stroke="none" stroke-width="0"/><path d="" data-paper-data="{&quot;index&quot;:null}" stroke="none" stroke-width="0"/><path d="" data-paper-data="{&quot;index&quot;:null}" stroke="none" stroke-width="0"/><path d="" data-paper-data="{&quot;index&quot;:null}" stroke="none" stroke-width="0"/><path d="M250.48422,180.04366c-0.11539,0.12931 -0.20142,0.26758 -0.25213,0.4168c-0.2325,0.05899 -0.40311,0.17202 -0.52832,0.30613c0.00768,-0.13185 0.01415,-0.26393 0.01933,-0.39623z" data-paper-data="{&quot;index&quot;:null}" stroke="none" stroke-width="0"/><path d="M258.78826,181.15912c-0.2342,0.309 -0.30123,0.67488 -0.32041,0.85901c-0.32184,-0.06659 -0.63905,-0.11872 -0.94298,-0.15603c0.44517,-0.44409 0.7822,-0.9596 1.03671,-1.52416c0.07691,0.27286 0.15168,0.5472 0.22668,0.82118z" data-paper-data="{&quot;index&quot;:null}" stroke="none" stroke-width="0"/><path d="" data-paper-data="{&quot;index&quot;:null}" stroke="none" stroke-width="0"/><path d="" data-paper-data="{&quot;index&quot;:null}" stroke="none" stroke-width="0"/><path d="M268.8207,194.00752c0.00187,0.00285 0.00367,0.00569 0.00542,0.00854c-0.00034,0.00363 -0.00067,0.00725 -0.00101,0.01088c-0.00147,-0.00647 -0.00294,-0.01294 -0.00441,-0.01942z" data-paper-data="{&quot;index&quot;:null}" stroke="none" stroke-width="0"/><path d="" data-paper-data="{&quot;index&quot;:null}" stroke="none" stroke-width="0"/><path d="" data-paper-data="{&quot;index&quot;:null}" stroke="none" stroke-width="0"/><path d="" data-paper-data="{&quot;index&quot;:null}" stroke="none" stroke-width="0"/></g></g></svg>