<svg version="1.1" xmlns="http://www.w3.org/2000/svg" xmlns:xlink="http://www.w3.org/1999/xlink" width="64.62889" height="64.15051" viewBox="0,0,64.62889,64.15051"><g transform="translate(-207.77071,-148.14543)"><g data-paper-data="{&quot;isPaintingLayer&quot;:true}" fill-rule="nonzero" stroke-linejoin="miter" stroke-miterlimit="10" stroke-dasharray="" stroke-dashoffset="0" style="mix-blend-mode: normal"><path d="M263.5515,180c0,12.86575 -10.54435,23.2955 -23.5515,23.2955c-13.00713,0 -23.5515,-10.42974 -23.5515,-23.2955c0,-12.86575 10.54435,-23.2955 23.5515,-23.2955c13.00713,0 23.5515,10.42974 23.5515,23.2955z" fill="#d1fffa" stroke="none" stroke-width="0" stroke-linecap="butt"/><path d="M256.63965,180c0,9.18982 -7.44982,16.63965 -16.63965,16.63965c-9.18982,0 -16.63965,-7.44982 -16.63965,-16.63965c0,-9.18982 7.44982,-16.63965 16.63965,-16.63965c9.18982,0 16.63965,7.44982 16.63965,16.63965z" fill="#66fff0" stroke="none" stroke-width="0" stroke-linecap="butt"/><path d="M235.57501,159.30316l4.78377,-10.5243l4.06621,10.04592z" fill="#d1fffa" stroke="#d1fffa" stroke-width="0.5" stroke-linecap="round"/><path d="M244.42499,201.61658l-4.0662,10.04593l-4.78378,-10.5243z" data-paper-data="{&quot;index&quot;:null}" fill="#d1fffa" stroke="#d1fffa" stroke-width="0.5" stroke-linecap="round"/><path d="M218.45007,184.42499l-10.04593,-4.0662l10.5243,-4.78378z" data-paper-data="{&quot;index&quot;:null}" fill="#d1fffa" stroke="#d1fffa" stroke-width="0.5" stroke-linecap="round"/><path d="M261.24186,175.57501l10.5243,4.78378l-10.04592,4.0662z" data-paper-data="{&quot;index&quot;:null}" fill="#d1fffa" stroke="#d1fffa" stroke-width="0.5" stroke-linecap="round"/><path d="M228.34974,197.82357l-9.97878,4.2283l4.05916,-10.82444z" data-paper-data="{&quot;index&quot;:null}" fill="#d1fffa" stroke="#d1fffa" stroke-width="0.5" stroke-linecap="round"/><path d="M251.65026,162.17643l9.97878,-4.2283l-4.05916,10.82444z" data-paper-data="{&quot;index&quot;:null}" fill="#d1fffa" stroke="#d1fffa" stroke-width="0.5" stroke-linecap="round"/><path d="M222.17643,168.34974l-4.2283,-9.97878l10.82444,4.05916z" data-paper-data="{&quot;index&quot;:null}" fill="#d1fffa" stroke="#d1fffa" stroke-width="0.5" stroke-linecap="round"/><path d="M257.82357,191.55195l4.2283,9.97878l-10.82444,-4.05916z" data-paper-data="{&quot;index&quot;:null}" fill="#d1fffa" stroke="#d1fffa" stroke-width="0.5" stroke-linecap="round"/></g></g></svg>