<svg version="1.1" xmlns="http://www.w3.org/2000/svg" xmlns:xlink="http://www.w3.org/1999/xlink" width="55.17826" height="72.53193" viewBox="0,0,55.17826,72.53193"><g transform="translate(-213.64781,-143.03706)"><g data-paper-data="{&quot;isPaintingLayer&quot;:true}" fill="#f5ffa1" fill-rule="nonzero" stroke-linecap="butt" stroke-linejoin="miter" stroke-miterlimit="10" stroke-dasharray="" stroke-dashoffset="0" style="mix-blend-mode: normal"><path d="M251.55909,181.02851c0,3.19385 -2.76229,7.69832 -5.52622,11.40604c-0.0796,-0.09215 -0.18051,-0.18167 -0.30709,-0.26605c-1.04006,-0.69338 -1.73343,0.34668 -1.73343,0.34668l-0.46659,0.70243c-0.69423,1.23502 -0.89504,2.26838 -0.72205,3.25266c-1.3504,1.58345 -2.30684,2.58984 -2.30684,2.58984c0,0 -0.85351,-0.8981 -2.08638,-2.33236c0.01576,-0.02548 0.02364,-0.04124 0.02364,-0.04124l0.17061,-1.18622c-0.37554,-0.54465 -0.82988,-1.0017 -1.18489,-1.45072c0.24403,-0.40654 0.4742,-0.82862 0.60664,-1.33038l0.62503,-1.25007l-0.36774,-0.18387l0.13545,-0.75997c-0.25365,0.11772 -0.48499,0.23481 -0.69537,0.3516l-0.27349,-0.27349l-0.65217,0.65217l0.13291,0.13291c-0.9405,0.72209 -1.15395,1.45263 -0.96005,2.27479c-0.01042,0.0178 -0.02087,0.03557 -0.03133,0.05334c-1.70836,-2.187 -3.54471,-4.78523 -4.8292,-7.27572c0.00731,-0.19312 0.01499,-0.3882 0.02841,-0.58172c0.69508,-0.11664 1.37618,-0.21627 2.09704,-0.21397h0.17241c0,0 0.51664,0 0.69233,-0.4288c0.2012,0.11073 0.53684,0.19994 0.87249,-0.1357c0.30057,-0.30057 0.26044,-0.60113 0.16925,-0.80515c0.00651,-0.00363 0.01303,-0.00728 0.01956,-0.01093c0.13882,-0.0094 0.72052,-0.08821 0.72052,-0.74873c0,-0.75 -0.75,-0.75 -0.75,-0.75l-0.55829,0.10688c-0.21975,0.13563 -0.42685,0.39277 -0.64799,0.53924c-0.21564,-0.08012 -0.43034,-0.14748 -0.64475,-0.20404c-0.06172,-0.34598 0.06717,-0.88134 -0.20485,-1.08448c-0.44054,-0.32899 -1.08093,-0.51049 -1.60974,-0.3599c-0.60332,0.17181 -1.02559,0.6722 -1.45718,1.162c-0.10176,0.00117 -0.2041,0.00255 -0.30707,0.00395c-0.17277,-0.66986 -0.26799,-1.30803 -0.26799,-1.90102c0,-5.5768 3.77062,-10.23228 8.79027,-11.32847l0.07619,0.05714c0.26033,0.47137 0.51866,0.93181 0.79093,1.30559l0.11375,0.45501c0.07579,0.33399 0.37449,0.58332 0.73141,0.58332c0.04399,0 0.0871,-0.00379 0.12901,-0.01105c0.01233,0.3752 0.06525,0.76634 0.33391,1.19882l0.42833,0.6425c0.13354,0.20678 0.36603,0.34365 0.63049,0.34365c0.41421,0 0.75,-0.33579 0.75,-0.75v-1.08696h-0.14905c0.09428,-0.69345 0.13227,-1.37882 0.14561,-2.07739l0.00117,-0.00097c0,0 0.33046,-0.33046 0.2088,-0.73053c5.195,0.95034 9.1436,5.69244 9.1436,11.39934z" stroke="#ff7373" stroke-width="1.5"/><path d="M246.25403,176.99559l-0.56797,-17.26642c1.13378,0.49852 2.21208,1.16495 3.4171,1.47999l0.61668,0.02239c0,0 0.75,0 0.75,-0.75c0,-0.75 -0.75,-0.75 -0.75,-0.75l-0.25288,0.02239c-0.5482,-0.12874 -1.0698,-0.33609 -1.58228,-0.57205c0.89874,0.04148 1.34811,-0.85726 1.34811,-0.85726l-0.61214,-2.40836c-0.78633,-0.3064 -1.8466,-0.2132 -2.37802,-0.86878c-0.48511,-0.59844 1.05432,-1.0031 1.81995,-1.41092h1.20788c0.73612,0 1.3484,-0.53025 1.4757,-1.22964c0.24006,-0.05155 0.47684,-0.10759 0.71286,-0.16687l-0.05387,0.16161c-0.0285,0.07926 -0.04402,0.16471 -0.04402,0.25378c0,0.41421 0.33579,0.75 0.75,0.75c0.0988,0 0.19314,-0.01911 0.27953,-0.05382l1.38831,-0.52062l-0.00212,-0.00566c0.01889,-0.00562 0.03776,-0.01137 0.05659,-0.01725c0.2603,-0.08129 0.4942,-0.17398 0.70345,-0.27707c0.20991,1.11021 0.4269,2.25782 0.64425,3.40736c-0.16989,0.76116 -0.40786,1.52208 -0.7107,2.27938c-0.16142,0.45318 -0.23348,0.81373 -0.23442,1.10731c-1.98335,0.29647 -2.90039,2.90233 -3.30404,4.54308c0.02771,0.51083 -0.12222,1.06393 0.08312,1.53249c0.12246,0.27943 1.6527,0.90084 1.66464,1.31339c0.02272,0.78467 -1.92336,3.33496 -1.44725,3.904c0.21528,0.2573 0.52097,0.4049 0.86144,0.48715c-0.59037,0.8753 -1.19937,1.80548 -0.89684,2.72127c0.06052,0.18321 0.16665,0.32143 0.30559,0.42727z" stroke="none" stroke-width="0"/><path d="M251.79584,147.68692c0,0.00757 -0.00001,0.01513 -0.00001,0.0227c-0.00881,-0.00065 -0.01765,-0.00122 -0.0265,-0.00171c0.00883,-0.007 0.01767,-0.014 0.02651,-0.02099z" stroke="none" stroke-width="0"/><path d="" stroke="none" stroke-width="0"/><path d="" stroke="none" stroke-width="0"/><path d="" stroke="none" stroke-width="0"/><path d="" stroke="none" stroke-width="0"/><path d="" stroke="none" stroke-width="0"/><path d="" stroke="none" stroke-width="0"/><path d="" stroke="none" stroke-width="0"/><path d="" stroke="none" stroke-width="0"/><path d="" stroke="none" stroke-width="0"/><path d="M252.74181,143.03706c0,0 0.00155,0.00819 0.00459,0.02428c-0.00522,-0.00446 -0.01045,-0.00887 -0.0157,-0.01326z" stroke="none" stroke-width="0"/><path d="" stroke="none" stroke-width="0"/><path d="" stroke="none" stroke-width="0"/><path d="M223.70874,161.81041c0.02068,0.00109 0.03212,0.00109 0.03212,0.00109l1.44137,-0.13197c0.6011,-0.43699 1.58697,-0.60001 1.80331,-1.31098c0.44628,-1.46669 -0.94941,-2.95351 -2.26245,-3.92294c0.54453,-2.87996 1.09297,-5.78062 1.53978,-8.14375c1.01697,1.13966 3.16263,2.58883 3.7129,3.70101l0.19947,0.92062c0,0 0.30317,1.21268 1.51585,0.90951c0.10013,-0.02503 0.18992,-0.05626 0.27041,-0.0925c0.05109,0.18662 0.13733,0.35873 0.25115,0.50875c-0.74962,1.47969 -0.90023,3.26198 -0.99161,5.21816c-0.01179,0.2524 -0.04181,0.48689 -0.0798,0.70715c-0.30683,0.6993 -0.6201,1.39579 -0.93917,2.08953l-0.81203,1.29925c-0.152,0.23457 -0.24026,0.51428 -0.24026,0.81461c0,0.82843 0.67157,1.5 1.5,1.5c0.30146,0 0.58216,-0.08893 0.81728,-0.24199c-0.05166,0.42178 0.11716,0.90538 0.60422,1.47406l0.17803,0.71212c0.07579,0.33399 0.37449,0.58332 0.73141,0.58332c0.26446,0 0.49695,-0.13688 0.63049,-0.34365l0.42833,-0.6425l-0.32297,-0.21531c0.19028,-0.39712 0.32341,-0.82582 0.39294,-1.2561l-0.3634,11.04769l-10.51177,-5.49122c0.0427,0.00755 0.08666,0.01149 0.13153,0.01149c0.25076,0 0.47279,-0.12307 0.60896,-0.3121c0.0734,0.07672 0.1457,0.14807 0.21691,0.21249c0.02022,0.18238 0.13163,0.68486 0.74552,0.68486c0.75,0 0.75,-0.75 0.75,-0.75l-0.09016,-0.2877c0.01259,-0.02858 0.02513,-0.05813 0.0376,-0.08867c0.84079,-2.05807 0.21165,-2.44916 -0.76242,-2.23521c0.65761,-0.53596 1.30294,-1.07634 1.86457,-1.46741l0.75839,-0.1896c0.33399,-0.07579 0.58332,-0.37449 0.58332,-0.73141c0,-0.32193 -0.20283,-0.59649 -0.48768,-0.70285l-1.03782,-0.41513c-0.90196,-0.58803 -1.95758,-1.0168 -2.58092,-0.28192c-0.63278,0.746 -0.30895,1.56827 -0.09493,2.32781c-0.30314,0.19641 -0.58628,0.39615 -0.8442,0.61055c-0.02611,0.00791 -0.05014,0.01798 -0.07156,0.03065c-0.1276,-0.06592 -0.25293,-0.1274 -0.37316,-0.18377c0.25236,-1.33467 0.65491,-3.46375 1.12047,-5.92604z" data-paper-data="{&quot;index&quot;:null}" stroke="none" stroke-width="0"/><path d="" data-paper-data="{&quot;index&quot;:null}" stroke="none" stroke-width="0"/><path d="M225.05944,165.88852c0.02519,-0.02558 0.06618,-0.03098 0.11916,-0.02212c-0.04367,0.00282 -0.0834,0.01042 -0.11916,0.02212z" data-paper-data="{&quot;index&quot;:null}" stroke="none" stroke-width="0"/><path d="" data-paper-data="{&quot;index&quot;:null}" stroke="none" stroke-width="0"/><path d="" data-paper-data="{&quot;index&quot;:null}" stroke="none" stroke-width="0"/><path d="" data-paper-data="{&quot;index&quot;:null}" stroke="none" stroke-width="0"/><path d="M224.15253,159.46328c0.00039,-0.00208 0.00079,-0.00415 0.00118,-0.00623c0.03271,0.00789 0.06543,0.01542 0.09813,0.02254c-0.02929,-0.00348 -0.06232,-0.00888 -0.09931,-0.01631z" data-paper-data="{&quot;index&quot;:null}" stroke="none" stroke-width="0"/><path d="M235.99674,185.3612l-8.93286,16.26585l8.21542,13.94194c0,0 -4.7574,-1.98988 -8.85504,-4.42115c0.106,-0.12093 0.1985,-0.2792 0.26716,-0.48516c0.29682,-0.89046 -0.2979,-1.33516 -0.6126,-1.50145l0.27988,-0.12874c0,0 1.11803,-0.55902 0.55902,-1.67705c-0.55902,-1.11803 -1.67705,-0.55902 -1.67705,-0.55902l-1.41839,0.74658c-0.21121,0.41574 -0.59994,0.81798 -0.90143,1.22686c-1.24352,-1.01019 -2.11765,-2.01321 -2.28787,-2.91344c-0.21791,-1.15252 3.61563,-14.35811 3.61563,-14.35811z" data-paper-data="{&quot;index&quot;:null}" stroke="none" stroke-width="0"/><path d="M253.68345,203.93184c0.06472,0.09007 0.13025,0.17952 0.19655,0.26833l0.8478,1.41622c0,0 0.64312,1.07187 1.71499,0.42875c1.07187,-0.64312 0.42875,-1.71499 0.42875,-1.71499l-0.91691,-1.52495c-0.52456,-0.69595 -1.00339,-1.43335 -1.38986,-2.21447c0,0 -0.10387,-0.20775 -0.31162,-0.39936l-8.14442,-14.83017l8.89602,4.64718c-1.59865,0.74109 -2.6743,2.14931 -1.87953,4.39673c0.22285,0.63016 1.19757,0.62829 1.68782,1.08263c0.08849,0.08201 0.17346,0.16866 0.2552,0.25953c0.5067,1.80191 1.44136,3.56534 2.3902,5.33677c0.21163,0.5486 0.44103,1.06131 0.71242,1.50269c0,0 0.12209,0.19534 0.34713,0.38508c0.63162,0.9283 1.48015,1.93922 1.49582,3.05299c0.01638,1.16364 -2.13719,1.98764 -2.80342,2.60334c-0.51157,0.47276 -0.87811,0.85649 -1.22279,1.17974c-2.2359,0.5748 -4.33513,1.13739 -6.35544,2.157c-0.14603,0.02376 -0.29876,0.04879 -0.45973,0.07558l0.00014,0.12404l-0.0239,-0.11949l-0.08997,0.01799l-0.04688,-0.15628l-0.0336,0.01008z" data-paper-data="{&quot;index&quot;:null}" stroke="none" stroke-width="0"/><path d="M258.48843,195.96976c0.01394,0.02577 0.02644,0.05266 0.03757,0.0806c-0.01244,-0.0269 -0.02496,-0.05376 -0.03757,-0.0806z" data-paper-data="{&quot;index&quot;:null}" stroke="none" stroke-width="0"/><path d="" data-paper-data="{&quot;index&quot;:null}" stroke="none" stroke-width="0"/><path d="" data-paper-data="{&quot;index&quot;:null}" stroke="none" stroke-width="0"/><path d="M233.56067,179.76497l-13.36024,5.31932c-0.00562,-0.0431 -0.01207,-0.06891 -0.01207,-0.06891c-0.1703,-0.60772 -0.50422,-1.1863 -0.93802,-1.64472l-1.27107,-0.21967c0,0 -0.75,0 -0.75,0.75c0,0.75 0.75,0.75 0.75,0.75l0.21041,-0.21967c0.26921,0.24529 0.47228,0.59069 0.54346,0.94787c0,0 0.0292,0.1168 0.111,0.2451l-3.10165,1.23491l-0.25812,1.36643c-0.70278,-0.48061 -1.30984,-0.53474 -1.83656,-0.34541c0.20662,-1.68392 0.70986,-3.31968 1.34267,-5.05863c0,0 0.13062,-0.35919 0.07867,-0.78088c0.80886,-1.49578 1.58595,-2.8695 2.01379,-3.94421l-0.01144,-0.12675l0.04253,0.00945l0.19858,-0.89363c0.00567,-0.00438 0.01134,-0.00875 0.01701,-0.01312c0.02734,0.76693 0.18843,1.74621 0.11508,2.45718c-0.17371,0.09975 -0.33621,0.28635 -0.33621,0.63545c0,0.75 0.75,0.75 0.75,0.75l0.945,-0.56809c0.23857,-1.22997 0.01483,-2.14896 0.02239,-3.44277c0,0 0,-0.48995 -0.396,-0.67785c1.4634,-1.12169 2.484,-1.88972 2.484,-1.88972z" data-paper-data="{&quot;index&quot;:null}" stroke="none" stroke-width="0"/><path d="" data-paper-data="{&quot;index&quot;:null}" stroke="none" stroke-width="0"/><path d="" data-paper-data="{&quot;index&quot;:null}" stroke="none" stroke-width="0"/><path d="" data-paper-data="{&quot;index&quot;:null}" stroke="none" stroke-width="0"/><path d="M248.5448,180.8761l8.96176,-3.84665c0.02479,0.47141 0.19,0.82936 0.19,0.82936c0.4726,1.01838 0.78017,2.1625 1.09164,3.30031c-0.2342,0.309 -0.30123,0.67488 -0.32041,0.85901c-1.23936,-0.25644 -2.41007,-0.29835 -3.01816,-0.1057c-0.54873,0.17384 -0.79752,0.71431 -0.99354,1.31722z" data-paper-data="{&quot;index&quot;:null}" stroke="none" stroke-width="0"/><path d="" data-paper-data="{&quot;index&quot;:null}" stroke="none" stroke-width="0"/><path d="" data-paper-data="{&quot;index&quot;:null}" stroke="none" stroke-width="0"/><path d="M268.82066,194.00752c0.00187,0.00285 0.00367,0.00569 0.00542,0.00854c-0.00034,0.00363 -0.00067,0.00725 -0.00101,0.01088c-0.00147,-0.00647 -0.00294,-0.01294 -0.00441,-0.01942z" data-paper-data="{&quot;index&quot;:null}" stroke="none" stroke-width="0"/><path d="" data-paper-data="{&quot;index&quot;:null}" stroke="none" stroke-width="0"/><path d="" data-paper-data="{&quot;index&quot;:null}" stroke="none" stroke-width="0"/><path d="" data-paper-data="{&quot;index&quot;:null}" stroke="none" stroke-width="0"/></g></g></svg>